solid clamp_1_l_Default_sldprt
   facet normal 0.000000e+000 1.000000e+000 0.000000e+000
      outer loop
         vertex 2.000000e+001 5.000000e+001 -1.700000e+001
         vertex 1.974558e+001 5.000000e+001 -1.701081e+001
         vertex 0.000000e+000 5.000000e+001 0.000000e+000
      endloop
   endfacet
   facet normal 0.000000e+000 1.000000e+000 0.000000e+000
      outer loop
         vertex 0.000000e+000 5.000000e+001 0.000000e+000
         vertex 1.974558e+001 5.000000e+001 -1.701081e+001
         vertex 1.924407e+001 5.000000e+001 -1.709680e+001
      endloop
   endfacet
   facet normal 0.000000e+000 1.000000e+000 0.000000e+000
      outer loop
         vertex 0.000000e+000 5.000000e+001 0.000000e+000
         vertex 1.924407e+001 5.000000e+001 -1.709680e+001
         vertex 1.876430e+001 5.000000e+001 -1.726631e+001
      endloop
   endfacet
   facet normal 0.000000e+000 1.000000e+000 0.000000e+000
      outer loop
         vertex 6.000000e+001 5.000000e+001 0.000000e+000
         vertex 2.075593e+001 5.000000e+001 -1.709680e+001
         vertex 0.000000e+000 5.000000e+001 0.000000e+000
      endloop
   endfacet
   facet normal 0.000000e+000 1.000000e+000 0.000000e+000
      outer loop
         vertex 0.000000e+000 5.000000e+001 0.000000e+000
         vertex 2.075593e+001 5.000000e+001 -1.709680e+001
         vertex 2.025442e+001 5.000000e+001 -1.701081e+001
      endloop
   endfacet
   facet normal 0.000000e+000 1.000000e+000 0.000000e+000
      outer loop
         vertex 0.000000e+000 5.000000e+001 0.000000e+000
         vertex 2.025442e+001 5.000000e+001 -1.701081e+001
         vertex 2.000000e+001 5.000000e+001 -1.700000e+001
      endloop
   endfacet
   facet normal 0.000000e+000 1.000000e+000 0.000000e+000
      outer loop
         vertex 1.758801e+001 5.000000e+001 -1.821610e+001
         vertex 1.732122e+001 5.000000e+001 -1.864939e+001
         vertex 0.000000e+000 5.000000e+001 0.000000e+000
      endloop
   endfacet
   facet normal 0.000000e+000 1.000000e+000 0.000000e+000
      outer loop
         vertex 0.000000e+000 5.000000e+001 0.000000e+000
         vertex 1.732122e+001 5.000000e+001 -1.864939e+001
         vertex 1.713150e+001 5.000000e+001 -1.912153e+001
      endloop
   endfacet
   facet normal 0.000000e+000 1.000000e+000 0.000000e+000
      outer loop
         vertex 0.000000e+000 5.000000e+001 0.000000e+000
         vertex 1.713150e+001 5.000000e+001 -1.912153e+001
         vertex 1.702430e+001 5.000000e+001 -1.961895e+001
      endloop
   endfacet
   facet normal 0.000000e+000 1.000000e+000 0.000000e+000
      outer loop
         vertex 6.000000e+001 5.000000e+001 -2.093400e+001
         vertex 2.299730e+001 5.000000e+001 -2.012733e+001
         vertex 2.297570e+001 5.000000e+001 -1.961895e+001
      endloop
   endfacet
   facet normal 0.000000e+000 1.000000e+000 0.000000e+000
      outer loop
         vertex 2.267878e+001 5.000000e+001 -1.864939e+001
         vertex 2.241199e+001 5.000000e+001 -1.821610e+001
         vertex 6.000000e+001 5.000000e+001 0.000000e+000
      endloop
   endfacet
   facet normal 0.000000e+000 1.000000e+000 0.000000e+000
      outer loop
         vertex 6.000000e+001 5.000000e+001 0.000000e+000
         vertex 2.241199e+001 5.000000e+001 -1.821610e+001
         vertex 2.207582e+001 5.000000e+001 -1.783413e+001
      endloop
   endfacet
   facet normal 0.000000e+000 1.000000e+000 0.000000e+000
      outer loop
         vertex 1.876430e+001 5.000000e+001 -1.726631e+001
         vertex 1.832008e+001 5.000000e+001 -1.751447e+001
         vertex 0.000000e+000 5.000000e+001 0.000000e+000
      endloop
   endfacet
   facet normal 0.000000e+000 1.000000e+000 0.000000e+000
      outer loop
         vertex 0.000000e+000 5.000000e+001 0.000000e+000
         vertex 1.832008e+001 5.000000e+001 -1.751447e+001
         vertex 1.792418e+001 5.000000e+001 -1.783413e+001
      endloop
   endfacet
   facet normal 0.000000e+000 1.000000e+000 0.000000e+000
      outer loop
         vertex 0.000000e+000 5.000000e+001 0.000000e+000
         vertex 1.792418e+001 5.000000e+001 -1.783413e+001
         vertex 1.758801e+001 5.000000e+001 -1.821610e+001
      endloop
   endfacet
   facet normal 0.000000e+000 1.000000e+000 0.000000e+000
      outer loop
         vertex 1.702430e+001 5.000000e+001 -1.961895e+001
         vertex 1.700270e+001 5.000000e+001 -2.012733e+001
         vertex 0.000000e+000 5.000000e+001 0.000000e+000
      endloop
   endfacet
   facet normal 0.000000e+000 1.000000e+000 0.000000e+000
      outer loop
         vertex 0.000000e+000 5.000000e+001 0.000000e+000
         vertex 1.700270e+001 5.000000e+001 -2.012733e+001
         vertex 1.706733e+001 5.000000e+001 -2.063204e+001
      endloop
   endfacet
   facet normal 0.000000e+000 1.000000e+000 0.000000e+000
      outer loop
         vertex 0.000000e+000 5.000000e+001 0.000000e+000
         vertex 1.706733e+001 5.000000e+001 -2.063204e+001
         vertex 0.000000e+000 5.000000e+001 -1.480000e+002
      endloop
   endfacet
   facet normal 0.000000e+000 1.000000e+000 0.000000e+000
      outer loop
         vertex 2.207582e+001 5.000000e+001 -1.783413e+001
         vertex 2.167992e+001 5.000000e+001 -1.751447e+001
         vertex 6.000000e+001 5.000000e+001 0.000000e+000
      endloop
   endfacet
   facet normal 0.000000e+000 1.000000e+000 0.000000e+000
      outer loop
         vertex 6.000000e+001 5.000000e+001 0.000000e+000
         vertex 2.167992e+001 5.000000e+001 -1.751447e+001
         vertex 2.123570e+001 5.000000e+001 -1.726631e+001
      endloop
   endfacet
   facet normal 0.000000e+000 1.000000e+000 0.000000e+000
      outer loop
         vertex 6.000000e+001 5.000000e+001 0.000000e+000
         vertex 2.123570e+001 5.000000e+001 -1.726631e+001
         vertex 2.075593e+001 5.000000e+001 -1.709680e+001
      endloop
   endfacet
   facet normal 0.000000e+000 1.000000e+000 0.000000e+000
      outer loop
         vertex 3.032427e+001 5.000000e+001 -3.736891e+001
         vertex 2.188466e+001 5.000000e+001 -2.233411e+001
         vertex 3.444302e+001 5.000000e+001 -3.335887e+001
      endloop
   endfacet
   facet normal 0.000000e+000 1.000000e+000 0.000000e+000
      outer loop
         vertex 3.444302e+001 5.000000e+001 -3.335887e+001
         vertex 2.188466e+001 5.000000e+001 -2.233411e+001
         vertex 2.225202e+001 5.000000e+001 -2.198202e+001
      endloop
   endfacet
   facet normal 0.000000e+000 1.000000e+000 0.000000e+000
      outer loop
         vertex 3.444302e+001 5.000000e+001 -3.335887e+001
         vertex 2.225202e+001 5.000000e+001 -2.198202e+001
         vertex 3.896470e+001 5.000000e+001 -2.980939e+001
      endloop
   endfacet
   facet normal 0.000000e+000 1.000000e+000 0.000000e+000
      outer loop
         vertex 6.000000e+001 5.000000e+001 -2.093400e+001
         vertex 2.297570e+001 5.000000e+001 -1.961895e+001
         vertex 6.000000e+001 5.000000e+001 0.000000e+000
      endloop
   endfacet
   facet normal 0.000000e+000 1.000000e+000 0.000000e+000
      outer loop
         vertex 6.000000e+001 5.000000e+001 0.000000e+000
         vertex 2.297570e+001 5.000000e+001 -1.961895e+001
         vertex 2.286850e+001 5.000000e+001 -1.912153e+001
      endloop
   endfacet
   facet normal 0.000000e+000 1.000000e+000 0.000000e+000
      outer loop
         vertex 6.000000e+001 5.000000e+001 0.000000e+000
         vertex 2.286850e+001 5.000000e+001 -1.912153e+001
         vertex 2.267878e+001 5.000000e+001 -1.864939e+001
      endloop
   endfacet
   facet normal 0.000000e+000 1.000000e+000 0.000000e+000
      outer loop
         vertex 1.949300e+001 5.000000e+001 -2.295685e+001
         vertex 2.000000e+001 5.000000e+001 -2.300000e+001
         vertex 2.347719e+001 5.000000e+001 -4.658416e+001
      endloop
   endfacet
   facet normal 0.000000e+000 1.000000e+000 0.000000e+000
      outer loop
         vertex 2.347719e+001 5.000000e+001 -4.658416e+001
         vertex 2.000000e+001 5.000000e+001 -2.300000e+001
         vertex 2.050700e+001 5.000000e+001 -2.295685e+001
      endloop
   endfacet
   facet normal 0.000000e+000 1.000000e+000 0.000000e+000
      outer loop
         vertex 2.347719e+001 5.000000e+001 -4.658416e+001
         vertex 2.050700e+001 5.000000e+001 -2.295685e+001
         vertex 2.665514e+001 5.000000e+001 -4.179406e+001
      endloop
   endfacet
   facet normal 0.000000e+000 1.000000e+000 0.000000e+000
      outer loop
         vertex 2.665514e+001 5.000000e+001 -4.179406e+001
         vertex 2.050700e+001 5.000000e+001 -2.295685e+001
         vertex 2.099942e+001 5.000000e+001 -2.282863e+001
      endloop
   endfacet
   facet normal 0.000000e+000 1.000000e+000 0.000000e+000
      outer loop
         vertex 2.665514e+001 5.000000e+001 -4.179406e+001
         vertex 2.099942e+001 5.000000e+001 -2.282863e+001
         vertex 3.032427e+001 5.000000e+001 -3.736891e+001
      endloop
   endfacet
   facet normal 0.000000e+000 1.000000e+000 0.000000e+000
      outer loop
         vertex 3.032427e+001 5.000000e+001 -3.736891e+001
         vertex 2.099942e+001 5.000000e+001 -2.282863e+001
         vertex 2.146309e+001 5.000000e+001 -2.261904e+001
      endloop
   endfacet
   facet normal 0.000000e+000 1.000000e+000 0.000000e+000
      outer loop
         vertex 3.032427e+001 5.000000e+001 -3.736891e+001
         vertex 2.146309e+001 5.000000e+001 -2.261904e+001
         vertex 2.188466e+001 5.000000e+001 -2.233411e+001
      endloop
   endfacet
   facet normal 0.000000e+000 1.000000e+000 0.000000e+000
      outer loop
         vertex 1.706733e+001 5.000000e+001 -2.063204e+001
         vertex 1.721633e+001 5.000000e+001 -2.111857e+001
         vertex 0.000000e+000 5.000000e+001 -1.480000e+002
      endloop
   endfacet
   facet normal 0.000000e+000 1.000000e+000 0.000000e+000
      outer loop
         vertex 0.000000e+000 5.000000e+001 -1.480000e+002
         vertex 1.721633e+001 5.000000e+001 -2.111857e+001
         vertex 1.744541e+001 5.000000e+001 -2.157292e+001
      endloop
   endfacet
   facet normal 0.000000e+000 1.000000e+000 0.000000e+000
      outer loop
         vertex 0.000000e+000 5.000000e+001 -1.480000e+002
         vertex 1.744541e+001 5.000000e+001 -2.157292e+001
         vertex 1.774798e+001 5.000000e+001 -2.198202e+001
      endloop
   endfacet
   facet normal 0.000000e+000 1.000000e+000 0.000000e+000
      outer loop
         vertex 1.774798e+001 5.000000e+001 -2.198202e+001
         vertex 1.811534e+001 5.000000e+001 -2.233411e+001
         vertex 0.000000e+000 5.000000e+001 -1.480000e+002
      endloop
   endfacet
   facet normal 0.000000e+000 1.000000e+000 0.000000e+000
      outer loop
         vertex 0.000000e+000 5.000000e+001 -1.480000e+002
         vertex 1.811534e+001 5.000000e+001 -2.233411e+001
         vertex 1.853692e+001 5.000000e+001 -2.261904e+001
      endloop
   endfacet
   facet normal 0.000000e+000 1.000000e+000 0.000000e+000
      outer loop
         vertex 0.000000e+000 5.000000e+001 -1.480000e+002
         vertex 1.853692e+001 5.000000e+001 -2.261904e+001
         vertex 1.900058e+001 5.000000e+001 -2.282863e+001
      endloop
   endfacet
   facet normal 0.000000e+000 1.000000e+000 0.000000e+000
      outer loop
         vertex 2.225202e+001 5.000000e+001 -2.198202e+001
         vertex 2.255459e+001 5.000000e+001 -2.157292e+001
         vertex 3.896470e+001 5.000000e+001 -2.980939e+001
      endloop
   endfacet
   facet normal 0.000000e+000 1.000000e+000 0.000000e+000
      outer loop
         vertex 3.896470e+001 5.000000e+001 -2.980939e+001
         vertex 2.255459e+001 5.000000e+001 -2.157292e+001
         vertex 2.278367e+001 5.000000e+001 -2.111857e+001
      endloop
   endfacet
   facet normal 0.000000e+000 1.000000e+000 0.000000e+000
      outer loop
         vertex 3.896470e+001 5.000000e+001 -2.980939e+001
         vertex 2.278367e+001 5.000000e+001 -2.111857e+001
         vertex 4.383808e+001 5.000000e+001 -2.676067e+001
      endloop
   endfacet
   facet normal 0.000000e+000 1.000000e+000 0.000000e+000
      outer loop
         vertex 4.383808e+001 5.000000e+001 -2.676067e+001
         vertex 2.278367e+001 5.000000e+001 -2.111857e+001
         vertex 2.293266e+001 5.000000e+001 -2.063204e+001
      endloop
   endfacet
   facet normal 0.000000e+000 1.000000e+000 0.000000e+000
      outer loop
         vertex 4.383808e+001 5.000000e+001 -2.676067e+001
         vertex 2.293266e+001 5.000000e+001 -2.063204e+001
         vertex 4.900793e+001 5.000000e+001 -2.424728e+001
      endloop
   endfacet
   facet normal 0.000000e+000 1.000000e+000 0.000000e+000
      outer loop
         vertex 4.900793e+001 5.000000e+001 -2.424728e+001
         vertex 2.293266e+001 5.000000e+001 -2.063204e+001
         vertex 2.299730e+001 5.000000e+001 -2.012733e+001
      endloop
   endfacet
   facet normal 0.000000e+000 1.000000e+000 0.000000e+000
      outer loop
         vertex 4.900793e+001 5.000000e+001 -2.424728e+001
         vertex 2.299730e+001 5.000000e+001 -2.012733e+001
         vertex 5.441566e+001 5.000000e+001 -2.229769e+001
      endloop
   endfacet
   facet normal 0.000000e+000 1.000000e+000 0.000000e+000
      outer loop
         vertex 5.441566e+001 5.000000e+001 -2.229769e+001
         vertex 2.299730e+001 5.000000e+001 -2.012733e+001
         vertex 6.000000e+001 5.000000e+001 -2.093400e+001
      endloop
   endfacet
   facet normal 0.000000e+000 1.000000e+000 0.000000e+000
      outer loop
         vertex 3.032427e+001 5.000000e+001 -1.106311e+002
         vertex 3.444302e+001 5.000000e+001 -1.146411e+002
         vertex 0.000000e+000 5.000000e+001 -1.480000e+002
      endloop
   endfacet
   facet normal 0.000000e+000 1.000000e+000 0.000000e+000
      outer loop
         vertex 0.000000e+000 5.000000e+001 -1.480000e+002
         vertex 4.900793e+001 5.000000e+001 -1.237527e+002
         vertex 6.000000e+001 5.000000e+001 -1.480000e+002
      endloop
   endfacet
   facet normal 0.000000e+000 1.000000e+000 0.000000e+000
      outer loop
         vertex 6.000000e+001 5.000000e+001 -1.480000e+002
         vertex 4.900793e+001 5.000000e+001 -1.237527e+002
         vertex 5.441566e+001 5.000000e+001 -1.257023e+002
      endloop
   endfacet
   facet normal 0.000000e+000 1.000000e+000 0.000000e+000
      outer loop
         vertex 6.000000e+001 5.000000e+001 -1.480000e+002
         vertex 5.441566e+001 5.000000e+001 -1.257023e+002
         vertex 6.000000e+001 5.000000e+001 -1.270660e+002
      endloop
   endfacet
   facet normal 0.000000e+000 1.000000e+000 0.000000e+000
      outer loop
         vertex 1.630597e+001 5.000000e+001 -7.974029e+001
         vertex 1.722040e+001 5.000000e+001 -8.541552e+001
         vertex 0.000000e+000 5.000000e+001 -1.480000e+002
      endloop
   endfacet
   facet normal 0.000000e+000 1.000000e+000 0.000000e+000
      outer loop
         vertex 0.000000e+000 5.000000e+001 -1.480000e+002
         vertex 1.722040e+001 5.000000e+001 -8.541552e+001
         vertex 1.873294e+001 5.000000e+001 -9.096139e+001
      endloop
   endfacet
   facet normal 0.000000e+000 1.000000e+000 0.000000e+000
      outer loop
         vertex 0.000000e+000 5.000000e+001 -1.480000e+002
         vertex 1.873294e+001 5.000000e+001 -9.096139e+001
         vertex 2.082645e+001 5.000000e+001 -9.631505e+001
      endloop
   endfacet
   facet normal 0.000000e+000 1.000000e+000 0.000000e+000
      outer loop
         vertex 3.444302e+001 5.000000e+001 -1.146411e+002
         vertex 3.896470e+001 5.000000e+001 -1.181906e+002
         vertex 0.000000e+000 5.000000e+001 -1.480000e+002
      endloop
   endfacet
   facet normal 0.000000e+000 1.000000e+000 0.000000e+000
      outer loop
         vertex 0.000000e+000 5.000000e+001 -1.480000e+002
         vertex 3.896470e+001 5.000000e+001 -1.181906e+002
         vertex 4.383808e+001 5.000000e+001 -1.212393e+002
      endloop
   endfacet
   facet normal 0.000000e+000 1.000000e+000 0.000000e+000
      outer loop
         vertex 0.000000e+000 5.000000e+001 -1.480000e+002
         vertex 4.383808e+001 5.000000e+001 -1.212393e+002
         vertex 4.900793e+001 5.000000e+001 -1.237527e+002
      endloop
   endfacet
   facet normal 0.000000e+000 1.000000e+000 0.000000e+000
      outer loop
         vertex 1.949300e+001 5.000000e+001 -2.295685e+001
         vertex 2.347719e+001 5.000000e+001 -4.658416e+001
         vertex 1.900058e+001 5.000000e+001 -2.282863e+001
      endloop
   endfacet
   facet normal 0.000000e+000 1.000000e+000 0.000000e+000
      outer loop
         vertex 1.900058e+001 5.000000e+001 -2.282863e+001
         vertex 2.347719e+001 5.000000e+001 -4.658416e+001
         vertex 2.082645e+001 5.000000e+001 -5.168495e+001
      endloop
   endfacet
   facet normal 0.000000e+000 1.000000e+000 0.000000e+000
      outer loop
         vertex 1.900058e+001 5.000000e+001 -2.282863e+001
         vertex 2.082645e+001 5.000000e+001 -5.168495e+001
         vertex 1.873294e+001 5.000000e+001 -5.703861e+001
      endloop
   endfacet
   facet normal 0.000000e+000 1.000000e+000 0.000000e+000
      outer loop
         vertex 2.082645e+001 5.000000e+001 -9.631505e+001
         vertex 2.347719e+001 5.000000e+001 -1.014158e+002
         vertex 0.000000e+000 5.000000e+001 -1.480000e+002
      endloop
   endfacet
   facet normal 0.000000e+000 1.000000e+000 0.000000e+000
      outer loop
         vertex 0.000000e+000 5.000000e+001 -1.480000e+002
         vertex 2.347719e+001 5.000000e+001 -1.014158e+002
         vertex 2.665514e+001 5.000000e+001 -1.062059e+002
      endloop
   endfacet
   facet normal 0.000000e+000 1.000000e+000 0.000000e+000
      outer loop
         vertex 0.000000e+000 5.000000e+001 -1.480000e+002
         vertex 2.665514e+001 5.000000e+001 -1.062059e+002
         vertex 3.032427e+001 5.000000e+001 -1.106311e+002
      endloop
   endfacet
   facet normal 0.000000e+000 1.000000e+000 0.000000e+000
      outer loop
         vertex 1.873294e+001 5.000000e+001 -5.703861e+001
         vertex 1.722040e+001 5.000000e+001 -6.258448e+001
         vertex 1.900058e+001 5.000000e+001 -2.282863e+001
      endloop
   endfacet
   facet normal 0.000000e+000 1.000000e+000 0.000000e+000
      outer loop
         vertex 1.900058e+001 5.000000e+001 -2.282863e+001
         vertex 1.722040e+001 5.000000e+001 -6.258448e+001
         vertex 1.630597e+001 5.000000e+001 -6.825972e+001
      endloop
   endfacet
   facet normal 0.000000e+000 1.000000e+000 0.000000e+000
      outer loop
         vertex 1.900058e+001 5.000000e+001 -2.282863e+001
         vertex 1.630597e+001 5.000000e+001 -6.825972e+001
         vertex 0.000000e+000 5.000000e+001 -1.480000e+002
      endloop
   endfacet
   facet normal 0.000000e+000 1.000000e+000 0.000000e+000
      outer loop
         vertex 0.000000e+000 5.000000e+001 -1.480000e+002
         vertex 1.630597e+001 5.000000e+001 -6.825972e+001
         vertex 1.600000e+001 5.000000e+001 -7.400000e+001
      endloop
   endfacet
   facet normal 0.000000e+000 1.000000e+000 0.000000e+000
      outer loop
         vertex 0.000000e+000 5.000000e+001 -1.480000e+002
         vertex 1.600000e+001 5.000000e+001 -7.400000e+001
         vertex 1.630597e+001 5.000000e+001 -7.974029e+001
      endloop
   endfacet
   facet normal 0.000000e+000 -1.000000e+000 0.000000e+000
      outer loop
         vertex 2.123570e+001 0.000000e+000 -1.726631e+001
         vertex 2.167992e+001 0.000000e+000 -1.751447e+001
         vertex 6.000000e+001 0.000000e+000 0.000000e+000
      endloop
   endfacet
   facet normal 0.000000e+000 -1.000000e+000 0.000000e+000
      outer loop
         vertex 6.000000e+001 0.000000e+000 0.000000e+000
         vertex 2.167992e+001 0.000000e+000 -1.751447e+001
         vertex 2.207582e+001 0.000000e+000 -1.783413e+001
      endloop
   endfacet
   facet normal 0.000000e+000 -1.000000e+000 0.000000e+000
      outer loop
         vertex 6.000000e+001 0.000000e+000 0.000000e+000
         vertex 2.207582e+001 0.000000e+000 -1.783413e+001
         vertex 2.241199e+001 0.000000e+000 -1.821610e+001
      endloop
   endfacet
   facet normal 0.000000e+000 -1.000000e+000 0.000000e+000
      outer loop
         vertex 5.441566e+001 0.000000e+000 -2.229769e+001
         vertex 6.000000e+001 0.000000e+000 -2.093400e+001
         vertex 2.299730e+001 0.000000e+000 -2.012733e+001
      endloop
   endfacet
   facet normal 0.000000e+000 -1.000000e+000 0.000000e+000
      outer loop
         vertex 1.713150e+001 0.000000e+000 -1.912153e+001
         vertex 0.000000e+000 0.000000e+000 0.000000e+000
         vertex 1.702430e+001 0.000000e+000 -1.961895e+001
      endloop
   endfacet
   facet normal 0.000000e+000 -1.000000e+000 0.000000e+000
      outer loop
         vertex 1.702430e+001 0.000000e+000 -1.961895e+001
         vertex 0.000000e+000 0.000000e+000 0.000000e+000
         vertex 1.700270e+001 0.000000e+000 -2.012733e+001
      endloop
   endfacet
   facet normal 0.000000e+000 -1.000000e+000 0.000000e+000
      outer loop
         vertex 1.713150e+001 0.000000e+000 -1.912153e+001
         vertex 1.732122e+001 0.000000e+000 -1.864939e+001
         vertex 0.000000e+000 0.000000e+000 0.000000e+000
      endloop
   endfacet
   facet normal 0.000000e+000 -1.000000e+000 0.000000e+000
      outer loop
         vertex 0.000000e+000 0.000000e+000 0.000000e+000
         vertex 1.732122e+001 0.000000e+000 -1.864939e+001
         vertex 1.758801e+001 0.000000e+000 -1.821610e+001
      endloop
   endfacet
   facet normal 0.000000e+000 -1.000000e+000 0.000000e+000
      outer loop
         vertex 0.000000e+000 0.000000e+000 0.000000e+000
         vertex 1.758801e+001 0.000000e+000 -1.821610e+001
         vertex 1.792418e+001 0.000000e+000 -1.783413e+001
      endloop
   endfacet
   facet normal 0.000000e+000 -1.000000e+000 0.000000e+000
      outer loop
         vertex 0.000000e+000 0.000000e+000 0.000000e+000
         vertex 1.924407e+001 0.000000e+000 -1.709680e+001
         vertex 1.974558e+001 0.000000e+000 -1.701081e+001
      endloop
   endfacet
   facet normal 0.000000e+000 -1.000000e+000 0.000000e+000
      outer loop
         vertex 2.241199e+001 0.000000e+000 -1.821610e+001
         vertex 2.267878e+001 0.000000e+000 -1.864939e+001
         vertex 6.000000e+001 0.000000e+000 0.000000e+000
      endloop
   endfacet
   facet normal 0.000000e+000 -1.000000e+000 0.000000e+000
      outer loop
         vertex 6.000000e+001 0.000000e+000 0.000000e+000
         vertex 2.267878e+001 0.000000e+000 -1.864939e+001
         vertex 2.286850e+001 0.000000e+000 -1.912153e+001
      endloop
   endfacet
   facet normal 0.000000e+000 -1.000000e+000 0.000000e+000
      outer loop
         vertex 6.000000e+001 0.000000e+000 0.000000e+000
         vertex 2.286850e+001 0.000000e+000 -1.912153e+001
         vertex 6.000000e+001 0.000000e+000 -2.093400e+001
      endloop
   endfacet
   facet normal 0.000000e+000 -1.000000e+000 0.000000e+000
      outer loop
         vertex 6.000000e+001 0.000000e+000 -2.093400e+001
         vertex 2.286850e+001 0.000000e+000 -1.912153e+001
         vertex 2.297570e+001 0.000000e+000 -1.961895e+001
      endloop
   endfacet
   facet normal 0.000000e+000 -1.000000e+000 0.000000e+000
      outer loop
         vertex 6.000000e+001 0.000000e+000 -2.093400e+001
         vertex 2.297570e+001 0.000000e+000 -1.961895e+001
         vertex 2.299730e+001 0.000000e+000 -2.012733e+001
      endloop
   endfacet
   facet normal 0.000000e+000 -1.000000e+000 0.000000e+000
      outer loop
         vertex 3.032427e+001 0.000000e+000 -3.736891e+001
         vertex 3.444302e+001 0.000000e+000 -3.335887e+001
         vertex 2.225202e+001 0.000000e+000 -2.198202e+001
      endloop
   endfacet
   facet normal 0.000000e+000 -1.000000e+000 0.000000e+000
      outer loop
         vertex 6.000000e+001 0.000000e+000 -1.480000e+002
         vertex 6.000000e+001 0.000000e+000 -1.270660e+002
         vertex 5.441566e+001 0.000000e+000 -1.257023e+002
      endloop
   endfacet
   facet normal 0.000000e+000 -1.000000e+000 0.000000e+000
      outer loop
         vertex 3.032427e+001 0.000000e+000 -1.106311e+002
         vertex 2.665514e+001 0.000000e+000 -1.062059e+002
         vertex 0.000000e+000 0.000000e+000 -1.480000e+002
      endloop
   endfacet
   facet normal 0.000000e+000 -1.000000e+000 0.000000e+000
      outer loop
         vertex 1.900058e+001 0.000000e+000 -2.282863e+001
         vertex 1.853692e+001 0.000000e+000 -2.261904e+001
         vertex 0.000000e+000 0.000000e+000 -1.480000e+002
      endloop
   endfacet
   facet normal 0.000000e+000 -1.000000e+000 0.000000e+000
      outer loop
         vertex 0.000000e+000 0.000000e+000 -1.480000e+002
         vertex 1.853692e+001 0.000000e+000 -2.261904e+001
         vertex 1.811534e+001 0.000000e+000 -2.233411e+001
      endloop
   endfacet
   facet normal 0.000000e+000 -1.000000e+000 0.000000e+000
      outer loop
         vertex 0.000000e+000 0.000000e+000 -1.480000e+002
         vertex 1.811534e+001 0.000000e+000 -2.233411e+001
         vertex 1.774798e+001 0.000000e+000 -2.198202e+001
      endloop
   endfacet
   facet normal 0.000000e+000 -1.000000e+000 0.000000e+000
      outer loop
         vertex 1.792418e+001 0.000000e+000 -1.783413e+001
         vertex 1.832008e+001 0.000000e+000 -1.751447e+001
         vertex 0.000000e+000 0.000000e+000 0.000000e+000
      endloop
   endfacet
   facet normal 0.000000e+000 -1.000000e+000 0.000000e+000
      outer loop
         vertex 0.000000e+000 0.000000e+000 0.000000e+000
         vertex 1.832008e+001 0.000000e+000 -1.751447e+001
         vertex 1.876430e+001 0.000000e+000 -1.726631e+001
      endloop
   endfacet
   facet normal 0.000000e+000 -1.000000e+000 0.000000e+000
      outer loop
         vertex 0.000000e+000 0.000000e+000 0.000000e+000
         vertex 1.876430e+001 0.000000e+000 -1.726631e+001
         vertex 1.924407e+001 0.000000e+000 -1.709680e+001
      endloop
   endfacet
   facet normal 0.000000e+000 -1.000000e+000 0.000000e+000
      outer loop
         vertex 1.974558e+001 0.000000e+000 -1.701081e+001
         vertex 2.000000e+001 0.000000e+000 -1.700000e+001
         vertex 0.000000e+000 0.000000e+000 0.000000e+000
      endloop
   endfacet
   facet normal 0.000000e+000 -1.000000e+000 0.000000e+000
      outer loop
         vertex 0.000000e+000 0.000000e+000 0.000000e+000
         vertex 2.000000e+001 0.000000e+000 -1.700000e+001
         vertex 2.025442e+001 0.000000e+000 -1.701081e+001
      endloop
   endfacet
   facet normal 0.000000e+000 -1.000000e+000 0.000000e+000
      outer loop
         vertex 0.000000e+000 0.000000e+000 0.000000e+000
         vertex 2.025442e+001 0.000000e+000 -1.701081e+001
         vertex 6.000000e+001 0.000000e+000 0.000000e+000
      endloop
   endfacet
   facet normal 0.000000e+000 -1.000000e+000 0.000000e+000
      outer loop
         vertex 6.000000e+001 0.000000e+000 0.000000e+000
         vertex 2.025442e+001 0.000000e+000 -1.701081e+001
         vertex 2.075593e+001 0.000000e+000 -1.709680e+001
      endloop
   endfacet
   facet normal 0.000000e+000 -1.000000e+000 0.000000e+000
      outer loop
         vertex 6.000000e+001 0.000000e+000 0.000000e+000
         vertex 2.075593e+001 0.000000e+000 -1.709680e+001
         vertex 2.123570e+001 0.000000e+000 -1.726631e+001
      endloop
   endfacet
   facet normal 0.000000e+000 -1.000000e+000 0.000000e+000
      outer loop
         vertex 2.225202e+001 0.000000e+000 -2.198202e+001
         vertex 3.444302e+001 0.000000e+000 -3.335887e+001
         vertex 2.255459e+001 0.000000e+000 -2.157292e+001
      endloop
   endfacet
   facet normal 0.000000e+000 -1.000000e+000 0.000000e+000
      outer loop
         vertex 2.255459e+001 0.000000e+000 -2.157292e+001
         vertex 3.444302e+001 0.000000e+000 -3.335887e+001
         vertex 3.896470e+001 0.000000e+000 -2.980939e+001
      endloop
   endfacet
   facet normal 0.000000e+000 -1.000000e+000 0.000000e+000
      outer loop
         vertex 2.255459e+001 0.000000e+000 -2.157292e+001
         vertex 3.896470e+001 0.000000e+000 -2.980939e+001
         vertex 2.278367e+001 0.000000e+000 -2.111857e+001
      endloop
   endfacet
   facet normal 0.000000e+000 -1.000000e+000 0.000000e+000
      outer loop
         vertex 2.225202e+001 0.000000e+000 -2.198202e+001
         vertex 2.188466e+001 0.000000e+000 -2.233411e+001
         vertex 3.032427e+001 0.000000e+000 -3.736891e+001
      endloop
   endfacet
   facet normal 0.000000e+000 -1.000000e+000 0.000000e+000
      outer loop
         vertex 3.032427e+001 0.000000e+000 -3.736891e+001
         vertex 2.188466e+001 0.000000e+000 -2.233411e+001
         vertex 2.146309e+001 0.000000e+000 -2.261904e+001
      endloop
   endfacet
   facet normal 0.000000e+000 -1.000000e+000 0.000000e+000
      outer loop
         vertex 3.032427e+001 0.000000e+000 -3.736891e+001
         vertex 2.146309e+001 0.000000e+000 -2.261904e+001
         vertex 2.665514e+001 0.000000e+000 -4.179406e+001
      endloop
   endfacet
   facet normal 0.000000e+000 -1.000000e+000 0.000000e+000
      outer loop
         vertex 2.665514e+001 0.000000e+000 -4.179406e+001
         vertex 2.146309e+001 0.000000e+000 -2.261904e+001
         vertex 2.099942e+001 0.000000e+000 -2.282863e+001
      endloop
   endfacet
   facet normal 0.000000e+000 -1.000000e+000 0.000000e+000
      outer loop
         vertex 2.665514e+001 0.000000e+000 -4.179406e+001
         vertex 2.099942e+001 0.000000e+000 -2.282863e+001
         vertex 2.347719e+001 0.000000e+000 -4.658416e+001
      endloop
   endfacet
   facet normal 0.000000e+000 -1.000000e+000 0.000000e+000
      outer loop
         vertex 2.347719e+001 0.000000e+000 -4.658416e+001
         vertex 2.099942e+001 0.000000e+000 -2.282863e+001
         vertex 2.050700e+001 0.000000e+000 -2.295685e+001
      endloop
   endfacet
   facet normal 0.000000e+000 -1.000000e+000 0.000000e+000
      outer loop
         vertex 2.347719e+001 0.000000e+000 -4.658416e+001
         vertex 2.050700e+001 0.000000e+000 -2.295685e+001
         vertex 2.082645e+001 0.000000e+000 -5.168495e+001
      endloop
   endfacet
   facet normal 0.000000e+000 -1.000000e+000 0.000000e+000
      outer loop
         vertex 2.082645e+001 0.000000e+000 -5.168495e+001
         vertex 2.050700e+001 0.000000e+000 -2.295685e+001
         vertex 2.000000e+001 0.000000e+000 -2.300000e+001
      endloop
   endfacet
   facet normal 0.000000e+000 -1.000000e+000 0.000000e+000
      outer loop
         vertex 2.082645e+001 0.000000e+000 -5.168495e+001
         vertex 2.000000e+001 0.000000e+000 -2.300000e+001
         vertex 1.873294e+001 0.000000e+000 -5.703861e+001
      endloop
   endfacet
   facet normal 0.000000e+000 -1.000000e+000 0.000000e+000
      outer loop
         vertex 1.774798e+001 0.000000e+000 -2.198202e+001
         vertex 1.744541e+001 0.000000e+000 -2.157292e+001
         vertex 0.000000e+000 0.000000e+000 -1.480000e+002
      endloop
   endfacet
   facet normal 0.000000e+000 -1.000000e+000 0.000000e+000
      outer loop
         vertex 0.000000e+000 0.000000e+000 -1.480000e+002
         vertex 1.744541e+001 0.000000e+000 -2.157292e+001
         vertex 1.721633e+001 0.000000e+000 -2.111857e+001
      endloop
   endfacet
   facet normal 0.000000e+000 -1.000000e+000 0.000000e+000
      outer loop
         vertex 0.000000e+000 0.000000e+000 -1.480000e+002
         vertex 1.721633e+001 0.000000e+000 -2.111857e+001
         vertex 0.000000e+000 0.000000e+000 0.000000e+000
      endloop
   endfacet
   facet normal 0.000000e+000 -1.000000e+000 0.000000e+000
      outer loop
         vertex 0.000000e+000 0.000000e+000 0.000000e+000
         vertex 1.721633e+001 0.000000e+000 -2.111857e+001
         vertex 1.706733e+001 0.000000e+000 -2.063204e+001
      endloop
   endfacet
   facet normal 0.000000e+000 -1.000000e+000 0.000000e+000
      outer loop
         vertex 0.000000e+000 0.000000e+000 0.000000e+000
         vertex 1.706733e+001 0.000000e+000 -2.063204e+001
         vertex 1.700270e+001 0.000000e+000 -2.012733e+001
      endloop
   endfacet
   facet normal 0.000000e+000 -1.000000e+000 0.000000e+000
      outer loop
         vertex 2.278367e+001 0.000000e+000 -2.111857e+001
         vertex 3.896470e+001 0.000000e+000 -2.980939e+001
         vertex 2.293266e+001 0.000000e+000 -2.063204e+001
      endloop
   endfacet
   facet normal 0.000000e+000 -1.000000e+000 0.000000e+000
      outer loop
         vertex 2.293266e+001 0.000000e+000 -2.063204e+001
         vertex 3.896470e+001 0.000000e+000 -2.980939e+001
         vertex 4.383808e+001 0.000000e+000 -2.676067e+001
      endloop
   endfacet
   facet normal 0.000000e+000 -1.000000e+000 0.000000e+000
      outer loop
         vertex 2.293266e+001 0.000000e+000 -2.063204e+001
         vertex 4.383808e+001 0.000000e+000 -2.676067e+001
         vertex 2.299730e+001 0.000000e+000 -2.012733e+001
      endloop
   endfacet
   facet normal 0.000000e+000 -1.000000e+000 0.000000e+000
      outer loop
         vertex 2.299730e+001 0.000000e+000 -2.012733e+001
         vertex 4.383808e+001 0.000000e+000 -2.676067e+001
         vertex 4.900793e+001 0.000000e+000 -2.424728e+001
      endloop
   endfacet
   facet normal 0.000000e+000 -1.000000e+000 0.000000e+000
      outer loop
         vertex 2.299730e+001 0.000000e+000 -2.012733e+001
         vertex 4.900793e+001 0.000000e+000 -2.424728e+001
         vertex 5.441566e+001 0.000000e+000 -2.229769e+001
      endloop
   endfacet
   facet normal 0.000000e+000 -1.000000e+000 0.000000e+000
      outer loop
         vertex 6.000000e+001 0.000000e+000 -1.480000e+002
         vertex 5.441566e+001 0.000000e+000 -1.257023e+002
         vertex 0.000000e+000 0.000000e+000 -1.480000e+002
      endloop
   endfacet
   facet normal 0.000000e+000 -1.000000e+000 0.000000e+000
      outer loop
         vertex 0.000000e+000 0.000000e+000 -1.480000e+002
         vertex 5.441566e+001 0.000000e+000 -1.257023e+002
         vertex 4.900793e+001 0.000000e+000 -1.237527e+002
      endloop
   endfacet
   facet normal 0.000000e+000 -1.000000e+000 0.000000e+000
      outer loop
         vertex 0.000000e+000 0.000000e+000 -1.480000e+002
         vertex 4.900793e+001 0.000000e+000 -1.237527e+002
         vertex 4.383808e+001 0.000000e+000 -1.212393e+002
      endloop
   endfacet
   facet normal 0.000000e+000 -1.000000e+000 0.000000e+000
      outer loop
         vertex 4.383808e+001 0.000000e+000 -1.212393e+002
         vertex 3.896470e+001 0.000000e+000 -1.181906e+002
         vertex 0.000000e+000 0.000000e+000 -1.480000e+002
      endloop
   endfacet
   facet normal 0.000000e+000 -1.000000e+000 0.000000e+000
      outer loop
         vertex 0.000000e+000 0.000000e+000 -1.480000e+002
         vertex 3.896470e+001 0.000000e+000 -1.181906e+002
         vertex 3.444302e+001 0.000000e+000 -1.146411e+002
      endloop
   endfacet
   facet normal 0.000000e+000 -1.000000e+000 0.000000e+000
      outer loop
         vertex 0.000000e+000 0.000000e+000 -1.480000e+002
         vertex 3.444302e+001 0.000000e+000 -1.146411e+002
         vertex 3.032427e+001 0.000000e+000 -1.106311e+002
      endloop
   endfacet
   facet normal 0.000000e+000 -1.000000e+000 0.000000e+000
      outer loop
         vertex 0.000000e+000 0.000000e+000 -1.480000e+002
         vertex 1.873294e+001 0.000000e+000 -9.096139e+001
         vertex 1.722040e+001 0.000000e+000 -8.541552e+001
      endloop
   endfacet
   facet normal 0.000000e+000 -1.000000e+000 0.000000e+000
      outer loop
         vertex 1.722040e+001 0.000000e+000 -8.541552e+001
         vertex 1.630597e+001 0.000000e+000 -7.974029e+001
         vertex 0.000000e+000 0.000000e+000 -1.480000e+002
      endloop
   endfacet
   facet normal 0.000000e+000 -1.000000e+000 0.000000e+000
      outer loop
         vertex 0.000000e+000 0.000000e+000 -1.480000e+002
         vertex 1.630597e+001 0.000000e+000 -7.974029e+001
         vertex 1.600000e+001 0.000000e+000 -7.400000e+001
      endloop
   endfacet
   facet normal 0.000000e+000 -1.000000e+000 0.000000e+000
      outer loop
         vertex 0.000000e+000 0.000000e+000 -1.480000e+002
         vertex 1.600000e+001 0.000000e+000 -7.400000e+001
         vertex 1.630597e+001 0.000000e+000 -6.825972e+001
      endloop
   endfacet
   facet normal 0.000000e+000 -1.000000e+000 0.000000e+000
      outer loop
         vertex 2.665514e+001 0.000000e+000 -1.062059e+002
         vertex 2.347719e+001 0.000000e+000 -1.014158e+002
         vertex 0.000000e+000 0.000000e+000 -1.480000e+002
      endloop
   endfacet
   facet normal 0.000000e+000 -1.000000e+000 0.000000e+000
      outer loop
         vertex 0.000000e+000 0.000000e+000 -1.480000e+002
         vertex 2.347719e+001 0.000000e+000 -1.014158e+002
         vertex 2.082645e+001 0.000000e+000 -9.631505e+001
      endloop
   endfacet
   facet normal 0.000000e+000 -1.000000e+000 0.000000e+000
      outer loop
         vertex 0.000000e+000 0.000000e+000 -1.480000e+002
         vertex 2.082645e+001 0.000000e+000 -9.631505e+001
         vertex 1.873294e+001 0.000000e+000 -9.096139e+001
      endloop
   endfacet
   facet normal 0.000000e+000 -1.000000e+000 0.000000e+000
      outer loop
         vertex 1.900058e+001 0.000000e+000 -2.282863e+001
         vertex 0.000000e+000 0.000000e+000 -1.480000e+002
         vertex 1.949300e+001 0.000000e+000 -2.295685e+001
      endloop
   endfacet
   facet normal 0.000000e+000 -1.000000e+000 0.000000e+000
      outer loop
         vertex 1.949300e+001 0.000000e+000 -2.295685e+001
         vertex 0.000000e+000 0.000000e+000 -1.480000e+002
         vertex 1.630597e+001 0.000000e+000 -6.825972e+001
      endloop
   endfacet
   facet normal 0.000000e+000 -1.000000e+000 0.000000e+000
      outer loop
         vertex 1.949300e+001 0.000000e+000 -2.295685e+001
         vertex 1.630597e+001 0.000000e+000 -6.825972e+001
         vertex 2.000000e+001 0.000000e+000 -2.300000e+001
      endloop
   endfacet
   facet normal 0.000000e+000 -1.000000e+000 0.000000e+000
      outer loop
         vertex 2.000000e+001 0.000000e+000 -2.300000e+001
         vertex 1.630597e+001 0.000000e+000 -6.825972e+001
         vertex 1.722040e+001 0.000000e+000 -6.258448e+001
      endloop
   endfacet
   facet normal 0.000000e+000 -1.000000e+000 0.000000e+000
      outer loop
         vertex 2.000000e+001 0.000000e+000 -2.300000e+001
         vertex 1.722040e+001 0.000000e+000 -6.258448e+001
         vertex 1.873294e+001 0.000000e+000 -5.703861e+001
      endloop
   endfacet
   facet normal 1.749495e-017 0.000000e+000 1.000000e+000
      outer loop
         vertex 6.000000e+001 5.000000e+001 -1.049697e-015
         vertex 0.000000e+000 5.000000e+001 1.925930e-031
         vertex 6.000000e+001 0.000000e+000 -1.049697e-015
      endloop
   endfacet
   facet normal 1.749495e-017 0.000000e+000 1.000000e+000
      outer loop
         vertex 6.000000e+001 0.000000e+000 -1.049697e-015
         vertex 0.000000e+000 5.000000e+001 1.925930e-031
         vertex 0.000000e+000 0.000000e+000 1.925930e-031
      endloop
   endfacet
   facet normal 2.199335e-001 0.000000e+000 -9.755148e-001
      outer loop
         vertex 6.000000e+001 5.000000e+001 -2.093400e+001
         vertex 6.000000e+001 0.000000e+000 -2.093400e+001
         vertex 5.441566e+001 0.000000e+000 -2.229769e+001
      endloop
   endfacet
   facet normal 2.544482e-001 0.000000e+000 -9.670864e-001
      outer loop
         vertex 6.000000e+001 5.000000e+001 -2.093400e+001
         vertex 5.441566e+001 0.000000e+000 -2.229769e+001
         vertex 5.441566e+001 5.000000e+001 -2.229769e+001
      endloop
   endfacet
   facet normal 3.223861e-001 0.000000e+000 -9.466082e-001
      outer loop
         vertex 5.441566e+001 5.000000e+001 -2.229769e+001
         vertex 5.441566e+001 0.000000e+000 -2.229769e+001
         vertex 4.900793e+001 0.000000e+000 -2.424728e+001
      endloop
   endfacet
   facet normal 3.558092e-001 0.000000e+000 -9.345586e-001
      outer loop
         vertex 5.441566e+001 5.000000e+001 -2.229769e+001
         vertex 4.900793e+001 0.000000e+000 -2.424728e+001
         vertex 4.900793e+001 5.000000e+001 -2.424728e+001
      endloop
   endfacet
   facet normal 4.211853e-001 0.000000e+000 -9.069746e-001
      outer loop
         vertex 4.900793e+001 5.000000e+001 -2.424728e+001
         vertex 4.900793e+001 0.000000e+000 -2.424728e+001
         vertex 4.383808e+001 0.000000e+000 -2.676067e+001
      endloop
   endfacet
   facet normal 4.531383e-001 0.000000e+000 -8.914403e-001
      outer loop
         vertex 4.900793e+001 5.000000e+001 -2.424728e+001
         vertex 4.383808e+001 0.000000e+000 -2.676067e+001
         vertex 4.383808e+001 5.000000e+001 -2.676067e+001
      endloop
   endfacet
   facet normal 5.152117e-001 0.000000e+000 -8.570629e-001
      outer loop
         vertex 4.383808e+001 5.000000e+001 -2.676067e+001
         vertex 4.383808e+001 0.000000e+000 -2.676067e+001
         vertex 3.896470e+001 0.000000e+000 -2.980939e+001
      endloop
   endfacet
   facet normal 5.453322e-001 0.000000e+000 -8.382200e-001
      outer loop
         vertex 4.383808e+001 5.000000e+001 -2.676067e+001
         vertex 3.896470e+001 0.000000e+000 -2.980939e+001
         vertex 3.896470e+001 5.000000e+001 -2.980939e+001
      endloop
   endfacet
   facet normal 6.033995e-001 0.000000e+000 -7.974390e-001
      outer loop
         vertex 3.896470e+001 5.000000e+001 -2.980939e+001
         vertex 3.896470e+001 0.000000e+000 -2.980939e+001
         vertex 3.444302e+001 0.000000e+000 -3.335887e+001
      endloop
   endfacet
   facet normal 6.313463e-001 0.000000e+000 -7.755010e-001
      outer loop
         vertex 3.896470e+001 5.000000e+001 -2.980939e+001
         vertex 3.444302e+001 0.000000e+000 -3.335887e+001
         vertex 3.444302e+001 5.000000e+001 -3.335887e+001
      endloop
   endfacet
   facet normal 6.847497e-001 0.000000e+000 -7.287784e-001
      outer loop
         vertex 3.444302e+001 5.000000e+001 -3.335887e+001
         vertex 3.444302e+001 0.000000e+000 -3.335887e+001
         vertex 3.032427e+001 0.000000e+000 -3.736891e+001
      endloop
   endfacet
   facet normal 7.102061e-001 0.000000e+000 -7.039938e-001
      outer loop
         vertex 3.444302e+001 5.000000e+001 -3.335887e+001
         vertex 3.032427e+001 0.000000e+000 -3.736891e+001
         vertex 3.032427e+001 5.000000e+001 -3.736891e+001
      endloop
   endfacet
   facet normal 7.583401e-001 0.000000e+000 -6.518592e-001
      outer loop
         vertex 3.032427e+001 5.000000e+001 -3.736891e+001
         vertex 3.032427e+001 0.000000e+000 -3.736891e+001
         vertex 2.665514e+001 0.000000e+000 -4.179406e+001
      endloop
   endfacet
   facet normal 7.810176e-001 0.000000e+000 -6.245089e-001
      outer loop
         vertex 3.032427e+001 5.000000e+001 -3.736891e+001
         vertex 2.665514e+001 0.000000e+000 -4.179406e+001
         vertex 2.665514e+001 5.000000e+001 -4.179406e+001
      endloop
   endfacet
   facet normal 8.233370e-001 0.000000e+000 -5.675529e-001
      outer loop
         vertex 2.665514e+001 5.000000e+001 -4.179406e+001
         vertex 2.665514e+001 0.000000e+000 -4.179406e+001
         vertex 2.347719e+001 0.000000e+000 -4.658416e+001
      endloop
   endfacet
   facet normal 8.429786e-001 0.000000e+000 -5.379471e-001
      outer loop
         vertex 2.665514e+001 5.000000e+001 -4.179406e+001
         vertex 2.347719e+001 0.000000e+000 -4.658416e+001
         vertex 2.347719e+001 5.000000e+001 -4.658416e+001
      endloop
   endfacet
   facet normal 8.790036e-001 0.000000e+000 -4.768152e-001
      outer loop
         vertex 2.347719e+001 5.000000e+001 -4.658416e+001
         vertex 2.347719e+001 0.000000e+000 -4.658416e+001
         vertex 2.082645e+001 0.000000e+000 -5.168495e+001
      endloop
   endfacet
   facet normal 8.953869e-001 0.000000e+000 -4.452890e-001
      outer loop
         vertex 2.347719e+001 5.000000e+001 -4.658416e+001
         vertex 2.082645e+001 0.000000e+000 -5.168495e+001
         vertex 2.082645e+001 5.000000e+001 -5.168495e+001
      endloop
   endfacet
   facet normal 9.247093e-001 0.000000e+000 -3.806740e-001
      outer loop
         vertex 2.082645e+001 5.000000e+001 -5.168495e+001
         vertex 2.082645e+001 0.000000e+000 -5.168495e+001
         vertex 1.873294e+001 0.000000e+000 -5.703861e+001
      endloop
   endfacet
   facet normal 9.376485e-001 0.000000e+000 -3.475851e-001
      outer loop
         vertex 2.082645e+001 5.000000e+001 -5.168495e+001
         vertex 1.873294e+001 0.000000e+000 -5.703861e+001
         vertex 1.873294e+001 5.000000e+001 -5.703861e+001
      endloop
   endfacet
   facet normal 9.599361e-001 0.000000e+000 -2.802191e-001
      outer loop
         vertex 1.873294e+001 5.000000e+001 -5.703861e+001
         vertex 1.873294e+001 0.000000e+000 -5.703861e+001
         vertex 1.722040e+001 0.000000e+000 -6.258448e+001
      endloop
   endfacet
   facet normal 9.692845e-001 0.000000e+000 -2.459421e-001
      outer loop
         vertex 1.873294e+001 5.000000e+001 -5.703861e+001
         vertex 1.722040e+001 0.000000e+000 -6.258448e+001
         vertex 1.722040e+001 5.000000e+001 -6.258448e+001
      endloop
   endfacet
   facet normal 9.842848e-001 0.000000e+000 -1.765887e-001
      outer loop
         vertex 1.722040e+001 5.000000e+001 -6.258448e+001
         vertex 1.722040e+001 0.000000e+000 -6.258448e+001
         vertex 1.630597e+001 0.000000e+000 -6.825972e+001
      endloop
   endfacet
   facet normal 9.899365e-001 0.000000e+000 -1.415122e-001
      outer loop
         vertex 1.722040e+001 5.000000e+001 -6.258448e+001
         vertex 1.630597e+001 0.000000e+000 -6.825972e+001
         vertex 1.630597e+001 5.000000e+001 -6.825972e+001
      endloop
   endfacet
   facet normal 9.974794e-001 0.000000e+000 -7.095709e-002
      outer loop
         vertex 1.630597e+001 5.000000e+001 -6.825972e+001
         vertex 1.630597e+001 0.000000e+000 -6.825972e+001
         vertex 1.600000e+001 0.000000e+000 -7.400000e+001
      endloop
   endfacet
   facet normal 9.993705e-001 0.000000e+000 -3.547855e-002
      outer loop
         vertex 1.630597e+001 5.000000e+001 -6.825972e+001
         vertex 1.600000e+001 0.000000e+000 -7.400000e+001
         vertex 1.600000e+001 5.000000e+001 -7.400000e+001
      endloop
   endfacet
   facet normal 9.993705e-001 0.000000e+000 3.547855e-002
      outer loop
         vertex 1.600000e+001 5.000000e+001 -7.400000e+001
         vertex 1.600000e+001 0.000000e+000 -7.400000e+001
         vertex 1.630597e+001 0.000000e+000 -7.974029e+001
      endloop
   endfacet
   facet normal 9.974794e-001 0.000000e+000 7.095709e-002
      outer loop
         vertex 1.600000e+001 5.000000e+001 -7.400000e+001
         vertex 1.630597e+001 0.000000e+000 -7.974029e+001
         vertex 1.630597e+001 5.000000e+001 -7.974029e+001
      endloop
   endfacet
   facet normal 9.899365e-001 0.000000e+000 1.415122e-001
      outer loop
         vertex 1.630597e+001 5.000000e+001 -7.974029e+001
         vertex 1.630597e+001 0.000000e+000 -7.974029e+001
         vertex 1.722040e+001 0.000000e+000 -8.541552e+001
      endloop
   endfacet
   facet normal 9.842848e-001 0.000000e+000 1.765887e-001
      outer loop
         vertex 1.630597e+001 5.000000e+001 -7.974029e+001
         vertex 1.722040e+001 0.000000e+000 -8.541552e+001
         vertex 1.722040e+001 5.000000e+001 -8.541552e+001
      endloop
   endfacet
   facet normal 9.692845e-001 0.000000e+000 2.459421e-001
      outer loop
         vertex 1.722040e+001 5.000000e+001 -8.541552e+001
         vertex 1.722040e+001 0.000000e+000 -8.541552e+001
         vertex 1.873294e+001 0.000000e+000 -9.096139e+001
      endloop
   endfacet
   facet normal 9.599361e-001 0.000000e+000 2.802191e-001
      outer loop
         vertex 1.722040e+001 5.000000e+001 -8.541552e+001
         vertex 1.873294e+001 0.000000e+000 -9.096139e+001
         vertex 1.873294e+001 5.000000e+001 -9.096139e+001
      endloop
   endfacet
   facet normal 9.376485e-001 0.000000e+000 3.475850e-001
      outer loop
         vertex 1.873294e+001 5.000000e+001 -9.096139e+001
         vertex 1.873294e+001 0.000000e+000 -9.096139e+001
         vertex 2.082645e+001 0.000000e+000 -9.631505e+001
      endloop
   endfacet
   facet normal 9.247093e-001 0.000000e+000 3.806740e-001
      outer loop
         vertex 1.873294e+001 5.000000e+001 -9.096139e+001
         vertex 2.082645e+001 0.000000e+000 -9.631505e+001
         vertex 2.082645e+001 5.000000e+001 -9.631505e+001
      endloop
   endfacet
   facet normal 8.953869e-001 0.000000e+000 4.452890e-001
      outer loop
         vertex 2.082645e+001 5.000000e+001 -9.631505e+001
         vertex 2.082645e+001 0.000000e+000 -9.631505e+001
         vertex 2.347719e+001 0.000000e+000 -1.014158e+002
      endloop
   endfacet
   facet normal 8.790036e-001 0.000000e+000 4.768152e-001
      outer loop
         vertex 2.082645e+001 5.000000e+001 -9.631505e+001
         vertex 2.347719e+001 0.000000e+000 -1.014158e+002
         vertex 2.347719e+001 5.000000e+001 -1.014158e+002
      endloop
   endfacet
   facet normal 8.429786e-001 0.000000e+000 5.379471e-001
      outer loop
         vertex 2.347719e+001 5.000000e+001 -1.014158e+002
         vertex 2.347719e+001 0.000000e+000 -1.014158e+002
         vertex 2.665514e+001 0.000000e+000 -1.062059e+002
      endloop
   endfacet
   facet normal 8.233370e-001 0.000000e+000 5.675529e-001
      outer loop
         vertex 2.347719e+001 5.000000e+001 -1.014158e+002
         vertex 2.665514e+001 0.000000e+000 -1.062059e+002
         vertex 2.665514e+001 5.000000e+001 -1.062059e+002
      endloop
   endfacet
   facet normal 7.810176e-001 0.000000e+000 6.245089e-001
      outer loop
         vertex 2.665514e+001 5.000000e+001 -1.062059e+002
         vertex 2.665514e+001 0.000000e+000 -1.062059e+002
         vertex 3.032427e+001 0.000000e+000 -1.106311e+002
      endloop
   endfacet
   facet normal 7.583401e-001 0.000000e+000 6.518591e-001
      outer loop
         vertex 2.665514e+001 5.000000e+001 -1.062059e+002
         vertex 3.032427e+001 0.000000e+000 -1.106311e+002
         vertex 3.032427e+001 5.000000e+001 -1.106311e+002
      endloop
   endfacet
   facet normal 7.102061e-001 0.000000e+000 7.039938e-001
      outer loop
         vertex 3.032427e+001 5.000000e+001 -1.106311e+002
         vertex 3.032427e+001 0.000000e+000 -1.106311e+002
         vertex 3.444302e+001 0.000000e+000 -1.146411e+002
      endloop
   endfacet
   facet normal 6.847497e-001 0.000000e+000 7.287784e-001
      outer loop
         vertex 3.032427e+001 5.000000e+001 -1.106311e+002
         vertex 3.444302e+001 0.000000e+000 -1.146411e+002
         vertex 3.444302e+001 5.000000e+001 -1.146411e+002
      endloop
   endfacet
   facet normal 6.313463e-001 0.000000e+000 7.755010e-001
      outer loop
         vertex 3.444302e+001 5.000000e+001 -1.146411e+002
         vertex 3.444302e+001 0.000000e+000 -1.146411e+002
         vertex 3.896470e+001 0.000000e+000 -1.181906e+002
      endloop
   endfacet
   facet normal 6.033996e-001 0.000000e+000 7.974389e-001
      outer loop
         vertex 3.444302e+001 5.000000e+001 -1.146411e+002
         vertex 3.896470e+001 0.000000e+000 -1.181906e+002
         vertex 3.896470e+001 5.000000e+001 -1.181906e+002
      endloop
   endfacet
   facet normal 5.453322e-001 0.000000e+000 8.382200e-001
      outer loop
         vertex 3.896470e+001 5.000000e+001 -1.181906e+002
         vertex 3.896470e+001 0.000000e+000 -1.181906e+002
         vertex 4.383808e+001 0.000000e+000 -1.212393e+002
      endloop
   endfacet
   facet normal 5.152117e-001 0.000000e+000 8.570629e-001
      outer loop
         vertex 3.896470e+001 5.000000e+001 -1.181906e+002
         vertex 4.383808e+001 0.000000e+000 -1.212393e+002
         vertex 4.383808e+001 5.000000e+001 -1.212393e+002
      endloop
   endfacet
   facet normal 4.531383e-001 0.000000e+000 8.914403e-001
      outer loop
         vertex 4.383808e+001 5.000000e+001 -1.212393e+002
         vertex 4.383808e+001 0.000000e+000 -1.212393e+002
         vertex 4.900793e+001 0.000000e+000 -1.237527e+002
      endloop
   endfacet
   facet normal 4.211853e-001 0.000000e+000 9.069746e-001
      outer loop
         vertex 4.383808e+001 5.000000e+001 -1.212393e+002
         vertex 4.900793e+001 0.000000e+000 -1.237527e+002
         vertex 4.900793e+001 5.000000e+001 -1.237527e+002
      endloop
   endfacet
   facet normal 3.558092e-001 0.000000e+000 9.345586e-001
      outer loop
         vertex 4.900793e+001 5.000000e+001 -1.237527e+002
         vertex 4.900793e+001 0.000000e+000 -1.237527e+002
         vertex 5.441566e+001 0.000000e+000 -1.257023e+002
      endloop
   endfacet
   facet normal 3.223861e-001 0.000000e+000 9.466082e-001
      outer loop
         vertex 4.900793e+001 5.000000e+001 -1.237527e+002
         vertex 5.441566e+001 0.000000e+000 -1.257023e+002
         vertex 5.441566e+001 5.000000e+001 -1.257023e+002
      endloop
   endfacet
   facet normal 2.544482e-001 0.000000e+000 9.670864e-001
      outer loop
         vertex 5.441566e+001 5.000000e+001 -1.257023e+002
         vertex 5.441566e+001 0.000000e+000 -1.257023e+002
         vertex 6.000000e+001 0.000000e+000 -1.270660e+002
      endloop
   endfacet
   facet normal 2.199335e-001 0.000000e+000 9.755148e-001
      outer loop
         vertex 5.441566e+001 5.000000e+001 -1.257023e+002
         vertex 6.000000e+001 0.000000e+000 -1.270660e+002
         vertex 6.000000e+001 5.000000e+001 -1.270660e+002
      endloop
   endfacet
   facet normal 0.000000e+000 0.000000e+000 -1.000000e+000
      outer loop
         vertex 6.000000e+001 0.000000e+000 -1.480000e+002
         vertex 0.000000e+000 0.000000e+000 -1.480000e+002
         vertex 6.000000e+001 5.000000e+001 -1.480000e+002
      endloop
   endfacet
   facet normal 0.000000e+000 0.000000e+000 -1.000000e+000
      outer loop
         vertex 6.000000e+001 5.000000e+001 -1.480000e+002
         vertex 0.000000e+000 0.000000e+000 -1.480000e+002
         vertex 0.000000e+000 5.000000e+001 -1.480000e+002
      endloop
   endfacet
   facet normal -1.000000e+000 0.000000e+000 0.000000e+000
      outer loop
         vertex 0.000000e+000 5.000000e+001 0.000000e+000
         vertex 0.000000e+000 5.000000e+001 -1.480000e+002
         vertex 0.000000e+000 0.000000e+000 0.000000e+000
      endloop
   endfacet
   facet normal -1.000000e+000 0.000000e+000 0.000000e+000
      outer loop
         vertex 0.000000e+000 0.000000e+000 0.000000e+000
         vertex 0.000000e+000 5.000000e+001 -1.480000e+002
         vertex 0.000000e+000 0.000000e+000 -1.480000e+002
      endloop
   endfacet
   facet normal 2.829130e-002 0.000000e+000 -9.995998e-001
      outer loop
         vertex 1.974558e+001 5.000000e+001 -1.701081e+001
         vertex 2.000000e+001 5.000000e+001 -1.700000e+001
         vertex 2.000000e+001 0.000000e+000 -1.700000e+001
      endloop
   endfacet
   facet normal -2.829130e-002 0.000000e+000 -9.995998e-001
      outer loop
         vertex 2.000000e+001 0.000000e+000 -1.700000e+001
         vertex 2.000000e+001 5.000000e+001 -1.700000e+001
         vertex 2.025442e+001 0.000000e+000 -1.701081e+001
      endloop
   endfacet
   facet normal 5.658260e-002 0.000000e+000 -9.983979e-001
      outer loop
         vertex 2.000000e+001 0.000000e+000 -1.700000e+001
         vertex 1.974558e+001 0.000000e+000 -1.701081e+001
         vertex 1.974558e+001 5.000000e+001 -1.701081e+001
      endloop
   endfacet
   facet normal 1.409813e-001 0.000000e+000 -9.900123e-001
      outer loop
         vertex 1.974558e+001 5.000000e+001 -1.701081e+001
         vertex 1.974558e+001 0.000000e+000 -1.701081e+001
         vertex 1.924407e+001 0.000000e+000 -1.709680e+001
      endloop
   endfacet
   facet normal 1.968844e-001 0.000000e+000 -9.804267e-001
      outer loop
         vertex 1.974558e+001 5.000000e+001 -1.701081e+001
         vertex 1.924407e+001 0.000000e+000 -1.709680e+001
         vertex 1.924407e+001 5.000000e+001 -1.709680e+001
      endloop
   endfacet
   facet normal 3.062663e-001 0.000000e+000 -9.519458e-001
      outer loop
         vertex 1.924407e+001 5.000000e+001 -1.709680e+001
         vertex 1.924407e+001 0.000000e+000 -1.709680e+001
         vertex 1.876430e+001 0.000000e+000 -1.726631e+001
      endloop
   endfacet
   facet normal 3.597453e-001 0.000000e+000 -9.330506e-001
      outer loop
         vertex 1.924407e+001 5.000000e+001 -1.709680e+001
         vertex 1.876430e+001 0.000000e+000 -1.726631e+001
         vertex 1.876430e+001 5.000000e+001 -1.726631e+001
      endloop
   endfacet
   facet normal 4.627406e-001 0.000000e+000 -8.864937e-001
      outer loop
         vertex 1.876430e+001 5.000000e+001 -1.726631e+001
         vertex 1.876430e+001 0.000000e+000 -1.726631e+001
         vertex 1.832008e+001 0.000000e+000 -1.751447e+001
      endloop
   endfacet
   facet normal 5.122570e-001 0.000000e+000 -8.588322e-001
      outer loop
         vertex 1.876430e+001 5.000000e+001 -1.726631e+001
         vertex 1.832008e+001 0.000000e+000 -1.751447e+001
         vertex 1.832008e+001 5.000000e+001 -1.751447e+001
      endloop
   endfacet
   facet normal 6.059027e-001 0.000000e+000 -7.955388e-001
      outer loop
         vertex 1.832008e+001 5.000000e+001 -1.751447e+001
         vertex 1.832008e+001 0.000000e+000 -1.751447e+001
         vertex 1.792418e+001 0.000000e+000 -1.783413e+001
      endloop
   endfacet
   facet normal 6.500320e-001 0.000000e+000 -7.599069e-001
      outer loop
         vertex 1.832008e+001 5.000000e+001 -1.751447e+001
         vertex 1.792418e+001 0.000000e+000 -1.783413e+001
         vertex 1.792418e+001 5.000000e+001 -1.783413e+001
      endloop
   endfacet
   facet normal 7.316340e-001 0.000000e+000 -6.816977e-001
      outer loop
         vertex 1.792418e+001 5.000000e+001 -1.783413e+001
         vertex 1.792418e+001 0.000000e+000 -1.783413e+001
         vertex 1.758801e+001 0.000000e+000 -1.821610e+001
      endloop
   endfacet
   facet normal 7.691067e-001 0.000000e+000 -6.391203e-001
      outer loop
         vertex 1.792418e+001 5.000000e+001 -1.783413e+001
         vertex 1.758801e+001 0.000000e+000 -1.821610e+001
         vertex 1.758801e+001 5.000000e+001 -1.821610e+001
      endloop
   endfacet
   facet normal 8.363176e-001 0.000000e+000 -5.482453e-001
      outer loop
         vertex 1.758801e+001 5.000000e+001 -1.821610e+001
         vertex 1.758801e+001 0.000000e+000 -1.821610e+001
         vertex 1.732122e+001 0.000000e+000 -1.864939e+001
      endloop
   endfacet
   facet normal 8.660557e-001 0.000000e+000 -4.999475e-001
      outer loop
         vertex 1.758801e+001 5.000000e+001 -1.821610e+001
         vertex 1.732122e+001 0.000000e+000 -1.864939e+001
         vertex 1.732122e+001 5.000000e+001 -1.864939e+001
      endloop
   endfacet
   facet normal 9.169418e-001 0.000000e+000 -3.990209e-001
      outer loop
         vertex 1.732122e+001 5.000000e+001 -1.864939e+001
         vertex 1.732122e+001 0.000000e+000 -1.864939e+001
         vertex 1.713150e+001 0.000000e+000 -1.912153e+001
      endloop
   endfacet
   facet normal 9.380898e-001 0.000000e+000 -3.463921e-001
      outer loop
         vertex 1.732122e+001 5.000000e+001 -1.864939e+001
         vertex 1.713150e+001 0.000000e+000 -1.912153e+001
         vertex 1.713150e+001 5.000000e+001 -1.912153e+001
      endloop
   endfacet
   facet normal 9.711873e-001 0.000000e+000 -2.383175e-001
      outer loop
         vertex 1.713150e+001 5.000000e+001 -1.912153e+001
         vertex 1.713150e+001 0.000000e+000 -1.912153e+001
         vertex 1.702430e+001 0.000000e+000 -1.961895e+001
      endloop
   endfacet
   facet normal 9.831368e-001 0.000000e+000 -1.828716e-001
      outer loop
         vertex 1.713150e+001 5.000000e+001 -1.912153e+001
         vertex 1.702430e+001 0.000000e+000 -1.961895e+001
         vertex 1.702430e+001 5.000000e+001 -1.961895e+001
      endloop
   endfacet
   facet normal 9.974935e-001 0.000000e+000 -7.075802e-002
      outer loop
         vertex 1.702430e+001 5.000000e+001 -1.961895e+001
         vertex 1.702430e+001 0.000000e+000 -1.961895e+001
         vertex 1.700270e+001 0.000000e+000 -2.012733e+001
      endloop
   endfacet
   facet normal 9.999007e-001 0.000000e+000 -1.409025e-002
      outer loop
         vertex 1.702430e+001 5.000000e+001 -1.961895e+001
         vertex 1.700270e+001 0.000000e+000 -2.012733e+001
         vertex 1.700270e+001 5.000000e+001 -2.012733e+001
      endloop
   endfacet
   facet normal 9.951036e-001 0.000000e+000 9.883699e-002
      outer loop
         vertex 1.700270e+001 5.000000e+001 -2.012733e+001
         vertex 1.700270e+001 0.000000e+000 -2.012733e+001
         vertex 1.706733e+001 0.000000e+000 -2.063204e+001
      endloop
   endfacet
   facet normal 9.878993e-001 0.000000e+000 1.550965e-001
      outer loop
         vertex 1.700270e+001 5.000000e+001 -2.012733e+001
         vertex 1.706733e+001 0.000000e+000 -2.063204e+001
         vertex 1.706733e+001 5.000000e+001 -2.063204e+001
      endloop
   endfacet
   facet normal 9.640865e-001 0.000000e+000 2.655886e-001
      outer loop
         vertex 1.706733e+001 5.000000e+001 -2.063204e+001
         vertex 1.706733e+001 0.000000e+000 -2.063204e+001
         vertex 1.721633e+001 0.000000e+000 -2.111857e+001
      endloop
   endfacet
   facet normal 9.474779e-001 0.000000e+000 3.198213e-001
      outer loop
         vertex 1.706733e+001 5.000000e+001 -2.063204e+001
         vertex 1.721633e+001 0.000000e+000 -2.111857e+001
         vertex 1.721633e+001 5.000000e+001 -2.111857e+001
      endloop
   endfacet
   facet normal 9.053342e-001 0.000000e+000 4.246998e-001
      outer loop
         vertex 1.721633e+001 5.000000e+001 -2.111857e+001
         vertex 1.721633e+001 0.000000e+000 -2.111857e+001
         vertex 1.744541e+001 0.000000e+000 -2.157292e+001
      endloop
   endfacet
   facet normal 8.797992e-001 0.000000e+000 4.753455e-001
      outer loop
         vertex 1.721633e+001 5.000000e+001 -2.111857e+001
         vertex 1.744541e+001 0.000000e+000 -2.157292e+001
         vertex 1.744541e+001 5.000000e+001 -2.157292e+001
      endloop
   endfacet
   facet normal 8.205372e-001 0.000000e+000 5.715931e-001
      outer loop
         vertex 1.744541e+001 5.000000e+001 -2.157292e+001
         vertex 1.744541e+001 0.000000e+000 -2.157292e+001
         vertex 1.774798e+001 0.000000e+000 -2.198202e+001
      endloop
   endfacet
   facet normal 7.868103e-001 0.000000e+000 6.171949e-001
      outer loop
         vertex 1.744541e+001 5.000000e+001 -2.157292e+001
         vertex 1.774798e+001 0.000000e+000 -2.198202e+001
         vertex 1.774798e+001 5.000000e+001 -2.198202e+001
      endloop
   endfacet
   facet normal 7.121348e-001 0.000000e+000 7.020428e-001
      outer loop
         vertex 1.774798e+001 5.000000e+001 -2.198202e+001
         vertex 1.774798e+001 0.000000e+000 -2.198202e+001
         vertex 1.811534e+001 0.000000e+000 -2.233411e+001
      endloop
   endfacet
   facet normal 6.711863e-001 0.000000e+000 7.412888e-001
      outer loop
         vertex 1.774798e+001 5.000000e+001 -2.198202e+001
         vertex 1.811534e+001 0.000000e+000 -2.233411e+001
         vertex 1.811534e+001 5.000000e+001 -2.233411e+001
      endloop
   endfacet
   facet normal 5.832456e-001 0.000000e+000 8.122959e-001
      outer loop
         vertex 1.811534e+001 5.000000e+001 -2.233411e+001
         vertex 1.811534e+001 0.000000e+000 -2.233411e+001
         vertex 1.853692e+001 0.000000e+000 -2.261904e+001
      endloop
   endfacet
   facet normal 5.362535e-001 0.000000e+000 8.440570e-001
      outer loop
         vertex 1.811534e+001 5.000000e+001 -2.233411e+001
         vertex 1.853692e+001 0.000000e+000 -2.261904e+001
         vertex 1.853692e+001 5.000000e+001 -2.261904e+001
      endloop
   endfacet
   facet normal 4.375775e-001 0.000000e+000 8.991807e-001
      outer loop
         vertex 1.853692e+001 5.000000e+001 -2.261904e+001
         vertex 1.853692e+001 0.000000e+000 -2.261904e+001
         vertex 1.900058e+001 0.000000e+000 -2.282863e+001
      endloop
   endfacet
   facet normal 3.858936e-001 0.000000e+000 9.225433e-001
      outer loop
         vertex 1.853692e+001 5.000000e+001 -2.261904e+001
         vertex 1.900058e+001 0.000000e+000 -2.282863e+001
         vertex 1.900058e+001 5.000000e+001 -2.282863e+001
      endloop
   endfacet
   facet normal 2.793211e-001 0.000000e+000 9.601977e-001
      outer loop
         vertex 1.900058e+001 5.000000e+001 -2.282863e+001
         vertex 1.900058e+001 0.000000e+000 -2.282863e+001
         vertex 1.949300e+001 0.000000e+000 -2.295685e+001
      endloop
   endfacet
   facet normal 2.244324e-001 0.000000e+000 9.744897e-001
      outer loop
         vertex 1.900058e+001 5.000000e+001 -2.282863e+001
         vertex 1.949300e+001 0.000000e+000 -2.295685e+001
         vertex 1.949300e+001 5.000000e+001 -2.295685e+001
      endloop
   endfacet
   facet normal 1.130291e-001 0.000000e+000 9.935917e-001
      outer loop
         vertex 1.949300e+001 5.000000e+001 -2.295685e+001
         vertex 1.949300e+001 0.000000e+000 -2.295685e+001
         vertex 2.000000e+001 0.000000e+000 -2.300000e+001
      endloop
   endfacet
   facet normal 5.651454e-002 0.000000e+000 9.984018e-001
      outer loop
         vertex 1.949300e+001 5.000000e+001 -2.295685e+001
         vertex 2.000000e+001 0.000000e+000 -2.300000e+001
         vertex 2.000000e+001 5.000000e+001 -2.300000e+001
      endloop
   endfacet
   facet normal -5.651454e-002 0.000000e+000 9.984018e-001
      outer loop
         vertex 2.000000e+001 5.000000e+001 -2.300000e+001
         vertex 2.000000e+001 0.000000e+000 -2.300000e+001
         vertex 2.050700e+001 0.000000e+000 -2.295685e+001
      endloop
   endfacet
   facet normal -1.130291e-001 0.000000e+000 9.935917e-001
      outer loop
         vertex 2.000000e+001 5.000000e+001 -2.300000e+001
         vertex 2.050700e+001 0.000000e+000 -2.295685e+001
         vertex 2.050700e+001 5.000000e+001 -2.295685e+001
      endloop
   endfacet
   facet normal -2.244324e-001 0.000000e+000 9.744897e-001
      outer loop
         vertex 2.050700e+001 5.000000e+001 -2.295685e+001
         vertex 2.050700e+001 0.000000e+000 -2.295685e+001
         vertex 2.099942e+001 0.000000e+000 -2.282863e+001
      endloop
   endfacet
   facet normal -2.793211e-001 0.000000e+000 9.601977e-001
      outer loop
         vertex 2.050700e+001 5.000000e+001 -2.295685e+001
         vertex 2.099942e+001 0.000000e+000 -2.282863e+001
         vertex 2.099942e+001 5.000000e+001 -2.282863e+001
      endloop
   endfacet
   facet normal -3.858936e-001 0.000000e+000 9.225433e-001
      outer loop
         vertex 2.099942e+001 5.000000e+001 -2.282863e+001
         vertex 2.099942e+001 0.000000e+000 -2.282863e+001
         vertex 2.146309e+001 0.000000e+000 -2.261904e+001
      endloop
   endfacet
   facet normal -4.375775e-001 0.000000e+000 8.991807e-001
      outer loop
         vertex 2.099942e+001 5.000000e+001 -2.282863e+001
         vertex 2.146309e+001 0.000000e+000 -2.261904e+001
         vertex 2.146309e+001 5.000000e+001 -2.261904e+001
      endloop
   endfacet
   facet normal -5.362535e-001 0.000000e+000 8.440570e-001
      outer loop
         vertex 2.146309e+001 5.000000e+001 -2.261904e+001
         vertex 2.146309e+001 0.000000e+000 -2.261904e+001
         vertex 2.188466e+001 0.000000e+000 -2.233411e+001
      endloop
   endfacet
   facet normal -5.832456e-001 0.000000e+000 8.122959e-001
      outer loop
         vertex 2.146309e+001 5.000000e+001 -2.261904e+001
         vertex 2.188466e+001 0.000000e+000 -2.233411e+001
         vertex 2.188466e+001 5.000000e+001 -2.233411e+001
      endloop
   endfacet
   facet normal -6.711863e-001 0.000000e+000 7.412888e-001
      outer loop
         vertex 2.188466e+001 5.000000e+001 -2.233411e+001
         vertex 2.188466e+001 0.000000e+000 -2.233411e+001
         vertex 2.225202e+001 0.000000e+000 -2.198202e+001
      endloop
   endfacet
   facet normal -7.121348e-001 0.000000e+000 7.020428e-001
      outer loop
         vertex 2.188466e+001 5.000000e+001 -2.233411e+001
         vertex 2.225202e+001 0.000000e+000 -2.198202e+001
         vertex 2.225202e+001 5.000000e+001 -2.198202e+001
      endloop
   endfacet
   facet normal -7.868103e-001 0.000000e+000 6.171949e-001
      outer loop
         vertex 2.225202e+001 5.000000e+001 -2.198202e+001
         vertex 2.225202e+001 0.000000e+000 -2.198202e+001
         vertex 2.255459e+001 0.000000e+000 -2.157292e+001
      endloop
   endfacet
   facet normal -8.205372e-001 0.000000e+000 5.715931e-001
      outer loop
         vertex 2.225202e+001 5.000000e+001 -2.198202e+001
         vertex 2.255459e+001 0.000000e+000 -2.157292e+001
         vertex 2.255459e+001 5.000000e+001 -2.157292e+001
      endloop
   endfacet
   facet normal -8.797992e-001 0.000000e+000 4.753455e-001
      outer loop
         vertex 2.255459e+001 5.000000e+001 -2.157292e+001
         vertex 2.255459e+001 0.000000e+000 -2.157292e+001
         vertex 2.278367e+001 0.000000e+000 -2.111857e+001
      endloop
   endfacet
   facet normal -9.053342e-001 0.000000e+000 4.246998e-001
      outer loop
         vertex 2.255459e+001 5.000000e+001 -2.157292e+001
         vertex 2.278367e+001 0.000000e+000 -2.111857e+001
         vertex 2.278367e+001 5.000000e+001 -2.111857e+001
      endloop
   endfacet
   facet normal -9.474779e-001 0.000000e+000 3.198213e-001
      outer loop
         vertex 2.278367e+001 5.000000e+001 -2.111857e+001
         vertex 2.278367e+001 0.000000e+000 -2.111857e+001
         vertex 2.293266e+001 0.000000e+000 -2.063204e+001
      endloop
   endfacet
   facet normal -9.640865e-001 0.000000e+000 2.655886e-001
      outer loop
         vertex 2.278367e+001 5.000000e+001 -2.111857e+001
         vertex 2.293266e+001 0.000000e+000 -2.063204e+001
         vertex 2.293266e+001 5.000000e+001 -2.063204e+001
      endloop
   endfacet
   facet normal -9.878993e-001 0.000000e+000 1.550965e-001
      outer loop
         vertex 2.293266e+001 5.000000e+001 -2.063204e+001
         vertex 2.293266e+001 0.000000e+000 -2.063204e+001
         vertex 2.299730e+001 0.000000e+000 -2.012733e+001
      endloop
   endfacet
   facet normal -9.951036e-001 0.000000e+000 9.883699e-002
      outer loop
         vertex 2.293266e+001 5.000000e+001 -2.063204e+001
         vertex 2.299730e+001 0.000000e+000 -2.012733e+001
         vertex 2.299730e+001 5.000000e+001 -2.012733e+001
      endloop
   endfacet
   facet normal -9.999007e-001 0.000000e+000 -1.409025e-002
      outer loop
         vertex 2.299730e+001 5.000000e+001 -2.012733e+001
         vertex 2.299730e+001 0.000000e+000 -2.012733e+001
         vertex 2.297570e+001 0.000000e+000 -1.961895e+001
      endloop
   endfacet
   facet normal -9.974935e-001 0.000000e+000 -7.075802e-002
      outer loop
         vertex 2.299730e+001 5.000000e+001 -2.012733e+001
         vertex 2.297570e+001 0.000000e+000 -1.961895e+001
         vertex 2.297570e+001 5.000000e+001 -1.961895e+001
      endloop
   endfacet
   facet normal -9.831368e-001 0.000000e+000 -1.828716e-001
      outer loop
         vertex 2.297570e+001 5.000000e+001 -1.961895e+001
         vertex 2.297570e+001 0.000000e+000 -1.961895e+001
         vertex 2.286850e+001 0.000000e+000 -1.912153e+001
      endloop
   endfacet
   facet normal -9.711873e-001 0.000000e+000 -2.383175e-001
      outer loop
         vertex 2.297570e+001 5.000000e+001 -1.961895e+001
         vertex 2.286850e+001 0.000000e+000 -1.912153e+001
         vertex 2.286850e+001 5.000000e+001 -1.912153e+001
      endloop
   endfacet
   facet normal -9.380898e-001 0.000000e+000 -3.463921e-001
      outer loop
         vertex 2.286850e+001 5.000000e+001 -1.912153e+001
         vertex 2.286850e+001 0.000000e+000 -1.912153e+001
         vertex 2.267878e+001 0.000000e+000 -1.864939e+001
      endloop
   endfacet
   facet normal -9.169418e-001 0.000000e+000 -3.990209e-001
      outer loop
         vertex 2.286850e+001 5.000000e+001 -1.912153e+001
         vertex 2.267878e+001 0.000000e+000 -1.864939e+001
         vertex 2.267878e+001 5.000000e+001 -1.864939e+001
      endloop
   endfacet
   facet normal -8.660557e-001 0.000000e+000 -4.999475e-001
      outer loop
         vertex 2.267878e+001 5.000000e+001 -1.864939e+001
         vertex 2.267878e+001 0.000000e+000 -1.864939e+001
         vertex 2.241199e+001 0.000000e+000 -1.821610e+001
      endloop
   endfacet
   facet normal -8.363176e-001 0.000000e+000 -5.482453e-001
      outer loop
         vertex 2.267878e+001 5.000000e+001 -1.864939e+001
         vertex 2.241199e+001 0.000000e+000 -1.821610e+001
         vertex 2.241199e+001 5.000000e+001 -1.821610e+001
      endloop
   endfacet
   facet normal -7.691067e-001 0.000000e+000 -6.391203e-001
      outer loop
         vertex 2.241199e+001 5.000000e+001 -1.821610e+001
         vertex 2.241199e+001 0.000000e+000 -1.821610e+001
         vertex 2.207582e+001 0.000000e+000 -1.783413e+001
      endloop
   endfacet
   facet normal -7.316340e-001 0.000000e+000 -6.816977e-001
      outer loop
         vertex 2.241199e+001 5.000000e+001 -1.821610e+001
         vertex 2.207582e+001 0.000000e+000 -1.783413e+001
         vertex 2.207582e+001 5.000000e+001 -1.783413e+001
      endloop
   endfacet
   facet normal -6.500320e-001 0.000000e+000 -7.599069e-001
      outer loop
         vertex 2.207582e+001 5.000000e+001 -1.783413e+001
         vertex 2.207582e+001 0.000000e+000 -1.783413e+001
         vertex 2.167992e+001 0.000000e+000 -1.751447e+001
      endloop
   endfacet
   facet normal -6.059027e-001 0.000000e+000 -7.955388e-001
      outer loop
         vertex 2.207582e+001 5.000000e+001 -1.783413e+001
         vertex 2.167992e+001 0.000000e+000 -1.751447e+001
         vertex 2.167992e+001 5.000000e+001 -1.751447e+001
      endloop
   endfacet
   facet normal -5.122570e-001 0.000000e+000 -8.588322e-001
      outer loop
         vertex 2.167992e+001 5.000000e+001 -1.751447e+001
         vertex 2.167992e+001 0.000000e+000 -1.751447e+001
         vertex 2.123570e+001 0.000000e+000 -1.726631e+001
      endloop
   endfacet
   facet normal -4.627406e-001 0.000000e+000 -8.864937e-001
      outer loop
         vertex 2.167992e+001 5.000000e+001 -1.751447e+001
         vertex 2.123570e+001 0.000000e+000 -1.726631e+001
         vertex 2.123570e+001 5.000000e+001 -1.726631e+001
      endloop
   endfacet
   facet normal -3.597453e-001 0.000000e+000 -9.330506e-001
      outer loop
         vertex 2.123570e+001 5.000000e+001 -1.726631e+001
         vertex 2.123570e+001 0.000000e+000 -1.726631e+001
         vertex 2.075593e+001 0.000000e+000 -1.709680e+001
      endloop
   endfacet
   facet normal -3.062663e-001 0.000000e+000 -9.519458e-001
      outer loop
         vertex 2.123570e+001 5.000000e+001 -1.726631e+001
         vertex 2.075593e+001 0.000000e+000 -1.709680e+001
         vertex 2.075593e+001 5.000000e+001 -1.709680e+001
      endloop
   endfacet
   facet normal -1.968844e-001 0.000000e+000 -9.804267e-001
      outer loop
         vertex 2.075593e+001 5.000000e+001 -1.709680e+001
         vertex 2.075593e+001 0.000000e+000 -1.709680e+001
         vertex 2.025442e+001 0.000000e+000 -1.701081e+001
      endloop
   endfacet
   facet normal -1.409813e-001 0.000000e+000 -9.900123e-001
      outer loop
         vertex 2.075593e+001 5.000000e+001 -1.709680e+001
         vertex 2.025442e+001 0.000000e+000 -1.701081e+001
         vertex 2.025442e+001 5.000000e+001 -1.701081e+001
      endloop
   endfacet
   facet normal -5.658260e-002 0.000000e+000 -9.983979e-001
      outer loop
         vertex 2.025442e+001 5.000000e+001 -1.701081e+001
         vertex 2.025442e+001 0.000000e+000 -1.701081e+001
         vertex 2.000000e+001 5.000000e+001 -1.700000e+001
      endloop
   endfacet
   facet normal 1.000000e+000 0.000000e+000 -1.406532e-016
      outer loop
         vertex 6.000000e+001 5.000000e+001 -1.480000e+002
         vertex 6.000000e+001 5.000000e+001 -1.270660e+002
         vertex 6.000000e+001 0.000000e+000 -1.480000e+002
      endloop
   endfacet
   facet normal 1.000000e+000 0.000000e+000 -1.406532e-016
      outer loop
         vertex 6.000000e+001 0.000000e+000 -1.480000e+002
         vertex 6.000000e+001 5.000000e+001 -1.270660e+002
         vertex 6.000000e+001 0.000000e+000 -1.270660e+002
      endloop
   endfacet
   facet normal 1.000000e+000 0.000000e+000 -1.406532e-016
      outer loop
         vertex 6.000000e+001 0.000000e+000 0.000000e+000
         vertex 6.000000e+001 0.000000e+000 -2.093400e+001
         vertex 6.000000e+001 5.000000e+001 0.000000e+000
      endloop
   endfacet
   facet normal 1.000000e+000 0.000000e+000 -1.406532e-016
      outer loop
         vertex 6.000000e+001 5.000000e+001 0.000000e+000
         vertex 6.000000e+001 0.000000e+000 -2.093400e+001
         vertex 6.000000e+001 5.000000e+001 -2.093400e+001
      endloop
   endfacet
endsolid