solid motor casing_Default_sldprt
   facet normal 0.000000e+000 0.000000e+000 1.000000e+000
      outer loop
         vertex 6.295640e+001 2.388813e+001 1.270000e+001
         vertex 6.261737e+001 2.292859e+001 1.270000e+001
         vertex 1.143000e+002 0.000000e+000 1.270000e+001
      endloop
   endfacet
   facet normal 0.000000e+000 0.000000e+000 1.000000e+000
      outer loop
         vertex 1.143000e+002 0.000000e+000 1.270000e+001
         vertex 6.261737e+001 2.292859e+001 1.270000e+001
         vertex 6.212106e+001 2.204015e+001 1.270000e+001
      endloop
   endfacet
   facet normal 0.000000e+000 0.000000e+000 1.000000e+000
      outer loop
         vertex 1.143000e+002 0.000000e+000 1.270000e+001
         vertex 6.212106e+001 2.204015e+001 1.270000e+001
         vertex 6.148174e+001 2.124837e+001 1.270000e+001
      endloop
   endfacet
   facet normal 0.000000e+000 0.000000e+000 1.000000e+000
      outer loop
         vertex 5.149274e+001 2.739884e+001 1.270000e+001
         vertex 5.191191e+001 2.832617e+001 1.270000e+001
         vertex 0.000000e+000 5.080000e+001 1.270000e+001
      endloop
   endfacet
   facet normal 0.000000e+000 0.000000e+000 1.000000e+000
      outer loop
         vertex 0.000000e+000 5.080000e+001 1.270000e+001
         vertex 5.191191e+001 2.832617e+001 1.270000e+001
         vertex 5.248178e+001 2.916932e+001 1.270000e+001
      endloop
   endfacet
   facet normal 0.000000e+000 0.000000e+000 1.000000e+000
      outer loop
         vertex 5.890694e+001 3.113700e+001 1.270000e+001
         vertex 5.985122e+001 3.075756e+001 1.270000e+001
         vertex 1.143000e+002 5.080000e+001 1.270000e+001
      endloop
   endfacet
   facet normal 0.000000e+000 0.000000e+000 1.000000e+000
      outer loop
         vertex 1.143000e+002 5.080000e+001 1.270000e+001
         vertex 5.985122e+001 3.075756e+001 1.270000e+001
         vertex 6.071780e+001 3.022398e+001 1.270000e+001
      endloop
   endfacet
   facet normal 0.000000e+000 0.000000e+000 1.000000e+000
      outer loop
         vertex 1.143000e+002 5.080000e+001 1.270000e+001
         vertex 6.071780e+001 3.022398e+001 1.270000e+001
         vertex 6.148174e+001 2.955163e+001 1.270000e+001
      endloop
   endfacet
   facet normal 0.000000e+000 0.000000e+000 1.000000e+000
      outer loop
         vertex 6.148174e+001 2.124837e+001 1.270000e+001
         vertex 6.071780e+001 2.057602e+001 1.270000e+001
         vertex 1.143000e+002 0.000000e+000 1.270000e+001
      endloop
   endfacet
   facet normal 0.000000e+000 0.000000e+000 1.000000e+000
      outer loop
         vertex 1.143000e+002 0.000000e+000 1.270000e+001
         vertex 6.071780e+001 2.057602e+001 1.270000e+001
         vertex 5.985122e+001 2.004245e+001 1.270000e+001
      endloop
   endfacet
   facet normal 0.000000e+000 0.000000e+000 1.000000e+000
      outer loop
         vertex 1.143000e+002 0.000000e+000 1.270000e+001
         vertex 5.985122e+001 2.004245e+001 1.270000e+001
         vertex 5.890694e+001 1.966300e+001 1.270000e+001
      endloop
   endfacet
   facet normal 0.000000e+000 0.000000e+000 1.000000e+000
      outer loop
         vertex 5.248178e+001 2.916932e+001 1.270000e+001
         vertex 5.318595e+001 2.990403e+001 1.270000e+001
         vertex 0.000000e+000 5.080000e+001 1.270000e+001
      endloop
   endfacet
   facet normal 0.000000e+000 0.000000e+000 1.000000e+000
      outer loop
         vertex 0.000000e+000 5.080000e+001 1.270000e+001
         vertex 5.318595e+001 2.990403e+001 1.270000e+001
         vertex 5.400415e+001 3.050918e+001 1.270000e+001
      endloop
   endfacet
   facet normal 0.000000e+000 0.000000e+000 1.000000e+000
      outer loop
         vertex 0.000000e+000 5.080000e+001 1.270000e+001
         vertex 5.400415e+001 3.050918e+001 1.270000e+001
         vertex 5.491286e+001 3.096733e+001 1.270000e+001
      endloop
   endfacet
   facet normal 0.000000e+000 0.000000e+000 1.000000e+000
      outer loop
         vertex 5.491286e+001 3.096733e+001 1.270000e+001
         vertex 5.588593e+001 3.126533e+001 1.270000e+001
         vertex 0.000000e+000 5.080000e+001 1.270000e+001
      endloop
   endfacet
   facet normal 0.000000e+000 0.000000e+000 1.000000e+000
      outer loop
         vertex 0.000000e+000 5.080000e+001 1.270000e+001
         vertex 5.588593e+001 3.126533e+001 1.270000e+001
         vertex 5.689535e+001 3.139459e+001 1.270000e+001
      endloop
   endfacet
   facet normal 0.000000e+000 0.000000e+000 1.000000e+000
      outer loop
         vertex 0.000000e+000 5.080000e+001 1.270000e+001
         vertex 5.689535e+001 3.139459e+001 1.270000e+001
         vertex 1.143000e+002 5.080000e+001 1.270000e+001
      endloop
   endfacet
   facet normal 0.000000e+000 0.000000e+000 1.000000e+000
      outer loop
         vertex 1.143000e+002 5.080000e+001 1.270000e+001
         vertex 5.689535e+001 3.139459e+001 1.270000e+001
         vertex 5.791211e+001 3.135140e+001 1.270000e+001
      endloop
   endfacet
   facet normal 0.000000e+000 0.000000e+000 1.000000e+000
      outer loop
         vertex 1.143000e+002 5.080000e+001 1.270000e+001
         vertex 5.791211e+001 3.135140e+001 1.270000e+001
         vertex 5.890694e+001 3.113700e+001 1.270000e+001
      endloop
   endfacet
   facet normal 0.000000e+000 0.000000e+000 1.000000e+000
      outer loop
         vertex 6.148174e+001 2.955163e+001 1.270000e+001
         vertex 6.212106e+001 2.875985e+001 1.270000e+001
         vertex 1.143000e+002 5.080000e+001 1.270000e+001
      endloop
   endfacet
   facet normal 0.000000e+000 0.000000e+000 1.000000e+000
      outer loop
         vertex 1.143000e+002 5.080000e+001 1.270000e+001
         vertex 6.212106e+001 2.875985e+001 1.270000e+001
         vertex 6.261737e+001 2.787141e+001 1.270000e+001
      endloop
   endfacet
   facet normal 0.000000e+000 0.000000e+000 1.000000e+000
      outer loop
         vertex 1.143000e+002 5.080000e+001 1.270000e+001
         vertex 6.261737e+001 2.787141e+001 1.270000e+001
         vertex 6.295640e+001 2.691187e+001 1.270000e+001
      endloop
   endfacet
   facet normal 0.000000e+000 0.000000e+000 1.000000e+000
      outer loop
         vertex 5.890694e+001 1.966300e+001 1.270000e+001
         vertex 5.791211e+001 1.944860e+001 1.270000e+001
         vertex 1.143000e+002 0.000000e+000 1.270000e+001
      endloop
   endfacet
   facet normal 0.000000e+000 0.000000e+000 1.000000e+000
      outer loop
         vertex 1.143000e+002 0.000000e+000 1.270000e+001
         vertex 5.791211e+001 1.944860e+001 1.270000e+001
         vertex 5.689535e+001 1.940541e+001 1.270000e+001
      endloop
   endfacet
   facet normal 0.000000e+000 0.000000e+000 1.000000e+000
      outer loop
         vertex 1.143000e+002 0.000000e+000 1.270000e+001
         vertex 5.689535e+001 1.940541e+001 1.270000e+001
         vertex 0.000000e+000 0.000000e+000 1.270000e+001
      endloop
   endfacet
   facet normal 0.000000e+000 0.000000e+000 1.000000e+000
      outer loop
         vertex 0.000000e+000 0.000000e+000 1.270000e+001
         vertex 5.689535e+001 1.940541e+001 1.270000e+001
         vertex 5.588593e+001 1.953467e+001 1.270000e+001
      endloop
   endfacet
   facet normal 0.000000e+000 0.000000e+000 1.000000e+000
      outer loop
         vertex 5.149274e+001 2.340116e+001 1.270000e+001
         vertex 5.123631e+001 2.438599e+001 1.270000e+001
         vertex 0.000000e+000 0.000000e+000 1.270000e+001
      endloop
   endfacet
   facet normal 0.000000e+000 0.000000e+000 1.000000e+000
      outer loop
         vertex 0.000000e+000 0.000000e+000 1.270000e+001
         vertex 5.123631e+001 2.438599e+001 1.270000e+001
         vertex 5.115000e+001 2.540000e+001 1.270000e+001
      endloop
   endfacet
   facet normal 0.000000e+000 0.000000e+000 1.000000e+000
      outer loop
         vertex 0.000000e+000 0.000000e+000 1.270000e+001
         vertex 5.115000e+001 2.540000e+001 1.270000e+001
         vertex 0.000000e+000 5.080000e+001 1.270000e+001
      endloop
   endfacet
   facet normal 0.000000e+000 0.000000e+000 1.000000e+000
      outer loop
         vertex 0.000000e+000 5.080000e+001 1.270000e+001
         vertex 5.115000e+001 2.540000e+001 1.270000e+001
         vertex 5.123631e+001 2.641401e+001 1.270000e+001
      endloop
   endfacet
   facet normal 0.000000e+000 0.000000e+000 1.000000e+000
      outer loop
         vertex 0.000000e+000 5.080000e+001 1.270000e+001
         vertex 5.123631e+001 2.641401e+001 1.270000e+001
         vertex 5.149274e+001 2.739884e+001 1.270000e+001
      endloop
   endfacet
   facet normal 0.000000e+000 0.000000e+000 1.000000e+000
      outer loop
         vertex 6.295640e+001 2.691187e+001 1.270000e+001
         vertex 6.312838e+001 2.590883e+001 1.270000e+001
         vertex 1.143000e+002 5.080000e+001 1.270000e+001
      endloop
   endfacet
   facet normal 0.000000e+000 0.000000e+000 1.000000e+000
      outer loop
         vertex 1.143000e+002 5.080000e+001 1.270000e+001
         vertex 6.312838e+001 2.590883e+001 1.270000e+001
         vertex 6.315001e+001 2.540000e+001 1.270000e+001
      endloop
   endfacet
   facet normal 0.000000e+000 0.000000e+000 1.000000e+000
      outer loop
         vertex 1.143000e+002 5.080000e+001 1.270000e+001
         vertex 6.315001e+001 2.540000e+001 1.270000e+001
         vertex 1.143000e+002 0.000000e+000 1.270000e+001
      endloop
   endfacet
   facet normal 0.000000e+000 0.000000e+000 1.000000e+000
      outer loop
         vertex 1.143000e+002 0.000000e+000 1.270000e+001
         vertex 6.315001e+001 2.540000e+001 1.270000e+001
         vertex 6.312838e+001 2.489116e+001 1.270000e+001
      endloop
   endfacet
   facet normal 0.000000e+000 0.000000e+000 1.000000e+000
      outer loop
         vertex 1.143000e+002 0.000000e+000 1.270000e+001
         vertex 6.312838e+001 2.489116e+001 1.270000e+001
         vertex 6.295640e+001 2.388813e+001 1.270000e+001
      endloop
   endfacet
   facet normal 0.000000e+000 0.000000e+000 1.000000e+000
      outer loop
         vertex 5.588593e+001 1.953467e+001 1.270000e+001
         vertex 5.491286e+001 1.983266e+001 1.270000e+001
         vertex 0.000000e+000 0.000000e+000 1.270000e+001
      endloop
   endfacet
   facet normal 0.000000e+000 0.000000e+000 1.000000e+000
      outer loop
         vertex 0.000000e+000 0.000000e+000 1.270000e+001
         vertex 5.491286e+001 1.983266e+001 1.270000e+001
         vertex 5.400415e+001 2.029082e+001 1.270000e+001
      endloop
   endfacet
   facet normal 0.000000e+000 0.000000e+000 1.000000e+000
      outer loop
         vertex 0.000000e+000 0.000000e+000 1.270000e+001
         vertex 5.400415e+001 2.029082e+001 1.270000e+001
         vertex 5.318595e+001 2.089597e+001 1.270000e+001
      endloop
   endfacet
   facet normal 0.000000e+000 0.000000e+000 1.000000e+000
      outer loop
         vertex 5.318595e+001 2.089597e+001 1.270000e+001
         vertex 5.248178e+001 2.163068e+001 1.270000e+001
         vertex 0.000000e+000 0.000000e+000 1.270000e+001
      endloop
   endfacet
   facet normal 0.000000e+000 0.000000e+000 1.000000e+000
      outer loop
         vertex 0.000000e+000 0.000000e+000 1.270000e+001
         vertex 5.248178e+001 2.163068e+001 1.270000e+001
         vertex 5.191191e+001 2.247383e+001 1.270000e+001
      endloop
   endfacet
   facet normal 0.000000e+000 0.000000e+000 1.000000e+000
      outer loop
         vertex 0.000000e+000 0.000000e+000 1.270000e+001
         vertex 5.191191e+001 2.247383e+001 1.270000e+001
         vertex 5.149274e+001 2.340116e+001 1.270000e+001
      endloop
   endfacet
   facet normal 0.000000e+000 0.000000e+000 -1.000000e+000
      outer loop
         vertex 6.071780e+001 2.057602e+001 0.000000e+000
         vertex 6.148174e+001 2.124837e+001 0.000000e+000
         vertex 1.143000e+002 0.000000e+000 0.000000e+000
      endloop
   endfacet
   facet normal 0.000000e+000 0.000000e+000 -1.000000e+000
      outer loop
         vertex 5.491286e+001 3.096733e+001 0.000000e+000
         vertex 5.400415e+001 3.050918e+001 0.000000e+000
         vertex 0.000000e+000 5.080000e+001 0.000000e+000
      endloop
   endfacet
   facet normal 0.000000e+000 0.000000e+000 -1.000000e+000
      outer loop
         vertex 0.000000e+000 5.080000e+001 0.000000e+000
         vertex 5.400415e+001 3.050918e+001 0.000000e+000
         vertex 5.318595e+001 2.990403e+001 0.000000e+000
      endloop
   endfacet
   facet normal 0.000000e+000 0.000000e+000 -1.000000e+000
      outer loop
         vertex 5.318595e+001 2.990403e+001 0.000000e+000
         vertex 5.248178e+001 2.916932e+001 0.000000e+000
         vertex 0.000000e+000 5.080000e+001 0.000000e+000
      endloop
   endfacet
   facet normal 0.000000e+000 0.000000e+000 -1.000000e+000
      outer loop
         vertex 0.000000e+000 5.080000e+001 0.000000e+000
         vertex 5.248178e+001 2.916932e+001 0.000000e+000
         vertex 5.191191e+001 2.832617e+001 0.000000e+000
      endloop
   endfacet
   facet normal 0.000000e+000 0.000000e+000 -1.000000e+000
      outer loop
         vertex 0.000000e+000 5.080000e+001 0.000000e+000
         vertex 5.191191e+001 2.832617e+001 0.000000e+000
         vertex 5.149274e+001 2.739884e+001 0.000000e+000
      endloop
   endfacet
   facet normal 0.000000e+000 0.000000e+000 -1.000000e+000
      outer loop
         vertex 5.149274e+001 2.739884e+001 0.000000e+000
         vertex 5.123631e+001 2.641401e+001 0.000000e+000
         vertex 0.000000e+000 5.080000e+001 0.000000e+000
      endloop
   endfacet
   facet normal 0.000000e+000 0.000000e+000 -1.000000e+000
      outer loop
         vertex 0.000000e+000 5.080000e+001 0.000000e+000
         vertex 5.123631e+001 2.641401e+001 0.000000e+000
         vertex 5.115000e+001 2.540000e+001 0.000000e+000
      endloop
   endfacet
   facet normal 0.000000e+000 0.000000e+000 -1.000000e+000
      outer loop
         vertex 0.000000e+000 5.080000e+001 0.000000e+000
         vertex 5.115000e+001 2.540000e+001 0.000000e+000
         vertex 0.000000e+000 0.000000e+000 0.000000e+000
      endloop
   endfacet
   facet normal 0.000000e+000 0.000000e+000 -1.000000e+000
      outer loop
         vertex 0.000000e+000 0.000000e+000 0.000000e+000
         vertex 5.115000e+001 2.540000e+001 0.000000e+000
         vertex 5.123631e+001 2.438599e+001 0.000000e+000
      endloop
   endfacet
   facet normal 0.000000e+000 0.000000e+000 -1.000000e+000
      outer loop
         vertex 0.000000e+000 0.000000e+000 0.000000e+000
         vertex 5.123631e+001 2.438599e+001 0.000000e+000
         vertex 5.149274e+001 2.340116e+001 0.000000e+000
      endloop
   endfacet
   facet normal 0.000000e+000 0.000000e+000 -1.000000e+000
      outer loop
         vertex 5.791211e+001 1.944860e+001 0.000000e+000
         vertex 5.890694e+001 1.966300e+001 0.000000e+000
         vertex 1.143000e+002 0.000000e+000 0.000000e+000
      endloop
   endfacet
   facet normal 0.000000e+000 0.000000e+000 -1.000000e+000
      outer loop
         vertex 1.143000e+002 0.000000e+000 0.000000e+000
         vertex 5.890694e+001 1.966300e+001 0.000000e+000
         vertex 5.985122e+001 2.004245e+001 0.000000e+000
      endloop
   endfacet
   facet normal 0.000000e+000 0.000000e+000 -1.000000e+000
      outer loop
         vertex 1.143000e+002 0.000000e+000 0.000000e+000
         vertex 5.985122e+001 2.004245e+001 0.000000e+000
         vertex 6.071780e+001 2.057602e+001 0.000000e+000
      endloop
   endfacet
   facet normal 0.000000e+000 0.000000e+000 -1.000000e+000
      outer loop
         vertex 6.295640e+001 2.691187e+001 0.000000e+000
         vertex 6.261737e+001 2.787141e+001 0.000000e+000
         vertex 1.143000e+002 5.080000e+001 0.000000e+000
      endloop
   endfacet
   facet normal 0.000000e+000 0.000000e+000 -1.000000e+000
      outer loop
         vertex 1.143000e+002 5.080000e+001 0.000000e+000
         vertex 6.261737e+001 2.787141e+001 0.000000e+000
         vertex 6.212106e+001 2.875985e+001 0.000000e+000
      endloop
   endfacet
   facet normal 0.000000e+000 0.000000e+000 -1.000000e+000
      outer loop
         vertex 1.143000e+002 5.080000e+001 0.000000e+000
         vertex 6.212106e+001 2.875985e+001 0.000000e+000
         vertex 6.148174e+001 2.955163e+001 0.000000e+000
      endloop
   endfacet
   facet normal 0.000000e+000 0.000000e+000 -1.000000e+000
      outer loop
         vertex 6.148174e+001 2.955163e+001 0.000000e+000
         vertex 6.071780e+001 3.022398e+001 0.000000e+000
         vertex 1.143000e+002 5.080000e+001 0.000000e+000
      endloop
   endfacet
   facet normal 0.000000e+000 0.000000e+000 -1.000000e+000
      outer loop
         vertex 1.143000e+002 5.080000e+001 0.000000e+000
         vertex 6.071780e+001 3.022398e+001 0.000000e+000
         vertex 5.985122e+001 3.075756e+001 0.000000e+000
      endloop
   endfacet
   facet normal 0.000000e+000 0.000000e+000 -1.000000e+000
      outer loop
         vertex 1.143000e+002 5.080000e+001 0.000000e+000
         vertex 5.985122e+001 3.075756e+001 0.000000e+000
         vertex 5.890694e+001 3.113700e+001 0.000000e+000
      endloop
   endfacet
   facet normal 0.000000e+000 0.000000e+000 -1.000000e+000
      outer loop
         vertex 5.149274e+001 2.340116e+001 0.000000e+000
         vertex 5.191191e+001 2.247383e+001 0.000000e+000
         vertex 0.000000e+000 0.000000e+000 0.000000e+000
      endloop
   endfacet
   facet normal 0.000000e+000 0.000000e+000 -1.000000e+000
      outer loop
         vertex 0.000000e+000 0.000000e+000 0.000000e+000
         vertex 5.191191e+001 2.247383e+001 0.000000e+000
         vertex 5.248178e+001 2.163068e+001 0.000000e+000
      endloop
   endfacet
   facet normal 0.000000e+000 0.000000e+000 -1.000000e+000
      outer loop
         vertex 0.000000e+000 0.000000e+000 0.000000e+000
         vertex 5.248178e+001 2.163068e+001 0.000000e+000
         vertex 5.318595e+001 2.089597e+001 0.000000e+000
      endloop
   endfacet
   facet normal 0.000000e+000 0.000000e+000 -1.000000e+000
      outer loop
         vertex 5.791211e+001 1.944860e+001 0.000000e+000
         vertex 1.143000e+002 0.000000e+000 0.000000e+000
         vertex 5.689535e+001 1.940541e+001 0.000000e+000
      endloop
   endfacet
   facet normal 0.000000e+000 0.000000e+000 -1.000000e+000
      outer loop
         vertex 5.689535e+001 1.940541e+001 0.000000e+000
         vertex 1.143000e+002 0.000000e+000 0.000000e+000
         vertex 0.000000e+000 0.000000e+000 0.000000e+000
      endloop
   endfacet
   facet normal 0.000000e+000 0.000000e+000 -1.000000e+000
      outer loop
         vertex 5.689535e+001 1.940541e+001 0.000000e+000
         vertex 0.000000e+000 0.000000e+000 0.000000e+000
         vertex 5.588593e+001 1.953467e+001 0.000000e+000
      endloop
   endfacet
   facet normal 0.000000e+000 0.000000e+000 -1.000000e+000
      outer loop
         vertex 6.148174e+001 2.124837e+001 0.000000e+000
         vertex 6.212106e+001 2.204015e+001 0.000000e+000
         vertex 1.143000e+002 0.000000e+000 0.000000e+000
      endloop
   endfacet
   facet normal 0.000000e+000 0.000000e+000 -1.000000e+000
      outer loop
         vertex 1.143000e+002 0.000000e+000 0.000000e+000
         vertex 6.212106e+001 2.204015e+001 0.000000e+000
         vertex 6.261737e+001 2.292859e+001 0.000000e+000
      endloop
   endfacet
   facet normal 0.000000e+000 0.000000e+000 -1.000000e+000
      outer loop
         vertex 1.143000e+002 0.000000e+000 0.000000e+000
         vertex 6.261737e+001 2.292859e+001 0.000000e+000
         vertex 6.295640e+001 2.388813e+001 0.000000e+000
      endloop
   endfacet
   facet normal 0.000000e+000 0.000000e+000 -1.000000e+000
      outer loop
         vertex 5.318595e+001 2.089597e+001 0.000000e+000
         vertex 5.400415e+001 2.029082e+001 0.000000e+000
         vertex 0.000000e+000 0.000000e+000 0.000000e+000
      endloop
   endfacet
   facet normal 0.000000e+000 0.000000e+000 -1.000000e+000
      outer loop
         vertex 0.000000e+000 0.000000e+000 0.000000e+000
         vertex 5.400415e+001 2.029082e+001 0.000000e+000
         vertex 5.491286e+001 1.983266e+001 0.000000e+000
      endloop
   endfacet
   facet normal 0.000000e+000 0.000000e+000 -1.000000e+000
      outer loop
         vertex 0.000000e+000 0.000000e+000 0.000000e+000
         vertex 5.491286e+001 1.983266e+001 0.000000e+000
         vertex 5.588593e+001 1.953467e+001 0.000000e+000
      endloop
   endfacet
   facet normal 0.000000e+000 0.000000e+000 -1.000000e+000
      outer loop
         vertex 5.890694e+001 3.113700e+001 0.000000e+000
         vertex 5.791211e+001 3.135140e+001 0.000000e+000
         vertex 1.143000e+002 5.080000e+001 0.000000e+000
      endloop
   endfacet
   facet normal 0.000000e+000 0.000000e+000 -1.000000e+000
      outer loop
         vertex 1.143000e+002 5.080000e+001 0.000000e+000
         vertex 5.791211e+001 3.135140e+001 0.000000e+000
         vertex 5.689535e+001 3.139459e+001 0.000000e+000
      endloop
   endfacet
   facet normal 0.000000e+000 0.000000e+000 -1.000000e+000
      outer loop
         vertex 1.143000e+002 5.080000e+001 0.000000e+000
         vertex 5.689535e+001 3.139459e+001 0.000000e+000
         vertex 0.000000e+000 5.080000e+001 0.000000e+000
      endloop
   endfacet
   facet normal 0.000000e+000 0.000000e+000 -1.000000e+000
      outer loop
         vertex 0.000000e+000 5.080000e+001 0.000000e+000
         vertex 5.689535e+001 3.139459e+001 0.000000e+000
         vertex 5.588593e+001 3.126533e+001 0.000000e+000
      endloop
   endfacet
   facet normal 0.000000e+000 0.000000e+000 -1.000000e+000
      outer loop
         vertex 0.000000e+000 5.080000e+001 0.000000e+000
         vertex 5.588593e+001 3.126533e+001 0.000000e+000
         vertex 5.491286e+001 3.096733e+001 0.000000e+000
      endloop
   endfacet
   facet normal 0.000000e+000 0.000000e+000 -1.000000e+000
      outer loop
         vertex 6.295640e+001 2.388813e+001 0.000000e+000
         vertex 6.312838e+001 2.489116e+001 0.000000e+000
         vertex 1.143000e+002 0.000000e+000 0.000000e+000
      endloop
   endfacet
   facet normal 0.000000e+000 0.000000e+000 -1.000000e+000
      outer loop
         vertex 1.143000e+002 0.000000e+000 0.000000e+000
         vertex 6.312838e+001 2.489116e+001 0.000000e+000
         vertex 6.315001e+001 2.540000e+001 0.000000e+000
      endloop
   endfacet
   facet normal 0.000000e+000 0.000000e+000 -1.000000e+000
      outer loop
         vertex 1.143000e+002 0.000000e+000 0.000000e+000
         vertex 6.315001e+001 2.540000e+001 0.000000e+000
         vertex 1.143000e+002 5.080000e+001 0.000000e+000
      endloop
   endfacet
   facet normal 0.000000e+000 0.000000e+000 -1.000000e+000
      outer loop
         vertex 1.143000e+002 5.080000e+001 0.000000e+000
         vertex 6.315001e+001 2.540000e+001 0.000000e+000
         vertex 6.312838e+001 2.590883e+001 0.000000e+000
      endloop
   endfacet
   facet normal 0.000000e+000 0.000000e+000 -1.000000e+000
      outer loop
         vertex 1.143000e+002 5.080000e+001 0.000000e+000
         vertex 6.312838e+001 2.590883e+001 0.000000e+000
         vertex 6.295640e+001 2.691187e+001 0.000000e+000
      endloop
   endfacet
   facet normal -1.000000e+000 0.000000e+000 0.000000e+000
      outer loop
         vertex 0.000000e+000 0.000000e+000 1.270000e+001
         vertex 0.000000e+000 5.080000e+001 1.270000e+001
         vertex 0.000000e+000 0.000000e+000 0.000000e+000
      endloop
   endfacet
   facet normal -1.000000e+000 0.000000e+000 0.000000e+000
      outer loop
         vertex 0.000000e+000 0.000000e+000 0.000000e+000
         vertex 0.000000e+000 5.080000e+001 1.270000e+001
         vertex 0.000000e+000 5.080000e+001 0.000000e+000
      endloop
   endfacet
   facet normal 0.000000e+000 -1.000000e+000 0.000000e+000
      outer loop
         vertex 1.143000e+002 0.000000e+000 1.270000e+001
         vertex 0.000000e+000 0.000000e+000 1.270000e+001
         vertex 1.143000e+002 0.000000e+000 0.000000e+000
      endloop
   endfacet
   facet normal 0.000000e+000 -1.000000e+000 0.000000e+000
      outer loop
         vertex 1.143000e+002 0.000000e+000 0.000000e+000
         vertex 0.000000e+000 0.000000e+000 1.270000e+001
         vertex 0.000000e+000 0.000000e+000 0.000000e+000
      endloop
   endfacet
   facet normal 1.000000e+000 0.000000e+000 0.000000e+000
      outer loop
         vertex 1.143000e+002 5.080000e+001 1.270000e+001
         vertex 1.143000e+002 0.000000e+000 1.270000e+001
         vertex 1.143000e+002 5.080000e+001 0.000000e+000
      endloop
   endfacet
   facet normal 1.000000e+000 0.000000e+000 0.000000e+000
      outer loop
         vertex 1.143000e+002 5.080000e+001 0.000000e+000
         vertex 1.143000e+002 0.000000e+000 1.270000e+001
         vertex 1.143000e+002 0.000000e+000 0.000000e+000
      endloop
   endfacet
   facet normal 0.000000e+000 1.000000e+000 0.000000e+000
      outer loop
         vertex 0.000000e+000 5.080000e+001 1.270000e+001
         vertex 1.143000e+002 5.080000e+001 1.270000e+001
         vertex 0.000000e+000 5.080000e+001 0.000000e+000
      endloop
   endfacet
   facet normal 0.000000e+000 1.000000e+000 0.000000e+000
      outer loop
         vertex 0.000000e+000 5.080000e+001 0.000000e+000
         vertex 1.143000e+002 5.080000e+001 1.270000e+001
         vertex 1.143000e+002 5.080000e+001 0.000000e+000
      endloop
   endfacet
   facet normal -9.995998e-001 2.829130e-002 0.000000e+000
      outer loop
         vertex 6.312838e+001 2.489116e+001 1.270000e+001
         vertex 6.315001e+001 2.540000e+001 1.270000e+001
         vertex 6.315001e+001 2.540000e+001 0.000000e+000
      endloop
   endfacet
   facet normal -9.995998e-001 -2.829130e-002 0.000000e+000
      outer loop
         vertex 6.315001e+001 2.540000e+001 0.000000e+000
         vertex 6.315001e+001 2.540000e+001 1.270000e+001
         vertex 6.312838e+001 2.590883e+001 0.000000e+000
      endloop
   endfacet
   facet normal -9.983979e-001 5.658260e-002 0.000000e+000
      outer loop
         vertex 6.315001e+001 2.540000e+001 0.000000e+000
         vertex 6.312838e+001 2.489116e+001 0.000000e+000
         vertex 6.312838e+001 2.489116e+001 1.270000e+001
      endloop
   endfacet
   facet normal -9.900123e-001 1.409813e-001 0.000000e+000
      outer loop
         vertex 6.312838e+001 2.489116e+001 1.270000e+001
         vertex 6.312838e+001 2.489116e+001 0.000000e+000
         vertex 6.295640e+001 2.388813e+001 0.000000e+000
      endloop
   endfacet
   facet normal -9.804267e-001 1.968844e-001 0.000000e+000
      outer loop
         vertex 6.312838e+001 2.489116e+001 1.270000e+001
         vertex 6.295640e+001 2.388813e+001 0.000000e+000
         vertex 6.295640e+001 2.388813e+001 1.270000e+001
      endloop
   endfacet
   facet normal -9.519458e-001 3.062663e-001 0.000000e+000
      outer loop
         vertex 6.295640e+001 2.388813e+001 1.270000e+001
         vertex 6.295640e+001 2.388813e+001 0.000000e+000
         vertex 6.261737e+001 2.292859e+001 0.000000e+000
      endloop
   endfacet
   facet normal -9.330506e-001 3.597453e-001 0.000000e+000
      outer loop
         vertex 6.295640e+001 2.388813e+001 1.270000e+001
         vertex 6.261737e+001 2.292859e+001 0.000000e+000
         vertex 6.261737e+001 2.292859e+001 1.270000e+001
      endloop
   endfacet
   facet normal -8.864937e-001 4.627406e-001 0.000000e+000
      outer loop
         vertex 6.261737e+001 2.292859e+001 1.270000e+001
         vertex 6.261737e+001 2.292859e+001 0.000000e+000
         vertex 6.212106e+001 2.204015e+001 0.000000e+000
      endloop
   endfacet
   facet normal -8.588322e-001 5.122570e-001 0.000000e+000
      outer loop
         vertex 6.261737e+001 2.292859e+001 1.270000e+001
         vertex 6.212106e+001 2.204015e+001 0.000000e+000
         vertex 6.212106e+001 2.204015e+001 1.270000e+001
      endloop
   endfacet
   facet normal -7.955388e-001 6.059027e-001 0.000000e+000
      outer loop
         vertex 6.212106e+001 2.204015e+001 1.270000e+001
         vertex 6.212106e+001 2.204015e+001 0.000000e+000
         vertex 6.148174e+001 2.124837e+001 0.000000e+000
      endloop
   endfacet
   facet normal -7.599069e-001 6.500320e-001 0.000000e+000
      outer loop
         vertex 6.212106e+001 2.204015e+001 1.270000e+001
         vertex 6.148174e+001 2.124837e+001 0.000000e+000
         vertex 6.148174e+001 2.124837e+001 1.270000e+001
      endloop
   endfacet
   facet normal -6.816977e-001 7.316340e-001 0.000000e+000
      outer loop
         vertex 6.148174e+001 2.124837e+001 1.270000e+001
         vertex 6.148174e+001 2.124837e+001 0.000000e+000
         vertex 6.071780e+001 2.057602e+001 0.000000e+000
      endloop
   endfacet
   facet normal -6.391203e-001 7.691067e-001 0.000000e+000
      outer loop
         vertex 6.148174e+001 2.124837e+001 1.270000e+001
         vertex 6.071780e+001 2.057602e+001 0.000000e+000
         vertex 6.071780e+001 2.057602e+001 1.270000e+001
      endloop
   endfacet
   facet normal -5.482453e-001 8.363176e-001 0.000000e+000
      outer loop
         vertex 6.071780e+001 2.057602e+001 1.270000e+001
         vertex 6.071780e+001 2.057602e+001 0.000000e+000
         vertex 5.985122e+001 2.004245e+001 0.000000e+000
      endloop
   endfacet
   facet normal -4.999475e-001 8.660557e-001 0.000000e+000
      outer loop
         vertex 6.071780e+001 2.057602e+001 1.270000e+001
         vertex 5.985122e+001 2.004245e+001 0.000000e+000
         vertex 5.985122e+001 2.004245e+001 1.270000e+001
      endloop
   endfacet
   facet normal -3.990209e-001 9.169418e-001 0.000000e+000
      outer loop
         vertex 5.985122e+001 2.004245e+001 1.270000e+001
         vertex 5.985122e+001 2.004245e+001 0.000000e+000
         vertex 5.890694e+001 1.966300e+001 0.000000e+000
      endloop
   endfacet
   facet normal -3.463921e-001 9.380898e-001 0.000000e+000
      outer loop
         vertex 5.985122e+001 2.004245e+001 1.270000e+001
         vertex 5.890694e+001 1.966300e+001 0.000000e+000
         vertex 5.890694e+001 1.966300e+001 1.270000e+001
      endloop
   endfacet
   facet normal -2.383175e-001 9.711873e-001 0.000000e+000
      outer loop
         vertex 5.890694e+001 1.966300e+001 1.270000e+001
         vertex 5.890694e+001 1.966300e+001 0.000000e+000
         vertex 5.791211e+001 1.944860e+001 0.000000e+000
      endloop
   endfacet
   facet normal -1.828716e-001 9.831368e-001 0.000000e+000
      outer loop
         vertex 5.890694e+001 1.966300e+001 1.270000e+001
         vertex 5.791211e+001 1.944860e+001 0.000000e+000
         vertex 5.791211e+001 1.944860e+001 1.270000e+001
      endloop
   endfacet
   facet normal -7.075802e-002 9.974935e-001 0.000000e+000
      outer loop
         vertex 5.791211e+001 1.944860e+001 1.270000e+001
         vertex 5.791211e+001 1.944860e+001 0.000000e+000
         vertex 5.689535e+001 1.940541e+001 0.000000e+000
      endloop
   endfacet
   facet normal -1.409025e-002 9.999007e-001 0.000000e+000
      outer loop
         vertex 5.791211e+001 1.944860e+001 1.270000e+001
         vertex 5.689535e+001 1.940541e+001 0.000000e+000
         vertex 5.689535e+001 1.940541e+001 1.270000e+001
      endloop
   endfacet
   facet normal 9.883699e-002 9.951036e-001 0.000000e+000
      outer loop
         vertex 5.689535e+001 1.940541e+001 1.270000e+001
         vertex 5.689535e+001 1.940541e+001 0.000000e+000
         vertex 5.588593e+001 1.953467e+001 0.000000e+000
      endloop
   endfacet
   facet normal 1.550965e-001 9.878993e-001 0.000000e+000
      outer loop
         vertex 5.689535e+001 1.940541e+001 1.270000e+001
         vertex 5.588593e+001 1.953467e+001 0.000000e+000
         vertex 5.588593e+001 1.953467e+001 1.270000e+001
      endloop
   endfacet
   facet normal 2.655886e-001 9.640865e-001 0.000000e+000
      outer loop
         vertex 5.588593e+001 1.953467e+001 1.270000e+001
         vertex 5.588593e+001 1.953467e+001 0.000000e+000
         vertex 5.491286e+001 1.983266e+001 0.000000e+000
      endloop
   endfacet
   facet normal 3.198213e-001 9.474779e-001 0.000000e+000
      outer loop
         vertex 5.588593e+001 1.953467e+001 1.270000e+001
         vertex 5.491286e+001 1.983266e+001 0.000000e+000
         vertex 5.491286e+001 1.983266e+001 1.270000e+001
      endloop
   endfacet
   facet normal 4.246998e-001 9.053342e-001 0.000000e+000
      outer loop
         vertex 5.491286e+001 1.983266e+001 1.270000e+001
         vertex 5.491286e+001 1.983266e+001 0.000000e+000
         vertex 5.400415e+001 2.029082e+001 0.000000e+000
      endloop
   endfacet
   facet normal 4.753455e-001 8.797992e-001 0.000000e+000
      outer loop
         vertex 5.491286e+001 1.983266e+001 1.270000e+001
         vertex 5.400415e+001 2.029082e+001 0.000000e+000
         vertex 5.400415e+001 2.029082e+001 1.270000e+001
      endloop
   endfacet
   facet normal 5.715931e-001 8.205372e-001 0.000000e+000
      outer loop
         vertex 5.400415e+001 2.029082e+001 1.270000e+001
         vertex 5.400415e+001 2.029082e+001 0.000000e+000
         vertex 5.318595e+001 2.089597e+001 0.000000e+000
      endloop
   endfacet
   facet normal 6.171949e-001 7.868103e-001 0.000000e+000
      outer loop
         vertex 5.400415e+001 2.029082e+001 1.270000e+001
         vertex 5.318595e+001 2.089597e+001 0.000000e+000
         vertex 5.318595e+001 2.089597e+001 1.270000e+001
      endloop
   endfacet
   facet normal 7.020428e-001 7.121348e-001 0.000000e+000
      outer loop
         vertex 5.318595e+001 2.089597e+001 1.270000e+001
         vertex 5.318595e+001 2.089597e+001 0.000000e+000
         vertex 5.248178e+001 2.163068e+001 0.000000e+000
      endloop
   endfacet
   facet normal 7.412888e-001 6.711863e-001 0.000000e+000
      outer loop
         vertex 5.318595e+001 2.089597e+001 1.270000e+001
         vertex 5.248178e+001 2.163068e+001 0.000000e+000
         vertex 5.248178e+001 2.163068e+001 1.270000e+001
      endloop
   endfacet
   facet normal 8.122959e-001 5.832456e-001 0.000000e+000
      outer loop
         vertex 5.248178e+001 2.163068e+001 1.270000e+001
         vertex 5.248178e+001 2.163068e+001 0.000000e+000
         vertex 5.191191e+001 2.247383e+001 0.000000e+000
      endloop
   endfacet
   facet normal 8.440570e-001 5.362535e-001 0.000000e+000
      outer loop
         vertex 5.248178e+001 2.163068e+001 1.270000e+001
         vertex 5.191191e+001 2.247383e+001 0.000000e+000
         vertex 5.191191e+001 2.247383e+001 1.270000e+001
      endloop
   endfacet
   facet normal 8.991807e-001 4.375775e-001 0.000000e+000
      outer loop
         vertex 5.191191e+001 2.247383e+001 1.270000e+001
         vertex 5.191191e+001 2.247383e+001 0.000000e+000
         vertex 5.149274e+001 2.340116e+001 0.000000e+000
      endloop
   endfacet
   facet normal 9.225433e-001 3.858936e-001 0.000000e+000
      outer loop
         vertex 5.191191e+001 2.247383e+001 1.270000e+001
         vertex 5.149274e+001 2.340116e+001 0.000000e+000
         vertex 5.149274e+001 2.340116e+001 1.270000e+001
      endloop
   endfacet
   facet normal 9.601977e-001 2.793211e-001 0.000000e+000
      outer loop
         vertex 5.149274e+001 2.340116e+001 1.270000e+001
         vertex 5.149274e+001 2.340116e+001 0.000000e+000
         vertex 5.123631e+001 2.438599e+001 0.000000e+000
      endloop
   endfacet
   facet normal 9.744897e-001 2.244324e-001 0.000000e+000
      outer loop
         vertex 5.149274e+001 2.340116e+001 1.270000e+001
         vertex 5.123631e+001 2.438599e+001 0.000000e+000
         vertex 5.123631e+001 2.438599e+001 1.270000e+001
      endloop
   endfacet
   facet normal 9.935917e-001 1.130291e-001 0.000000e+000
      outer loop
         vertex 5.123631e+001 2.438599e+001 1.270000e+001
         vertex 5.123631e+001 2.438599e+001 0.000000e+000
         vertex 5.115000e+001 2.540000e+001 0.000000e+000
      endloop
   endfacet
   facet normal 9.984018e-001 5.651454e-002 0.000000e+000
      outer loop
         vertex 5.123631e+001 2.438599e+001 1.270000e+001
         vertex 5.115000e+001 2.540000e+001 0.000000e+000
         vertex 5.115000e+001 2.540000e+001 1.270000e+001
      endloop
   endfacet
   facet normal 9.984018e-001 -5.651454e-002 0.000000e+000
      outer loop
         vertex 5.115000e+001 2.540000e+001 1.270000e+001
         vertex 5.115000e+001 2.540000e+001 0.000000e+000
         vertex 5.123631e+001 2.641401e+001 0.000000e+000
      endloop
   endfacet
   facet normal 9.935917e-001 -1.130291e-001 0.000000e+000
      outer loop
         vertex 5.115000e+001 2.540000e+001 1.270000e+001
         vertex 5.123631e+001 2.641401e+001 0.000000e+000
         vertex 5.123631e+001 2.641401e+001 1.270000e+001
      endloop
   endfacet
   facet normal 9.744897e-001 -2.244324e-001 0.000000e+000
      outer loop
         vertex 5.123631e+001 2.641401e+001 1.270000e+001
         vertex 5.123631e+001 2.641401e+001 0.000000e+000
         vertex 5.149274e+001 2.739884e+001 0.000000e+000
      endloop
   endfacet
   facet normal 9.601977e-001 -2.793211e-001 0.000000e+000
      outer loop
         vertex 5.123631e+001 2.641401e+001 1.270000e+001
         vertex 5.149274e+001 2.739884e+001 0.000000e+000
         vertex 5.149274e+001 2.739884e+001 1.270000e+001
      endloop
   endfacet
   facet normal 9.225433e-001 -3.858936e-001 0.000000e+000
      outer loop
         vertex 5.149274e+001 2.739884e+001 1.270000e+001
         vertex 5.149274e+001 2.739884e+001 0.000000e+000
         vertex 5.191191e+001 2.832617e+001 0.000000e+000
      endloop
   endfacet
   facet normal 8.991807e-001 -4.375775e-001 0.000000e+000
      outer loop
         vertex 5.149274e+001 2.739884e+001 1.270000e+001
         vertex 5.191191e+001 2.832617e+001 0.000000e+000
         vertex 5.191191e+001 2.832617e+001 1.270000e+001
      endloop
   endfacet
   facet normal 8.440570e-001 -5.362535e-001 0.000000e+000
      outer loop
         vertex 5.191191e+001 2.832617e+001 1.270000e+001
         vertex 5.191191e+001 2.832617e+001 0.000000e+000
         vertex 5.248178e+001 2.916932e+001 0.000000e+000
      endloop
   endfacet
   facet normal 8.122959e-001 -5.832456e-001 0.000000e+000
      outer loop
         vertex 5.191191e+001 2.832617e+001 1.270000e+001
         vertex 5.248178e+001 2.916932e+001 0.000000e+000
         vertex 5.248178e+001 2.916932e+001 1.270000e+001
      endloop
   endfacet
   facet normal 7.412888e-001 -6.711863e-001 0.000000e+000
      outer loop
         vertex 5.248178e+001 2.916932e+001 1.270000e+001
         vertex 5.248178e+001 2.916932e+001 0.000000e+000
         vertex 5.318595e+001 2.990403e+001 0.000000e+000
      endloop
   endfacet
   facet normal 7.020428e-001 -7.121348e-001 0.000000e+000
      outer loop
         vertex 5.248178e+001 2.916932e+001 1.270000e+001
         vertex 5.318595e+001 2.990403e+001 0.000000e+000
         vertex 5.318595e+001 2.990403e+001 1.270000e+001
      endloop
   endfacet
   facet normal 6.171949e-001 -7.868103e-001 0.000000e+000
      outer loop
         vertex 5.318595e+001 2.990403e+001 1.270000e+001
         vertex 5.318595e+001 2.990403e+001 0.000000e+000
         vertex 5.400415e+001 3.050918e+001 0.000000e+000
      endloop
   endfacet
   facet normal 5.715931e-001 -8.205372e-001 0.000000e+000
      outer loop
         vertex 5.318595e+001 2.990403e+001 1.270000e+001
         vertex 5.400415e+001 3.050918e+001 0.000000e+000
         vertex 5.400415e+001 3.050918e+001 1.270000e+001
      endloop
   endfacet
   facet normal 4.753455e-001 -8.797992e-001 0.000000e+000
      outer loop
         vertex 5.400415e+001 3.050918e+001 1.270000e+001
         vertex 5.400415e+001 3.050918e+001 0.000000e+000
         vertex 5.491286e+001 3.096733e+001 0.000000e+000
      endloop
   endfacet
   facet normal 4.246998e-001 -9.053342e-001 0.000000e+000
      outer loop
         vertex 5.400415e+001 3.050918e+001 1.270000e+001
         vertex 5.491286e+001 3.096733e+001 0.000000e+000
         vertex 5.491286e+001 3.096733e+001 1.270000e+001
      endloop
   endfacet
   facet normal 3.198213e-001 -9.474779e-001 0.000000e+000
      outer loop
         vertex 5.491286e+001 3.096733e+001 1.270000e+001
         vertex 5.491286e+001 3.096733e+001 0.000000e+000
         vertex 5.588593e+001 3.126533e+001 0.000000e+000
      endloop
   endfacet
   facet normal 2.655886e-001 -9.640865e-001 0.000000e+000
      outer loop
         vertex 5.491286e+001 3.096733e+001 1.270000e+001
         vertex 5.588593e+001 3.126533e+001 0.000000e+000
         vertex 5.588593e+001 3.126533e+001 1.270000e+001
      endloop
   endfacet
   facet normal 1.550965e-001 -9.878993e-001 0.000000e+000
      outer loop
         vertex 5.588593e+001 3.126533e+001 1.270000e+001
         vertex 5.588593e+001 3.126533e+001 0.000000e+000
         vertex 5.689535e+001 3.139459e+001 0.000000e+000
      endloop
   endfacet
   facet normal 9.883699e-002 -9.951036e-001 0.000000e+000
      outer loop
         vertex 5.588593e+001 3.126533e+001 1.270000e+001
         vertex 5.689535e+001 3.139459e+001 0.000000e+000
         vertex 5.689535e+001 3.139459e+001 1.270000e+001
      endloop
   endfacet
   facet normal -1.409025e-002 -9.999007e-001 0.000000e+000
      outer loop
         vertex 5.689535e+001 3.139459e+001 1.270000e+001
         vertex 5.689535e+001 3.139459e+001 0.000000e+000
         vertex 5.791211e+001 3.135140e+001 0.000000e+000
      endloop
   endfacet
   facet normal -7.075802e-002 -9.974935e-001 0.000000e+000
      outer loop
         vertex 5.689535e+001 3.139459e+001 1.270000e+001
         vertex 5.791211e+001 3.135140e+001 0.000000e+000
         vertex 5.791211e+001 3.135140e+001 1.270000e+001
      endloop
   endfacet
   facet normal -1.828716e-001 -9.831368e-001 0.000000e+000
      outer loop
         vertex 5.791211e+001 3.135140e+001 1.270000e+001
         vertex 5.791211e+001 3.135140e+001 0.000000e+000
         vertex 5.890694e+001 3.113700e+001 0.000000e+000
      endloop
   endfacet
   facet normal -2.383175e-001 -9.711873e-001 0.000000e+000
      outer loop
         vertex 5.791211e+001 3.135140e+001 1.270000e+001
         vertex 5.890694e+001 3.113700e+001 0.000000e+000
         vertex 5.890694e+001 3.113700e+001 1.270000e+001
      endloop
   endfacet
   facet normal -3.463921e-001 -9.380898e-001 0.000000e+000
      outer loop
         vertex 5.890694e+001 3.113700e+001 1.270000e+001
         vertex 5.890694e+001 3.113700e+001 0.000000e+000
         vertex 5.985122e+001 3.075756e+001 0.000000e+000
      endloop
   endfacet
   facet normal -3.990209e-001 -9.169418e-001 0.000000e+000
      outer loop
         vertex 5.890694e+001 3.113700e+001 1.270000e+001
         vertex 5.985122e+001 3.075756e+001 0.000000e+000
         vertex 5.985122e+001 3.075756e+001 1.270000e+001
      endloop
   endfacet
   facet normal -4.999475e-001 -8.660557e-001 0.000000e+000
      outer loop
         vertex 5.985122e+001 3.075756e+001 1.270000e+001
         vertex 5.985122e+001 3.075756e+001 0.000000e+000
         vertex 6.071780e+001 3.022398e+001 0.000000e+000
      endloop
   endfacet
   facet normal -5.482453e-001 -8.363176e-001 0.000000e+000
      outer loop
         vertex 5.985122e+001 3.075756e+001 1.270000e+001
         vertex 6.071780e+001 3.022398e+001 0.000000e+000
         vertex 6.071780e+001 3.022398e+001 1.270000e+001
      endloop
   endfacet
   facet normal -6.391203e-001 -7.691067e-001 0.000000e+000
      outer loop
         vertex 6.071780e+001 3.022398e+001 1.270000e+001
         vertex 6.071780e+001 3.022398e+001 0.000000e+000
         vertex 6.148174e+001 2.955163e+001 0.000000e+000
      endloop
   endfacet
   facet normal -6.816977e-001 -7.316340e-001 0.000000e+000
      outer loop
         vertex 6.071780e+001 3.022398e+001 1.270000e+001
         vertex 6.148174e+001 2.955163e+001 0.000000e+000
         vertex 6.148174e+001 2.955163e+001 1.270000e+001
      endloop
   endfacet
   facet normal -7.599069e-001 -6.500320e-001 0.000000e+000
      outer loop
         vertex 6.148174e+001 2.955163e+001 1.270000e+001
         vertex 6.148174e+001 2.955163e+001 0.000000e+000
         vertex 6.212106e+001 2.875985e+001 0.000000e+000
      endloop
   endfacet
   facet normal -7.955388e-001 -6.059027e-001 0.000000e+000
      outer loop
         vertex 6.148174e+001 2.955163e+001 1.270000e+001
         vertex 6.212106e+001 2.875985e+001 0.000000e+000
         vertex 6.212106e+001 2.875985e+001 1.270000e+001
      endloop
   endfacet
   facet normal -8.588322e-001 -5.122570e-001 0.000000e+000
      outer loop
         vertex 6.212106e+001 2.875985e+001 1.270000e+001
         vertex 6.212106e+001 2.875985e+001 0.000000e+000
         vertex 6.261737e+001 2.787141e+001 0.000000e+000
      endloop
   endfacet
   facet normal -8.864937e-001 -4.627406e-001 0.000000e+000
      outer loop
         vertex 6.212106e+001 2.875985e+001 1.270000e+001
         vertex 6.261737e+001 2.787141e+001 0.000000e+000
         vertex 6.261737e+001 2.787141e+001 1.270000e+001
      endloop
   endfacet
   facet normal -9.330506e-001 -3.597453e-001 0.000000e+000
      outer loop
         vertex 6.261737e+001 2.787141e+001 1.270000e+001
         vertex 6.261737e+001 2.787141e+001 0.000000e+000
         vertex 6.295640e+001 2.691187e+001 0.000000e+000
      endloop
   endfacet
   facet normal -9.519458e-001 -3.062663e-001 0.000000e+000
      outer loop
         vertex 6.261737e+001 2.787141e+001 1.270000e+001
         vertex 6.295640e+001 2.691187e+001 0.000000e+000
         vertex 6.295640e+001 2.691187e+001 1.270000e+001
      endloop
   endfacet
   facet normal -9.804267e-001 -1.968844e-001 0.000000e+000
      outer loop
         vertex 6.295640e+001 2.691187e+001 1.270000e+001
         vertex 6.295640e+001 2.691187e+001 0.000000e+000
         vertex 6.312838e+001 2.590883e+001 0.000000e+000
      endloop
   endfacet
   facet normal -9.900123e-001 -1.409813e-001 0.000000e+000
      outer loop
         vertex 6.295640e+001 2.691187e+001 1.270000e+001
         vertex 6.312838e+001 2.590883e+001 0.000000e+000
         vertex 6.312838e+001 2.590883e+001 1.270000e+001
      endloop
   endfacet
   facet normal -9.983979e-001 -5.658260e-002 0.000000e+000
      outer loop
         vertex 6.312838e+001 2.590883e+001 1.270000e+001
         vertex 6.312838e+001 2.590883e+001 0.000000e+000
         vertex 6.315001e+001 2.540000e+001 1.270000e+001
      endloop
   endfacet
endsolid