solid rubber_1_l_Default_sldprt
   facet normal 2.276748e-001 0.000000e+000 -9.737372e-001
      outer loop
         vertex -1.000000e+001 5.000000e+001 4.980603e+001
         vertex -1.000000e+001 0.000000e+000 4.980603e+001
         vertex -1.466311e+001 0.000000e+000 4.863778e+001
      endloop
   endfacet
   facet normal 2.583031e-001 0.000000e+000 -9.660639e-001
      outer loop
         vertex -1.000000e+001 5.000000e+001 4.980603e+001
         vertex -1.466311e+001 0.000000e+000 4.863778e+001
         vertex -1.466311e+001 5.000000e+001 4.863778e+001
      endloop
   endfacet
   facet normal 3.186973e-001 0.000000e+000 -9.478565e-001
      outer loop
         vertex -1.466311e+001 5.000000e+001 4.863778e+001
         vertex -1.466311e+001 0.000000e+000 4.863778e+001
         vertex -1.919490e+001 0.000000e+000 4.703399e+001
      endloop
   endfacet
   facet normal 3.484631e-001 0.000000e+000 -9.373224e-001
      outer loop
         vertex -1.466311e+001 5.000000e+001 4.863778e+001
         vertex -1.919490e+001 0.000000e+000 4.703399e+001
         vertex -1.919490e+001 5.000000e+001 4.703399e+001
      endloop
   endfacet
   facet normal 4.068658e-001 0.000000e+000 -9.134879e-001
      outer loop
         vertex -1.919490e+001 5.000000e+001 4.703399e+001
         vertex -1.919490e+001 0.000000e+000 4.703399e+001
         vertex -2.355482e+001 0.000000e+000 4.500901e+001
      endloop
   endfacet
   facet normal 4.355027e-001 0.000000e+000 -9.001874e-001
      outer loop
         vertex -1.919490e+001 5.000000e+001 4.703399e+001
         vertex -2.355482e+001 0.000000e+000 4.500901e+001
         vertex -2.355482e+001 5.000000e+001 4.500901e+001
      endloop
   endfacet
   facet normal 4.913910e-001 0.000000e+000 -8.709391e-001
      outer loop
         vertex -2.355482e+001 5.000000e+001 4.500901e+001
         vertex -2.355482e+001 0.000000e+000 4.500901e+001
         vertex -2.770380e+001 0.000000e+000 4.258098e+001
      endloop
   endfacet
   facet normal 5.186424e-001 0.000000e+000 -8.549913e-001
      outer loop
         vertex -2.355482e+001 5.000000e+001 4.500901e+001
         vertex -2.770380e+001 0.000000e+000 4.258098e+001
         vertex -2.770380e+001 5.000000e+001 4.258098e+001
      endloop
   endfacet
   facet normal 5.715157e-001 0.000000e+000 -8.205912e-001
      outer loop
         vertex -2.770380e+001 5.000000e+001 4.258098e+001
         vertex -2.770380e+001 0.000000e+000 4.258098e+001
         vertex -3.160469e+001 0.000000e+000 3.977164e+001
      endloop
   endfacet
   facet normal 5.971377e-001 0.000000e+000 -8.021388e-001
      outer loop
         vertex -2.770380e+001 5.000000e+001 4.258098e+001
         vertex -3.160469e+001 0.000000e+000 3.977164e+001
         vertex -3.160469e+001 5.000000e+001 3.977164e+001
      endloop
   endfacet
   facet normal 6.465226e-001 0.000000e+000 -7.628948e-001
      outer loop
         vertex -3.160469e+001 5.000000e+001 3.977164e+001
         vertex -3.160469e+001 0.000000e+000 3.977164e+001
         vertex -3.522257e+001 0.000000e+000 3.660615e+001
      endloop
   endfacet
   facet normal 6.702856e-001 0.000000e+000 -7.421032e-001
      outer loop
         vertex -3.160469e+001 5.000000e+001 3.977164e+001
         vertex -3.522257e+001 0.000000e+000 3.660615e+001
         vertex -3.522257e+001 5.000000e+001 3.660615e+001
      endloop
   endfacet
   facet normal 7.157399e-001 0.000000e+000 -6.983669e-001
      outer loop
         vertex -3.522257e+001 5.000000e+001 3.660615e+001
         vertex -3.522257e+001 0.000000e+000 3.660615e+001
         vertex -3.852504e+001 0.000000e+000 3.311286e+001
      endloop
   endfacet
   facet normal 7.374312e-001 0.000000e+000 -6.754222e-001
      outer loop
         vertex -3.522257e+001 5.000000e+001 3.660615e+001
         vertex -3.852504e+001 0.000000e+000 3.311286e+001
         vertex -3.852504e+001 5.000000e+001 3.311286e+001
      endloop
   endfacet
   facet normal 7.785479e-001 0.000000e+000 -6.275852e-001
      outer loop
         vertex -3.852504e+001 5.000000e+001 3.311286e+001
         vertex -3.852504e+001 0.000000e+000 3.311286e+001
         vertex -4.148251e+001 0.000000e+000 2.932305e+001
      endloop
   endfacet
   facet normal 7.979733e-001 0.000000e+000 -6.026929e-001
      outer loop
         vertex -3.852504e+001 5.000000e+001 3.311286e+001
         vertex -4.148251e+001 0.000000e+000 2.932305e+001
         vertex -4.148251e+001 5.000000e+001 2.932305e+001
      endloop
   endfacet
   facet normal 8.343841e-001 0.000000e+000 -5.511835e-001
      outer loop
         vertex -4.148251e+001 5.000000e+001 2.932305e+001
         vertex -4.148251e+001 0.000000e+000 2.932305e+001
         vertex -4.406852e+001 0.000000e+000 2.527065e+001
      endloop
   endfacet
   facet normal 8.513695e-001 0.000000e+000 -5.245664e-001
      outer loop
         vertex -4.148251e+001 5.000000e+001 2.932305e+001
         vertex -4.406852e+001 0.000000e+000 2.527065e+001
         vertex -4.406852e+001 5.000000e+001 2.527065e+001
      endloop
   endfacet
   facet normal 8.827484e-001 0.000000e+000 -4.698461e-001
      outer loop
         vertex -4.406852e+001 5.000000e+001 2.527065e+001
         vertex -4.406852e+001 0.000000e+000 2.527065e+001
         vertex -4.625990e+001 0.000000e+000 2.099195e+001
      endloop
   endfacet
   facet normal 8.971418e-001 0.000000e+000 -4.417426e-001
      outer loop
         vertex -4.406852e+001 5.000000e+001 2.527065e+001
         vertex -4.625990e+001 0.000000e+000 2.099195e+001
         vertex -4.625990e+001 5.000000e+001 2.099195e+001
      endloop
   endfacet
   facet normal 9.232078e-001 0.000000e+000 -3.843011e-001
      outer loop
         vertex -4.625990e+001 5.000000e+001 2.099195e+001
         vertex -4.625990e+001 0.000000e+000 2.099195e+001
         vertex -4.803702e+001 0.000000e+000 1.652528e+001
      endloop
   endfacet
   facet normal 9.348803e-001 0.000000e+000 -3.549630e-001
      outer loop
         vertex -4.625990e+001 5.000000e+001 2.099195e+001
         vertex -4.803702e+001 0.000000e+000 1.652528e+001
         vertex -4.803702e+001 5.000000e+001 1.652528e+001
      endloop
   endfacet
   facet normal 9.554000e-001 0.000000e+000 -2.953148e-001
      outer loop
         vertex -4.803702e+001 5.000000e+001 1.652528e+001
         vertex -4.803702e+001 0.000000e+000 1.652528e+001
         vertex -4.938398e+001 0.000000e+000 1.191062e+001
      endloop
   endfacet
   facet normal 9.642471e-001 0.000000e+000 -2.650048e-001
      outer loop
         vertex -4.803702e+001 5.000000e+001 1.652528e+001
         vertex -4.938398e+001 0.000000e+000 1.191062e+001
         vertex -4.938398e+001 5.000000e+001 1.191062e+001
      endloop
   endfacet
   facet normal 9.790367e-001 0.000000e+000 -2.036840e-001
      outer loop
         vertex -4.938398e+001 5.000000e+001 1.191062e+001
         vertex -4.938398e+001 0.000000e+000 1.191062e+001
         vertex -5.028871e+001 0.000000e+000 7.189305e+000
      endloop
   endfacet
   facet normal 9.849791e-001 0.000000e+000 -1.726734e-001
      outer loop
         vertex -4.938398e+001 5.000000e+001 1.191062e+001
         vertex -5.028871e+001 0.000000e+000 7.189305e+000
         vertex -5.028871e+001 5.000000e+001 7.189305e+000
      endloop
   endfacet
   facet normal 9.939061e-001 0.000000e+000 -1.102293e-001
      outer loop
         vertex -5.028871e+001 5.000000e+001 7.189305e+000
         vertex -5.028871e+001 0.000000e+000 7.189305e+000
         vertex -5.074310e+001 0.000000e+000 2.403610e+000
      endloop
   endfacet
   facet normal 9.968908e-001 0.000000e+000 -7.879579e-002
      outer loop
         vertex -5.028871e+001 5.000000e+001 7.189305e+000
         vertex -5.074310e+001 0.000000e+000 2.403610e+000
         vertex -5.074310e+001 5.000000e+001 2.403610e+000
      endloop
   endfacet
   facet normal 9.998754e-001 0.000000e+000 -1.578743e-002
      outer loop
         vertex -5.074310e+001 5.000000e+001 2.403610e+000
         vertex -5.074310e+001 0.000000e+000 2.403610e+000
         vertex -5.074310e+001 0.000000e+000 -2.403610e+000
      endloop
   endfacet
   facet normal 9.998754e-001 0.000000e+000 1.578743e-002
      outer loop
         vertex -5.074310e+001 5.000000e+001 2.403610e+000
         vertex -5.074310e+001 0.000000e+000 -2.403610e+000
         vertex -5.074310e+001 5.000000e+001 -2.403610e+000
      endloop
   endfacet
   facet normal 9.968908e-001 0.000000e+000 7.879579e-002
      outer loop
         vertex -5.074310e+001 5.000000e+001 -2.403610e+000
         vertex -5.074310e+001 0.000000e+000 -2.403610e+000
         vertex -5.028871e+001 0.000000e+000 -7.189305e+000
      endloop
   endfacet
   facet normal 9.939061e-001 0.000000e+000 1.102293e-001
      outer loop
         vertex -5.074310e+001 5.000000e+001 -2.403610e+000
         vertex -5.028871e+001 0.000000e+000 -7.189305e+000
         vertex -5.028871e+001 5.000000e+001 -7.189305e+000
      endloop
   endfacet
   facet normal 9.849791e-001 0.000000e+000 1.726734e-001
      outer loop
         vertex -5.028871e+001 5.000000e+001 -7.189305e+000
         vertex -5.028871e+001 0.000000e+000 -7.189305e+000
         vertex -4.938398e+001 0.000000e+000 -1.191062e+001
      endloop
   endfacet
   facet normal 9.790367e-001 0.000000e+000 2.036840e-001
      outer loop
         vertex -5.028871e+001 5.000000e+001 -7.189305e+000
         vertex -4.938398e+001 0.000000e+000 -1.191062e+001
         vertex -4.938398e+001 5.000000e+001 -1.191062e+001
      endloop
   endfacet
   facet normal 9.642471e-001 0.000000e+000 2.650048e-001
      outer loop
         vertex -4.938398e+001 5.000000e+001 -1.191062e+001
         vertex -4.938398e+001 0.000000e+000 -1.191062e+001
         vertex -4.803702e+001 0.000000e+000 -1.652528e+001
      endloop
   endfacet
   facet normal 9.554000e-001 0.000000e+000 2.953148e-001
      outer loop
         vertex -4.938398e+001 5.000000e+001 -1.191062e+001
         vertex -4.803702e+001 0.000000e+000 -1.652528e+001
         vertex -4.803702e+001 5.000000e+001 -1.652528e+001
      endloop
   endfacet
   facet normal 9.348803e-001 0.000000e+000 3.549630e-001
      outer loop
         vertex -4.803702e+001 5.000000e+001 -1.652528e+001
         vertex -4.803702e+001 0.000000e+000 -1.652528e+001
         vertex -4.625990e+001 0.000000e+000 -2.099195e+001
      endloop
   endfacet
   facet normal 9.232078e-001 0.000000e+000 3.843011e-001
      outer loop
         vertex -4.803702e+001 5.000000e+001 -1.652528e+001
         vertex -4.625990e+001 0.000000e+000 -2.099195e+001
         vertex -4.625990e+001 5.000000e+001 -2.099195e+001
      endloop
   endfacet
   facet normal 8.971418e-001 0.000000e+000 4.417426e-001
      outer loop
         vertex -4.625990e+001 5.000000e+001 -2.099195e+001
         vertex -4.625990e+001 0.000000e+000 -2.099195e+001
         vertex -4.406852e+001 0.000000e+000 -2.527065e+001
      endloop
   endfacet
   facet normal 8.827484e-001 0.000000e+000 4.698460e-001
      outer loop
         vertex -4.625990e+001 5.000000e+001 -2.099195e+001
         vertex -4.406852e+001 0.000000e+000 -2.527065e+001
         vertex -4.406852e+001 5.000000e+001 -2.527065e+001
      endloop
   endfacet
   facet normal 8.513695e-001 0.000000e+000 5.245665e-001
      outer loop
         vertex -4.406852e+001 5.000000e+001 -2.527065e+001
         vertex -4.406852e+001 0.000000e+000 -2.527065e+001
         vertex -4.148251e+001 0.000000e+000 -2.932305e+001
      endloop
   endfacet
   facet normal 8.343840e-001 0.000000e+000 5.511835e-001
      outer loop
         vertex -4.406852e+001 5.000000e+001 -2.527065e+001
         vertex -4.148251e+001 0.000000e+000 -2.932305e+001
         vertex -4.148251e+001 5.000000e+001 -2.932305e+001
      endloop
   endfacet
   facet normal 7.979732e-001 0.000000e+000 6.026928e-001
      outer loop
         vertex -4.148251e+001 5.000000e+001 -2.932305e+001
         vertex -4.148251e+001 0.000000e+000 -2.932305e+001
         vertex -3.852504e+001 0.000000e+000 -3.311286e+001
      endloop
   endfacet
   facet normal 7.785479e-001 0.000000e+000 6.275852e-001
      outer loop
         vertex -4.148251e+001 5.000000e+001 -2.932305e+001
         vertex -3.852504e+001 0.000000e+000 -3.311286e+001
         vertex -3.852504e+001 5.000000e+001 -3.311286e+001
      endloop
   endfacet
   facet normal 7.374312e-001 0.000000e+000 6.754222e-001
      outer loop
         vertex -3.852504e+001 5.000000e+001 -3.311286e+001
         vertex -3.852504e+001 0.000000e+000 -3.311286e+001
         vertex -3.522257e+001 0.000000e+000 -3.660615e+001
      endloop
   endfacet
   facet normal 7.157399e-001 0.000000e+000 6.983669e-001
      outer loop
         vertex -3.852504e+001 5.000000e+001 -3.311286e+001
         vertex -3.522257e+001 0.000000e+000 -3.660615e+001
         vertex -3.522257e+001 5.000000e+001 -3.660615e+001
      endloop
   endfacet
   facet normal 6.702856e-001 0.000000e+000 7.421032e-001
      outer loop
         vertex -3.522257e+001 5.000000e+001 -3.660615e+001
         vertex -3.522257e+001 0.000000e+000 -3.660615e+001
         vertex -3.160469e+001 0.000000e+000 -3.977164e+001
      endloop
   endfacet
   facet normal 6.465226e-001 0.000000e+000 7.628948e-001
      outer loop
         vertex -3.522257e+001 5.000000e+001 -3.660615e+001
         vertex -3.160469e+001 0.000000e+000 -3.977164e+001
         vertex -3.160469e+001 5.000000e+001 -3.977164e+001
      endloop
   endfacet
   facet normal 5.971376e-001 0.000000e+000 8.021388e-001
      outer loop
         vertex -3.160469e+001 5.000000e+001 -3.977164e+001
         vertex -3.160469e+001 0.000000e+000 -3.977164e+001
         vertex -2.770380e+001 0.000000e+000 -4.258098e+001
      endloop
   endfacet
   facet normal 5.715157e-001 0.000000e+000 8.205912e-001
      outer loop
         vertex -3.160469e+001 5.000000e+001 -3.977164e+001
         vertex -2.770380e+001 0.000000e+000 -4.258098e+001
         vertex -2.770380e+001 5.000000e+001 -4.258098e+001
      endloop
   endfacet
   facet normal 5.186424e-001 0.000000e+000 8.549913e-001
      outer loop
         vertex -2.770380e+001 5.000000e+001 -4.258098e+001
         vertex -2.770380e+001 0.000000e+000 -4.258098e+001
         vertex -2.355482e+001 0.000000e+000 -4.500901e+001
      endloop
   endfacet
   facet normal 4.913910e-001 0.000000e+000 8.709391e-001
      outer loop
         vertex -2.770380e+001 5.000000e+001 -4.258098e+001
         vertex -2.355482e+001 0.000000e+000 -4.500901e+001
         vertex -2.355482e+001 5.000000e+001 -4.500901e+001
      endloop
   endfacet
   facet normal 4.355027e-001 0.000000e+000 9.001874e-001
      outer loop
         vertex -2.355482e+001 5.000000e+001 -4.500901e+001
         vertex -2.355482e+001 0.000000e+000 -4.500901e+001
         vertex -1.919490e+001 0.000000e+000 -4.703399e+001
      endloop
   endfacet
   facet normal 4.068658e-001 0.000000e+000 9.134879e-001
      outer loop
         vertex -2.355482e+001 5.000000e+001 -4.500901e+001
         vertex -1.919490e+001 0.000000e+000 -4.703399e+001
         vertex -1.919490e+001 5.000000e+001 -4.703399e+001
      endloop
   endfacet
   facet normal 3.484631e-001 0.000000e+000 9.373224e-001
      outer loop
         vertex -1.919490e+001 5.000000e+001 -4.703399e+001
         vertex -1.919490e+001 0.000000e+000 -4.703399e+001
         vertex -1.466311e+001 0.000000e+000 -4.863778e+001
      endloop
   endfacet
   facet normal 3.186973e-001 0.000000e+000 9.478565e-001
      outer loop
         vertex -1.919490e+001 5.000000e+001 -4.703399e+001
         vertex -1.466311e+001 0.000000e+000 -4.863778e+001
         vertex -1.466311e+001 5.000000e+001 -4.863778e+001
      endloop
   endfacet
   facet normal 2.583031e-001 0.000000e+000 9.660639e-001
      outer loop
         vertex -1.466311e+001 5.000000e+001 -4.863778e+001
         vertex -1.466311e+001 0.000000e+000 -4.863778e+001
         vertex -1.000000e+001 0.000000e+000 -4.980603e+001
      endloop
   endfacet
   facet normal 2.276748e-001 0.000000e+000 9.737372e-001
      outer loop
         vertex -1.466311e+001 5.000000e+001 -4.863778e+001
         vertex -1.000000e+001 0.000000e+000 -4.980603e+001
         vertex -1.000000e+001 5.000000e+001 -4.980603e+001
      endloop
   endfacet
   facet normal -2.153186e-001 0.000000e+000 -9.765439e-001
      outer loop
         vertex -1.000000e+001 5.000000e+001 -5.306600e+001
         vertex -1.000000e+001 0.000000e+000 -5.306600e+001
         vertex -1.484860e+001 0.000000e+000 -5.191839e+001
      endloop
   endfacet
   facet normal -2.452766e-001 0.000000e+000 -9.694532e-001
      outer loop
         vertex -1.000000e+001 5.000000e+001 -5.306600e+001
         vertex -1.484860e+001 0.000000e+000 -5.191839e+001
         vertex -1.484860e+001 5.000000e+001 -5.191839e+001
      endloop
   endfacet
   facet normal -3.044114e-001 0.000000e+000 -9.525406e-001
      outer loop
         vertex -1.484860e+001 5.000000e+001 -5.191839e+001
         vertex -1.484860e+001 0.000000e+000 -5.191839e+001
         vertex -1.957078e+001 0.000000e+000 -5.032877e+001
      endloop
   endfacet
   facet normal -3.335883e-001 0.000000e+000 -9.427189e-001
      outer loop
         vertex -1.484860e+001 5.000000e+001 -5.191839e+001
         vertex -1.957078e+001 0.000000e+000 -5.032877e+001
         vertex -1.957078e+001 5.000000e+001 -5.032877e+001
      endloop
   endfacet
   facet normal -3.909126e-001 0.000000e+000 -9.204278e-001
      outer loop
         vertex -1.957078e+001 5.000000e+001 -5.032877e+001
         vertex -1.957078e+001 0.000000e+000 -5.032877e+001
         vertex -2.412634e+001 0.000000e+000 -4.831066e+001
      endloop
   endfacet
   facet normal -4.190600e-001 0.000000e+000 -9.079586e-001
      outer loop
         vertex -1.957078e+001 5.000000e+001 -5.032877e+001
         vertex -2.412634e+001 0.000000e+000 -4.831066e+001
         vertex -2.412634e+001 5.000000e+001 -4.831066e+001
      endloop
   endfacet
   facet normal -4.740857e-001 0.000000e+000 -8.804787e-001
      outer loop
         vertex -2.412634e+001 5.000000e+001 -4.831066e+001
         vertex -2.412634e+001 0.000000e+000 -4.831066e+001
         vertex -2.847650e+001 0.000000e+000 -4.588125e+001
      endloop
   endfacet
   facet normal -5.009639e-001 0.000000e+000 -8.654682e-001
      outer loop
         vertex -2.412634e+001 5.000000e+001 -4.831066e+001
         vertex -2.847650e+001 0.000000e+000 -4.588125e+001
         vertex -2.847650e+001 5.000000e+001 -4.588125e+001
      endloop
   endfacet
   facet normal -5.532225e-001 0.000000e+000 -8.330336e-001
      outer loop
         vertex -2.847650e+001 5.000000e+001 -4.588125e+001
         vertex -2.847650e+001 0.000000e+000 -4.588125e+001
         vertex -3.258422e+001 0.000000e+000 -4.306122e+001
      endloop
   endfacet
   facet normal -5.786029e-001 0.000000e+000 -8.156095e-001
      outer loop
         vertex -2.847650e+001 5.000000e+001 -4.588125e+001
         vertex -3.258422e+001 0.000000e+000 -4.306122e+001
         vertex -3.258422e+001 5.000000e+001 -4.306122e+001
      endloop
   endfacet
   facet normal -6.276494e-001 0.000000e+000 -7.784962e-001
      outer loop
         vertex -3.258422e+001 5.000000e+001 -4.306122e+001
         vertex -3.258422e+001 0.000000e+000 -4.306122e+001
         vertex -3.641453e+001 0.000000e+000 -3.987458e+001
      endloop
   endfacet
   facet normal -6.513156e-001 0.000000e+000 -7.588069e-001
      outer loop
         vertex -3.258422e+001 5.000000e+001 -4.306122e+001
         vertex -3.641453e+001 0.000000e+000 -3.987458e+001
         vertex -3.641453e+001 5.000000e+001 -3.987458e+001
      endloop
   endfacet
   facet normal -6.967326e-001 0.000000e+000 -7.173309e-001
      outer loop
         vertex -3.641453e+001 5.000000e+001 -3.987458e+001
         vertex -3.641453e+001 0.000000e+000 -3.987458e+001
         vertex -3.993481e+001 0.000000e+000 -3.634846e+001
      endloop
   endfacet
   facet normal -7.184834e-001 0.000000e+000 -6.955442e-001
      outer loop
         vertex -3.641453e+001 5.000000e+001 -3.987458e+001
         vertex -3.993481e+001 0.000000e+000 -3.634846e+001
         vertex -3.993481e+001 5.000000e+001 -3.634846e+001
      endloop
   endfacet
   facet normal -7.598841e-001 0.000000e+000 -6.500586e-001
      outer loop
         vertex -3.993481e+001 5.000000e+001 -3.634846e+001
         vertex -3.993481e+001 0.000000e+000 -3.634846e+001
         vertex -4.311510e+001 0.000000e+000 -3.251289e+001
      endloop
   endfacet
   facet normal -7.795342e-001 0.000000e+000 -6.263597e-001
      outer loop
         vertex -3.993481e+001 5.000000e+001 -3.634846e+001
         vertex -4.311510e+001 0.000000e+000 -3.251289e+001
         vertex -4.311510e+001 5.000000e+001 -3.251289e+001
      endloop
   endfacet
   facet normal -8.165663e-001 0.000000e+000 -5.772517e-001
      outer loop
         vertex -4.311510e+001 5.000000e+001 -3.251289e+001
         vertex -4.311510e+001 0.000000e+000 -3.251289e+001
         vertex -4.592833e+001 0.000000e+000 -2.840051e+001
      endloop
   endfacet
   facet normal -8.339483e-001 0.000000e+000 -5.518426e-001
      outer loop
         vertex -4.311510e+001 5.000000e+001 -3.251289e+001
         vertex -4.592833e+001 0.000000e+000 -2.840051e+001
         vertex -4.592833e+001 5.000000e+001 -2.840051e+001
      endloop
   endfacet
   facet normal -8.662964e-001 0.000000e+000 -4.995305e-001
      outer loop
         vertex -4.592833e+001 5.000000e+001 -2.840051e+001
         vertex -4.592833e+001 0.000000e+000 -2.840051e+001
         vertex -4.835053e+001 0.000000e+000 -2.404633e+001
      endloop
   endfacet
   facet normal -8.812624e-001 0.000000e+000 -4.726274e-001
      outer loop
         vertex -4.592833e+001 5.000000e+001 -2.840051e+001
         vertex -4.835053e+001 0.000000e+000 -2.404633e+001
         vertex -4.835053e+001 5.000000e+001 -2.404633e+001
      endloop
   endfacet
   facet normal -9.086511e-001 0.000000e+000 -4.175563e-001
      outer loop
         vertex -4.835053e+001 5.000000e+001 -2.404633e+001
         vertex -4.835053e+001 0.000000e+000 -2.404633e+001
         vertex -5.036110e+001 0.000000e+000 -1.948743e+001
      endloop
   endfacet
   facet normal -9.210737e-001 0.000000e+000 -3.893882e-001
      outer loop
         vertex -4.835053e+001 5.000000e+001 -2.404633e+001
         vertex -5.036110e+001 0.000000e+000 -1.948743e+001
         vertex -5.036110e+001 5.000000e+001 -1.948743e+001
      endloop
   endfacet
   facet normal -9.432698e-001 0.000000e+000 -3.320272e-001
      outer loop
         vertex -5.036110e+001 5.000000e+001 -1.948743e+001
         vertex -5.036110e+001 0.000000e+000 -1.948743e+001
         vertex -5.194290e+001 0.000000e+000 -1.476263e+001
      endloop
   endfacet
   facet normal -9.530433e-001 0.000000e+000 -3.028341e-001
      outer loop
         vertex -5.036110e+001 5.000000e+001 -1.948743e+001
         vertex -5.194290e+001 0.000000e+000 -1.476263e+001
         vertex -5.194290e+001 5.000000e+001 -1.476263e+001
      endloop
   endfacet
   facet normal -9.698579e-001 0.000000e+000 -2.436713e-001
      outer loop
         vertex -5.194290e+001 5.000000e+001 -1.476263e+001
         vertex -5.194290e+001 0.000000e+000 -1.476263e+001
         vertex -5.308248e+001 0.000000e+000 -9.912136e+000
      endloop
   endfacet
   facet normal -9.768990e-001 0.000000e+000 -2.137016e-001
      outer loop
         vertex -5.194290e+001 5.000000e+001 -1.476263e+001
         vertex -5.308248e+001 0.000000e+000 -9.912136e+000
         vertex -5.308248e+001 5.000000e+001 -9.912136e+000
      endloop
   endfacet
   facet normal -9.881889e-001 0.000000e+000 -1.532409e-001
      outer loop
         vertex -5.308248e+001 5.000000e+001 -9.912136e+000
         vertex -5.308248e+001 0.000000e+000 -9.912136e+000
         vertex -5.377013e+001 0.000000e+000 -4.977255e+000
      endloop
   endfacet
   facet normal -9.924377e-001 0.000000e+000 -1.227498e-001
      outer loop
         vertex -5.308248e+001 5.000000e+001 -9.912136e+000
         vertex -5.377013e+001 0.000000e+000 -4.977255e+000
         vertex -5.377013e+001 5.000000e+001 -4.977255e+000
      endloop
   endfacet
   facet normal -9.981067e-001 0.000000e+000 -6.150580e-002
      outer loop
         vertex -5.377013e+001 5.000000e+001 -4.977255e+000
         vertex -5.377013e+001 0.000000e+000 -4.977255e+000
         vertex -5.400000e+001 0.000000e+000 9.919639e-015
      endloop
   endfacet
   facet normal -9.995270e-001 0.000000e+000 -3.075290e-002
      outer loop
         vertex -5.377013e+001 5.000000e+001 -4.977255e+000
         vertex -5.400000e+001 0.000000e+000 9.919639e-015
         vertex -5.400000e+001 5.000000e+001 9.919639e-015
      endloop
   endfacet
   facet normal -9.995270e-001 0.000000e+000 3.075290e-002
      outer loop
         vertex -5.400000e+001 5.000000e+001 9.919639e-015
         vertex -5.400000e+001 0.000000e+000 9.919639e-015
         vertex -5.377013e+001 0.000000e+000 4.977255e+000
      endloop
   endfacet
   facet normal -9.981067e-001 0.000000e+000 6.150580e-002
      outer loop
         vertex -5.400000e+001 5.000000e+001 9.919639e-015
         vertex -5.377013e+001 0.000000e+000 4.977255e+000
         vertex -5.377013e+001 5.000000e+001 4.977255e+000
      endloop
   endfacet
   facet normal -9.924377e-001 0.000000e+000 1.227498e-001
      outer loop
         vertex -5.377013e+001 5.000000e+001 4.977255e+000
         vertex -5.377013e+001 0.000000e+000 4.977255e+000
         vertex -5.308248e+001 0.000000e+000 9.912136e+000
      endloop
   endfacet
   facet normal -9.881889e-001 0.000000e+000 1.532409e-001
      outer loop
         vertex -5.377013e+001 5.000000e+001 4.977255e+000
         vertex -5.308248e+001 0.000000e+000 9.912136e+000
         vertex -5.308248e+001 5.000000e+001 9.912136e+000
      endloop
   endfacet
   facet normal -9.768990e-001 0.000000e+000 2.137016e-001
      outer loop
         vertex -5.308248e+001 5.000000e+001 9.912136e+000
         vertex -5.308248e+001 0.000000e+000 9.912136e+000
         vertex -5.194290e+001 0.000000e+000 1.476263e+001
      endloop
   endfacet
   facet normal -9.698579e-001 0.000000e+000 2.436713e-001
      outer loop
         vertex -5.308248e+001 5.000000e+001 9.912136e+000
         vertex -5.194290e+001 0.000000e+000 1.476263e+001
         vertex -5.194290e+001 5.000000e+001 1.476263e+001
      endloop
   endfacet
   facet normal -9.530433e-001 0.000000e+000 3.028341e-001
      outer loop
         vertex -5.194290e+001 5.000000e+001 1.476263e+001
         vertex -5.194290e+001 0.000000e+000 1.476263e+001
         vertex -5.036110e+001 0.000000e+000 1.948743e+001
      endloop
   endfacet
   facet normal -9.432698e-001 0.000000e+000 3.320272e-001
      outer loop
         vertex -5.194290e+001 5.000000e+001 1.476263e+001
         vertex -5.036110e+001 0.000000e+000 1.948743e+001
         vertex -5.036110e+001 5.000000e+001 1.948743e+001
      endloop
   endfacet
   facet normal -9.210737e-001 0.000000e+000 3.893882e-001
      outer loop
         vertex -5.036110e+001 5.000000e+001 1.948743e+001
         vertex -5.036110e+001 0.000000e+000 1.948743e+001
         vertex -4.835053e+001 0.000000e+000 2.404633e+001
      endloop
   endfacet
   facet normal -9.086511e-001 0.000000e+000 4.175563e-001
      outer loop
         vertex -5.036110e+001 5.000000e+001 1.948743e+001
         vertex -4.835053e+001 0.000000e+000 2.404633e+001
         vertex -4.835053e+001 5.000000e+001 2.404633e+001
      endloop
   endfacet
   facet normal -8.812624e-001 0.000000e+000 4.726274e-001
      outer loop
         vertex -4.835053e+001 5.000000e+001 2.404633e+001
         vertex -4.835053e+001 0.000000e+000 2.404633e+001
         vertex -4.592833e+001 0.000000e+000 2.840051e+001
      endloop
   endfacet
   facet normal -8.662964e-001 0.000000e+000 4.995305e-001
      outer loop
         vertex -4.835053e+001 5.000000e+001 2.404633e+001
         vertex -4.592833e+001 0.000000e+000 2.840051e+001
         vertex -4.592833e+001 5.000000e+001 2.840051e+001
      endloop
   endfacet
   facet normal -8.339483e-001 0.000000e+000 5.518427e-001
      outer loop
         vertex -4.592833e+001 5.000000e+001 2.840051e+001
         vertex -4.592833e+001 0.000000e+000 2.840051e+001
         vertex -4.311510e+001 0.000000e+000 3.251289e+001
      endloop
   endfacet
   facet normal -8.165663e-001 0.000000e+000 5.772517e-001
      outer loop
         vertex -4.592833e+001 5.000000e+001 2.840051e+001
         vertex -4.311510e+001 0.000000e+000 3.251289e+001
         vertex -4.311510e+001 5.000000e+001 3.251289e+001
      endloop
   endfacet
   facet normal -7.795342e-001 0.000000e+000 6.263598e-001
      outer loop
         vertex -4.311510e+001 5.000000e+001 3.251289e+001
         vertex -4.311510e+001 0.000000e+000 3.251289e+001
         vertex -3.993481e+001 0.000000e+000 3.634846e+001
      endloop
   endfacet
   facet normal -7.598841e-001 0.000000e+000 6.500586e-001
      outer loop
         vertex -4.311510e+001 5.000000e+001 3.251289e+001
         vertex -3.993481e+001 0.000000e+000 3.634846e+001
         vertex -3.993481e+001 5.000000e+001 3.634846e+001
      endloop
   endfacet
   facet normal -7.184834e-001 0.000000e+000 6.955442e-001
      outer loop
         vertex -3.993481e+001 5.000000e+001 3.634846e+001
         vertex -3.993481e+001 0.000000e+000 3.634846e+001
         vertex -3.641453e+001 0.000000e+000 3.987458e+001
      endloop
   endfacet
   facet normal -6.967326e-001 0.000000e+000 7.173309e-001
      outer loop
         vertex -3.993481e+001 5.000000e+001 3.634846e+001
         vertex -3.641453e+001 0.000000e+000 3.987458e+001
         vertex -3.641453e+001 5.000000e+001 3.987458e+001
      endloop
   endfacet
   facet normal -6.513156e-001 0.000000e+000 7.588069e-001
      outer loop
         vertex -3.641453e+001 5.000000e+001 3.987458e+001
         vertex -3.641453e+001 0.000000e+000 3.987458e+001
         vertex -3.258422e+001 0.000000e+000 4.306122e+001
      endloop
   endfacet
   facet normal -6.276494e-001 0.000000e+000 7.784962e-001
      outer loop
         vertex -3.641453e+001 5.000000e+001 3.987458e+001
         vertex -3.258422e+001 0.000000e+000 4.306122e+001
         vertex -3.258422e+001 5.000000e+001 4.306122e+001
      endloop
   endfacet
   facet normal -5.786029e-001 0.000000e+000 8.156095e-001
      outer loop
         vertex -3.258422e+001 5.000000e+001 4.306122e+001
         vertex -3.258422e+001 0.000000e+000 4.306122e+001
         vertex -2.847650e+001 0.000000e+000 4.588125e+001
      endloop
   endfacet
   facet normal -5.532225e-001 0.000000e+000 8.330336e-001
      outer loop
         vertex -3.258422e+001 5.000000e+001 4.306122e+001
         vertex -2.847650e+001 0.000000e+000 4.588125e+001
         vertex -2.847650e+001 5.000000e+001 4.588125e+001
      endloop
   endfacet
   facet normal -5.009639e-001 0.000000e+000 8.654682e-001
      outer loop
         vertex -2.847650e+001 5.000000e+001 4.588125e+001
         vertex -2.847650e+001 0.000000e+000 4.588125e+001
         vertex -2.412634e+001 0.000000e+000 4.831066e+001
      endloop
   endfacet
   facet normal -4.740857e-001 0.000000e+000 8.804787e-001
      outer loop
         vertex -2.847650e+001 5.000000e+001 4.588125e+001
         vertex -2.412634e+001 0.000000e+000 4.831066e+001
         vertex -2.412634e+001 5.000000e+001 4.831066e+001
      endloop
   endfacet
   facet normal -4.190600e-001 0.000000e+000 9.079586e-001
      outer loop
         vertex -2.412634e+001 5.000000e+001 4.831066e+001
         vertex -2.412634e+001 0.000000e+000 4.831066e+001
         vertex -1.957078e+001 0.000000e+000 5.032877e+001
      endloop
   endfacet
   facet normal -3.909126e-001 0.000000e+000 9.204278e-001
      outer loop
         vertex -2.412634e+001 5.000000e+001 4.831066e+001
         vertex -1.957078e+001 0.000000e+000 5.032877e+001
         vertex -1.957078e+001 5.000000e+001 5.032877e+001
      endloop
   endfacet
   facet normal -3.335883e-001 0.000000e+000 9.427189e-001
      outer loop
         vertex -1.957078e+001 5.000000e+001 5.032877e+001
         vertex -1.957078e+001 0.000000e+000 5.032877e+001
         vertex -1.484860e+001 0.000000e+000 5.191839e+001
      endloop
   endfacet
   facet normal -3.044114e-001 0.000000e+000 9.525406e-001
      outer loop
         vertex -1.957078e+001 5.000000e+001 5.032877e+001
         vertex -1.484860e+001 0.000000e+000 5.191839e+001
         vertex -1.484860e+001 5.000000e+001 5.191839e+001
      endloop
   endfacet
   facet normal -2.452766e-001 0.000000e+000 9.694532e-001
      outer loop
         vertex -1.484860e+001 5.000000e+001 5.191839e+001
         vertex -1.484860e+001 0.000000e+000 5.191839e+001
         vertex -1.000000e+001 0.000000e+000 5.306600e+001
      endloop
   endfacet
   facet normal -2.153186e-001 0.000000e+000 9.765439e-001
      outer loop
         vertex -1.484860e+001 5.000000e+001 5.191839e+001
         vertex -1.000000e+001 0.000000e+000 5.306600e+001
         vertex -1.000000e+001 5.000000e+001 5.306600e+001
      endloop
   endfacet
   facet normal 0.000000e+000 1.000000e+000 0.000000e+000
      outer loop
         vertex -1.000000e+001 5.000000e+001 5.306600e+001
         vertex -1.000000e+001 5.000000e+001 4.980603e+001
         vertex -1.484860e+001 5.000000e+001 5.191839e+001
      endloop
   endfacet
   facet normal 0.000000e+000 1.000000e+000 0.000000e+000
      outer loop
         vertex -1.484860e+001 5.000000e+001 5.191839e+001
         vertex -1.000000e+001 5.000000e+001 4.980603e+001
         vertex -1.466311e+001 5.000000e+001 4.863778e+001
      endloop
   endfacet
   facet normal 0.000000e+000 1.000000e+000 0.000000e+000
      outer loop
         vertex -1.484860e+001 5.000000e+001 5.191839e+001
         vertex -1.466311e+001 5.000000e+001 4.863778e+001
         vertex -1.957078e+001 5.000000e+001 5.032877e+001
      endloop
   endfacet
   facet normal 0.000000e+000 1.000000e+000 0.000000e+000
      outer loop
         vertex -1.957078e+001 5.000000e+001 5.032877e+001
         vertex -1.466311e+001 5.000000e+001 4.863778e+001
         vertex -1.919490e+001 5.000000e+001 4.703399e+001
      endloop
   endfacet
   facet normal 0.000000e+000 1.000000e+000 0.000000e+000
      outer loop
         vertex -1.957078e+001 5.000000e+001 5.032877e+001
         vertex -1.919490e+001 5.000000e+001 4.703399e+001
         vertex -2.412634e+001 5.000000e+001 4.831066e+001
      endloop
   endfacet
   facet normal 0.000000e+000 1.000000e+000 0.000000e+000
      outer loop
         vertex -2.412634e+001 5.000000e+001 4.831066e+001
         vertex -1.919490e+001 5.000000e+001 4.703399e+001
         vertex -2.355482e+001 5.000000e+001 4.500901e+001
      endloop
   endfacet
   facet normal 0.000000e+000 1.000000e+000 0.000000e+000
      outer loop
         vertex -2.412634e+001 5.000000e+001 4.831066e+001
         vertex -2.355482e+001 5.000000e+001 4.500901e+001
         vertex -2.847650e+001 5.000000e+001 4.588125e+001
      endloop
   endfacet
   facet normal 0.000000e+000 1.000000e+000 0.000000e+000
      outer loop
         vertex -2.847650e+001 5.000000e+001 4.588125e+001
         vertex -2.355482e+001 5.000000e+001 4.500901e+001
         vertex -2.770380e+001 5.000000e+001 4.258098e+001
      endloop
   endfacet
   facet normal 0.000000e+000 1.000000e+000 0.000000e+000
      outer loop
         vertex -2.847650e+001 5.000000e+001 4.588125e+001
         vertex -2.770380e+001 5.000000e+001 4.258098e+001
         vertex -3.258422e+001 5.000000e+001 4.306122e+001
      endloop
   endfacet
   facet normal 0.000000e+000 1.000000e+000 0.000000e+000
      outer loop
         vertex -3.258422e+001 5.000000e+001 4.306122e+001
         vertex -2.770380e+001 5.000000e+001 4.258098e+001
         vertex -3.160469e+001 5.000000e+001 3.977164e+001
      endloop
   endfacet
   facet normal 0.000000e+000 1.000000e+000 0.000000e+000
      outer loop
         vertex -3.258422e+001 5.000000e+001 4.306122e+001
         vertex -3.160469e+001 5.000000e+001 3.977164e+001
         vertex -3.641453e+001 5.000000e+001 3.987458e+001
      endloop
   endfacet
   facet normal 0.000000e+000 1.000000e+000 0.000000e+000
      outer loop
         vertex -3.641453e+001 5.000000e+001 3.987458e+001
         vertex -3.160469e+001 5.000000e+001 3.977164e+001
         vertex -3.522257e+001 5.000000e+001 3.660615e+001
      endloop
   endfacet
   facet normal 0.000000e+000 1.000000e+000 0.000000e+000
      outer loop
         vertex -3.641453e+001 5.000000e+001 3.987458e+001
         vertex -3.522257e+001 5.000000e+001 3.660615e+001
         vertex -3.993481e+001 5.000000e+001 3.634846e+001
      endloop
   endfacet
   facet normal 0.000000e+000 1.000000e+000 0.000000e+000
      outer loop
         vertex -3.993481e+001 5.000000e+001 3.634846e+001
         vertex -3.522257e+001 5.000000e+001 3.660615e+001
         vertex -3.852504e+001 5.000000e+001 3.311286e+001
      endloop
   endfacet
   facet normal 0.000000e+000 1.000000e+000 0.000000e+000
      outer loop
         vertex -3.993481e+001 5.000000e+001 3.634846e+001
         vertex -3.852504e+001 5.000000e+001 3.311286e+001
         vertex -4.311510e+001 5.000000e+001 3.251289e+001
      endloop
   endfacet
   facet normal 0.000000e+000 1.000000e+000 0.000000e+000
      outer loop
         vertex -4.311510e+001 5.000000e+001 3.251289e+001
         vertex -3.852504e+001 5.000000e+001 3.311286e+001
         vertex -4.148251e+001 5.000000e+001 2.932305e+001
      endloop
   endfacet
   facet normal 0.000000e+000 1.000000e+000 0.000000e+000
      outer loop
         vertex -4.311510e+001 5.000000e+001 3.251289e+001
         vertex -4.148251e+001 5.000000e+001 2.932305e+001
         vertex -4.592833e+001 5.000000e+001 2.840051e+001
      endloop
   endfacet
   facet normal 0.000000e+000 1.000000e+000 0.000000e+000
      outer loop
         vertex -4.592833e+001 5.000000e+001 2.840051e+001
         vertex -4.148251e+001 5.000000e+001 2.932305e+001
         vertex -4.406852e+001 5.000000e+001 2.527065e+001
      endloop
   endfacet
   facet normal 0.000000e+000 1.000000e+000 0.000000e+000
      outer loop
         vertex -4.592833e+001 5.000000e+001 2.840051e+001
         vertex -4.406852e+001 5.000000e+001 2.527065e+001
         vertex -4.835053e+001 5.000000e+001 2.404633e+001
      endloop
   endfacet
   facet normal 0.000000e+000 1.000000e+000 0.000000e+000
      outer loop
         vertex -4.835053e+001 5.000000e+001 2.404633e+001
         vertex -4.406852e+001 5.000000e+001 2.527065e+001
         vertex -4.625990e+001 5.000000e+001 2.099195e+001
      endloop
   endfacet
   facet normal 0.000000e+000 1.000000e+000 0.000000e+000
      outer loop
         vertex -4.835053e+001 5.000000e+001 2.404633e+001
         vertex -4.625990e+001 5.000000e+001 2.099195e+001
         vertex -5.036110e+001 5.000000e+001 1.948743e+001
      endloop
   endfacet
   facet normal 0.000000e+000 1.000000e+000 0.000000e+000
      outer loop
         vertex -5.036110e+001 5.000000e+001 1.948743e+001
         vertex -4.625990e+001 5.000000e+001 2.099195e+001
         vertex -4.803702e+001 5.000000e+001 1.652528e+001
      endloop
   endfacet
   facet normal 0.000000e+000 1.000000e+000 0.000000e+000
      outer loop
         vertex -5.036110e+001 5.000000e+001 1.948743e+001
         vertex -4.803702e+001 5.000000e+001 1.652528e+001
         vertex -5.194290e+001 5.000000e+001 1.476263e+001
      endloop
   endfacet
   facet normal 0.000000e+000 1.000000e+000 0.000000e+000
      outer loop
         vertex -5.194290e+001 5.000000e+001 1.476263e+001
         vertex -4.803702e+001 5.000000e+001 1.652528e+001
         vertex -4.938398e+001 5.000000e+001 1.191062e+001
      endloop
   endfacet
   facet normal 0.000000e+000 1.000000e+000 0.000000e+000
      outer loop
         vertex -5.194290e+001 5.000000e+001 1.476263e+001
         vertex -4.938398e+001 5.000000e+001 1.191062e+001
         vertex -5.308248e+001 5.000000e+001 9.912136e+000
      endloop
   endfacet
   facet normal 0.000000e+000 1.000000e+000 0.000000e+000
      outer loop
         vertex -5.308248e+001 5.000000e+001 9.912136e+000
         vertex -4.938398e+001 5.000000e+001 1.191062e+001
         vertex -5.028871e+001 5.000000e+001 7.189305e+000
      endloop
   endfacet
   facet normal 0.000000e+000 1.000000e+000 0.000000e+000
      outer loop
         vertex -5.308248e+001 5.000000e+001 9.912136e+000
         vertex -5.028871e+001 5.000000e+001 7.189305e+000
         vertex -5.377013e+001 5.000000e+001 4.977255e+000
      endloop
   endfacet
   facet normal 0.000000e+000 1.000000e+000 0.000000e+000
      outer loop
         vertex -5.377013e+001 5.000000e+001 4.977255e+000
         vertex -5.028871e+001 5.000000e+001 7.189305e+000
         vertex -5.074310e+001 5.000000e+001 2.403610e+000
      endloop
   endfacet
   facet normal 0.000000e+000 1.000000e+000 0.000000e+000
      outer loop
         vertex -5.377013e+001 5.000000e+001 4.977255e+000
         vertex -5.074310e+001 5.000000e+001 2.403610e+000
         vertex -5.400000e+001 5.000000e+001 9.919639e-015
      endloop
   endfacet
   facet normal 0.000000e+000 1.000000e+000 0.000000e+000
      outer loop
         vertex -5.400000e+001 5.000000e+001 9.919639e-015
         vertex -5.074310e+001 5.000000e+001 2.403610e+000
         vertex -5.074310e+001 5.000000e+001 -2.403610e+000
      endloop
   endfacet
   facet normal 0.000000e+000 1.000000e+000 0.000000e+000
      outer loop
         vertex -1.000000e+001 5.000000e+001 -4.980603e+001
         vertex -1.000000e+001 5.000000e+001 -5.306600e+001
         vertex -1.466311e+001 5.000000e+001 -4.863778e+001
      endloop
   endfacet
   facet normal 0.000000e+000 1.000000e+000 0.000000e+000
      outer loop
         vertex -1.466311e+001 5.000000e+001 -4.863778e+001
         vertex -1.000000e+001 5.000000e+001 -5.306600e+001
         vertex -1.484860e+001 5.000000e+001 -5.191839e+001
      endloop
   endfacet
   facet normal 0.000000e+000 1.000000e+000 0.000000e+000
      outer loop
         vertex -1.466311e+001 5.000000e+001 -4.863778e+001
         vertex -1.484860e+001 5.000000e+001 -5.191839e+001
         vertex -1.919490e+001 5.000000e+001 -4.703399e+001
      endloop
   endfacet
   facet normal 0.000000e+000 1.000000e+000 0.000000e+000
      outer loop
         vertex -1.919490e+001 5.000000e+001 -4.703399e+001
         vertex -1.484860e+001 5.000000e+001 -5.191839e+001
         vertex -1.957078e+001 5.000000e+001 -5.032877e+001
      endloop
   endfacet
   facet normal 0.000000e+000 1.000000e+000 0.000000e+000
      outer loop
         vertex -1.919490e+001 5.000000e+001 -4.703399e+001
         vertex -1.957078e+001 5.000000e+001 -5.032877e+001
         vertex -2.355482e+001 5.000000e+001 -4.500901e+001
      endloop
   endfacet
   facet normal 0.000000e+000 1.000000e+000 0.000000e+000
      outer loop
         vertex -2.355482e+001 5.000000e+001 -4.500901e+001
         vertex -1.957078e+001 5.000000e+001 -5.032877e+001
         vertex -2.412634e+001 5.000000e+001 -4.831066e+001
      endloop
   endfacet
   facet normal 0.000000e+000 1.000000e+000 0.000000e+000
      outer loop
         vertex -2.355482e+001 5.000000e+001 -4.500901e+001
         vertex -2.412634e+001 5.000000e+001 -4.831066e+001
         vertex -2.770380e+001 5.000000e+001 -4.258098e+001
      endloop
   endfacet
   facet normal 0.000000e+000 1.000000e+000 0.000000e+000
      outer loop
         vertex -2.770380e+001 5.000000e+001 -4.258098e+001
         vertex -2.412634e+001 5.000000e+001 -4.831066e+001
         vertex -2.847650e+001 5.000000e+001 -4.588125e+001
      endloop
   endfacet
   facet normal 0.000000e+000 1.000000e+000 0.000000e+000
      outer loop
         vertex -2.770380e+001 5.000000e+001 -4.258098e+001
         vertex -2.847650e+001 5.000000e+001 -4.588125e+001
         vertex -3.160469e+001 5.000000e+001 -3.977164e+001
      endloop
   endfacet
   facet normal 0.000000e+000 1.000000e+000 0.000000e+000
      outer loop
         vertex -3.160469e+001 5.000000e+001 -3.977164e+001
         vertex -2.847650e+001 5.000000e+001 -4.588125e+001
         vertex -3.258422e+001 5.000000e+001 -4.306122e+001
      endloop
   endfacet
   facet normal 0.000000e+000 1.000000e+000 0.000000e+000
      outer loop
         vertex -3.160469e+001 5.000000e+001 -3.977164e+001
         vertex -3.258422e+001 5.000000e+001 -4.306122e+001
         vertex -3.522257e+001 5.000000e+001 -3.660615e+001
      endloop
   endfacet
   facet normal 0.000000e+000 1.000000e+000 0.000000e+000
      outer loop
         vertex -3.522257e+001 5.000000e+001 -3.660615e+001
         vertex -3.258422e+001 5.000000e+001 -4.306122e+001
         vertex -3.641453e+001 5.000000e+001 -3.987458e+001
      endloop
   endfacet
   facet normal 0.000000e+000 1.000000e+000 0.000000e+000
      outer loop
         vertex -3.522257e+001 5.000000e+001 -3.660615e+001
         vertex -3.641453e+001 5.000000e+001 -3.987458e+001
         vertex -3.852504e+001 5.000000e+001 -3.311286e+001
      endloop
   endfacet
   facet normal 0.000000e+000 1.000000e+000 0.000000e+000
      outer loop
         vertex -3.852504e+001 5.000000e+001 -3.311286e+001
         vertex -3.641453e+001 5.000000e+001 -3.987458e+001
         vertex -3.993481e+001 5.000000e+001 -3.634846e+001
      endloop
   endfacet
   facet normal 0.000000e+000 1.000000e+000 0.000000e+000
      outer loop
         vertex -3.852504e+001 5.000000e+001 -3.311286e+001
         vertex -3.993481e+001 5.000000e+001 -3.634846e+001
         vertex -4.148251e+001 5.000000e+001 -2.932305e+001
      endloop
   endfacet
   facet normal 0.000000e+000 1.000000e+000 0.000000e+000
      outer loop
         vertex -4.148251e+001 5.000000e+001 -2.932305e+001
         vertex -3.993481e+001 5.000000e+001 -3.634846e+001
         vertex -4.311510e+001 5.000000e+001 -3.251289e+001
      endloop
   endfacet
   facet normal 0.000000e+000 1.000000e+000 0.000000e+000
      outer loop
         vertex -4.148251e+001 5.000000e+001 -2.932305e+001
         vertex -4.311510e+001 5.000000e+001 -3.251289e+001
         vertex -4.406852e+001 5.000000e+001 -2.527065e+001
      endloop
   endfacet
   facet normal 0.000000e+000 1.000000e+000 0.000000e+000
      outer loop
         vertex -4.406852e+001 5.000000e+001 -2.527065e+001
         vertex -4.311510e+001 5.000000e+001 -3.251289e+001
         vertex -4.592833e+001 5.000000e+001 -2.840051e+001
      endloop
   endfacet
   facet normal 0.000000e+000 1.000000e+000 0.000000e+000
      outer loop
         vertex -4.406852e+001 5.000000e+001 -2.527065e+001
         vertex -4.592833e+001 5.000000e+001 -2.840051e+001
         vertex -4.625990e+001 5.000000e+001 -2.099195e+001
      endloop
   endfacet
   facet normal 0.000000e+000 1.000000e+000 0.000000e+000
      outer loop
         vertex -4.625990e+001 5.000000e+001 -2.099195e+001
         vertex -4.592833e+001 5.000000e+001 -2.840051e+001
         vertex -4.835053e+001 5.000000e+001 -2.404633e+001
      endloop
   endfacet
   facet normal 0.000000e+000 1.000000e+000 0.000000e+000
      outer loop
         vertex -4.625990e+001 5.000000e+001 -2.099195e+001
         vertex -4.835053e+001 5.000000e+001 -2.404633e+001
         vertex -4.803702e+001 5.000000e+001 -1.652528e+001
      endloop
   endfacet
   facet normal 0.000000e+000 1.000000e+000 0.000000e+000
      outer loop
         vertex -4.803702e+001 5.000000e+001 -1.652528e+001
         vertex -4.835053e+001 5.000000e+001 -2.404633e+001
         vertex -5.036110e+001 5.000000e+001 -1.948743e+001
      endloop
   endfacet
   facet normal 0.000000e+000 1.000000e+000 0.000000e+000
      outer loop
         vertex -4.803702e+001 5.000000e+001 -1.652528e+001
         vertex -5.036110e+001 5.000000e+001 -1.948743e+001
         vertex -4.938398e+001 5.000000e+001 -1.191062e+001
      endloop
   endfacet
   facet normal 0.000000e+000 1.000000e+000 0.000000e+000
      outer loop
         vertex -4.938398e+001 5.000000e+001 -1.191062e+001
         vertex -5.036110e+001 5.000000e+001 -1.948743e+001
         vertex -5.194290e+001 5.000000e+001 -1.476263e+001
      endloop
   endfacet
   facet normal 0.000000e+000 1.000000e+000 0.000000e+000
      outer loop
         vertex -4.938398e+001 5.000000e+001 -1.191062e+001
         vertex -5.194290e+001 5.000000e+001 -1.476263e+001
         vertex -5.028871e+001 5.000000e+001 -7.189305e+000
      endloop
   endfacet
   facet normal 0.000000e+000 1.000000e+000 0.000000e+000
      outer loop
         vertex -5.028871e+001 5.000000e+001 -7.189305e+000
         vertex -5.194290e+001 5.000000e+001 -1.476263e+001
         vertex -5.308248e+001 5.000000e+001 -9.912136e+000
      endloop
   endfacet
   facet normal 0.000000e+000 1.000000e+000 0.000000e+000
      outer loop
         vertex -5.028871e+001 5.000000e+001 -7.189305e+000
         vertex -5.308248e+001 5.000000e+001 -9.912136e+000
         vertex -5.074310e+001 5.000000e+001 -2.403610e+000
      endloop
   endfacet
   facet normal 0.000000e+000 1.000000e+000 0.000000e+000
      outer loop
         vertex -5.074310e+001 5.000000e+001 -2.403610e+000
         vertex -5.308248e+001 5.000000e+001 -9.912136e+000
         vertex -5.377013e+001 5.000000e+001 -4.977255e+000
      endloop
   endfacet
   facet normal 0.000000e+000 1.000000e+000 0.000000e+000
      outer loop
         vertex -5.074310e+001 5.000000e+001 -2.403610e+000
         vertex -5.377013e+001 5.000000e+001 -4.977255e+000
         vertex -5.400000e+001 5.000000e+001 9.919639e-015
      endloop
   endfacet
   facet normal 0.000000e+000 -1.000000e+000 0.000000e+000
      outer loop
         vertex -5.074310e+001 0.000000e+000 -2.403610e+000
         vertex -5.377013e+001 0.000000e+000 -4.977255e+000
         vertex -5.028871e+001 0.000000e+000 -7.189305e+000
      endloop
   endfacet
   facet normal 0.000000e+000 -1.000000e+000 0.000000e+000
      outer loop
         vertex -5.028871e+001 0.000000e+000 -7.189305e+000
         vertex -5.377013e+001 0.000000e+000 -4.977255e+000
         vertex -5.308248e+001 0.000000e+000 -9.912136e+000
      endloop
   endfacet
   facet normal 0.000000e+000 -1.000000e+000 0.000000e+000
      outer loop
         vertex -5.028871e+001 0.000000e+000 -7.189305e+000
         vertex -5.308248e+001 0.000000e+000 -9.912136e+000
         vertex -4.938398e+001 0.000000e+000 -1.191062e+001
      endloop
   endfacet
   facet normal 0.000000e+000 -1.000000e+000 0.000000e+000
      outer loop
         vertex -4.938398e+001 0.000000e+000 -1.191062e+001
         vertex -5.308248e+001 0.000000e+000 -9.912136e+000
         vertex -5.194290e+001 0.000000e+000 -1.476263e+001
      endloop
   endfacet
   facet normal 0.000000e+000 -1.000000e+000 0.000000e+000
      outer loop
         vertex -4.938398e+001 0.000000e+000 -1.191062e+001
         vertex -5.194290e+001 0.000000e+000 -1.476263e+001
         vertex -4.803702e+001 0.000000e+000 -1.652528e+001
      endloop
   endfacet
   facet normal 0.000000e+000 -1.000000e+000 0.000000e+000
      outer loop
         vertex -4.803702e+001 0.000000e+000 -1.652528e+001
         vertex -5.194290e+001 0.000000e+000 -1.476263e+001
         vertex -5.036110e+001 0.000000e+000 -1.948743e+001
      endloop
   endfacet
   facet normal 0.000000e+000 -1.000000e+000 0.000000e+000
      outer loop
         vertex -4.803702e+001 0.000000e+000 -1.652528e+001
         vertex -5.036110e+001 0.000000e+000 -1.948743e+001
         vertex -4.625990e+001 0.000000e+000 -2.099195e+001
      endloop
   endfacet
   facet normal 0.000000e+000 -1.000000e+000 0.000000e+000
      outer loop
         vertex -4.625990e+001 0.000000e+000 -2.099195e+001
         vertex -5.036110e+001 0.000000e+000 -1.948743e+001
         vertex -4.835053e+001 0.000000e+000 -2.404633e+001
      endloop
   endfacet
   facet normal 0.000000e+000 -1.000000e+000 0.000000e+000
      outer loop
         vertex -4.625990e+001 0.000000e+000 -2.099195e+001
         vertex -4.835053e+001 0.000000e+000 -2.404633e+001
         vertex -4.406852e+001 0.000000e+000 -2.527065e+001
      endloop
   endfacet
   facet normal 0.000000e+000 -1.000000e+000 0.000000e+000
      outer loop
         vertex -4.406852e+001 0.000000e+000 -2.527065e+001
         vertex -4.835053e+001 0.000000e+000 -2.404633e+001
         vertex -4.592833e+001 0.000000e+000 -2.840051e+001
      endloop
   endfacet
   facet normal 0.000000e+000 -1.000000e+000 0.000000e+000
      outer loop
         vertex -4.406852e+001 0.000000e+000 -2.527065e+001
         vertex -4.592833e+001 0.000000e+000 -2.840051e+001
         vertex -4.148251e+001 0.000000e+000 -2.932305e+001
      endloop
   endfacet
   facet normal 0.000000e+000 -1.000000e+000 0.000000e+000
      outer loop
         vertex -4.148251e+001 0.000000e+000 -2.932305e+001
         vertex -4.592833e+001 0.000000e+000 -2.840051e+001
         vertex -4.311510e+001 0.000000e+000 -3.251289e+001
      endloop
   endfacet
   facet normal 0.000000e+000 -1.000000e+000 0.000000e+000
      outer loop
         vertex -4.148251e+001 0.000000e+000 -2.932305e+001
         vertex -4.311510e+001 0.000000e+000 -3.251289e+001
         vertex -3.852504e+001 0.000000e+000 -3.311286e+001
      endloop
   endfacet
   facet normal 0.000000e+000 -1.000000e+000 0.000000e+000
      outer loop
         vertex -3.852504e+001 0.000000e+000 -3.311286e+001
         vertex -4.311510e+001 0.000000e+000 -3.251289e+001
         vertex -3.993481e+001 0.000000e+000 -3.634846e+001
      endloop
   endfacet
   facet normal 0.000000e+000 -1.000000e+000 0.000000e+000
      outer loop
         vertex -3.852504e+001 0.000000e+000 -3.311286e+001
         vertex -3.993481e+001 0.000000e+000 -3.634846e+001
         vertex -3.522257e+001 0.000000e+000 -3.660615e+001
      endloop
   endfacet
   facet normal 0.000000e+000 -1.000000e+000 0.000000e+000
      outer loop
         vertex -3.522257e+001 0.000000e+000 -3.660615e+001
         vertex -3.993481e+001 0.000000e+000 -3.634846e+001
         vertex -3.641453e+001 0.000000e+000 -3.987458e+001
      endloop
   endfacet
   facet normal 0.000000e+000 -1.000000e+000 0.000000e+000
      outer loop
         vertex -3.522257e+001 0.000000e+000 -3.660615e+001
         vertex -3.641453e+001 0.000000e+000 -3.987458e+001
         vertex -3.160469e+001 0.000000e+000 -3.977164e+001
      endloop
   endfacet
   facet normal 0.000000e+000 -1.000000e+000 0.000000e+000
      outer loop
         vertex -3.160469e+001 0.000000e+000 -3.977164e+001
         vertex -3.641453e+001 0.000000e+000 -3.987458e+001
         vertex -3.258422e+001 0.000000e+000 -4.306122e+001
      endloop
   endfacet
   facet normal 0.000000e+000 -1.000000e+000 0.000000e+000
      outer loop
         vertex -3.160469e+001 0.000000e+000 -3.977164e+001
         vertex -3.258422e+001 0.000000e+000 -4.306122e+001
         vertex -2.770380e+001 0.000000e+000 -4.258098e+001
      endloop
   endfacet
   facet normal 0.000000e+000 -1.000000e+000 0.000000e+000
      outer loop
         vertex -2.770380e+001 0.000000e+000 -4.258098e+001
         vertex -3.258422e+001 0.000000e+000 -4.306122e+001
         vertex -2.847650e+001 0.000000e+000 -4.588125e+001
      endloop
   endfacet
   facet normal 0.000000e+000 -1.000000e+000 0.000000e+000
      outer loop
         vertex -2.770380e+001 0.000000e+000 -4.258098e+001
         vertex -2.847650e+001 0.000000e+000 -4.588125e+001
         vertex -2.355482e+001 0.000000e+000 -4.500901e+001
      endloop
   endfacet
   facet normal 0.000000e+000 -1.000000e+000 0.000000e+000
      outer loop
         vertex -2.355482e+001 0.000000e+000 -4.500901e+001
         vertex -2.847650e+001 0.000000e+000 -4.588125e+001
         vertex -2.412634e+001 0.000000e+000 -4.831066e+001
      endloop
   endfacet
   facet normal 0.000000e+000 -1.000000e+000 0.000000e+000
      outer loop
         vertex -2.355482e+001 0.000000e+000 -4.500901e+001
         vertex -2.412634e+001 0.000000e+000 -4.831066e+001
         vertex -1.919490e+001 0.000000e+000 -4.703399e+001
      endloop
   endfacet
   facet normal 0.000000e+000 -1.000000e+000 0.000000e+000
      outer loop
         vertex -1.919490e+001 0.000000e+000 -4.703399e+001
         vertex -2.412634e+001 0.000000e+000 -4.831066e+001
         vertex -1.957078e+001 0.000000e+000 -5.032877e+001
      endloop
   endfacet
   facet normal 0.000000e+000 -1.000000e+000 0.000000e+000
      outer loop
         vertex -1.919490e+001 0.000000e+000 -4.703399e+001
         vertex -1.957078e+001 0.000000e+000 -5.032877e+001
         vertex -1.466311e+001 0.000000e+000 -4.863778e+001
      endloop
   endfacet
   facet normal 0.000000e+000 -1.000000e+000 0.000000e+000
      outer loop
         vertex -1.466311e+001 0.000000e+000 -4.863778e+001
         vertex -1.957078e+001 0.000000e+000 -5.032877e+001
         vertex -1.484860e+001 0.000000e+000 -5.191839e+001
      endloop
   endfacet
   facet normal 0.000000e+000 -1.000000e+000 0.000000e+000
      outer loop
         vertex -1.466311e+001 0.000000e+000 -4.863778e+001
         vertex -1.484860e+001 0.000000e+000 -5.191839e+001
         vertex -1.000000e+001 0.000000e+000 -4.980603e+001
      endloop
   endfacet
   facet normal 0.000000e+000 -1.000000e+000 0.000000e+000
      outer loop
         vertex -1.000000e+001 0.000000e+000 -4.980603e+001
         vertex -1.484860e+001 0.000000e+000 -5.191839e+001
         vertex -1.000000e+001 0.000000e+000 -5.306600e+001
      endloop
   endfacet
   facet normal 0.000000e+000 -1.000000e+000 0.000000e+000
      outer loop
         vertex -1.000000e+001 0.000000e+000 4.980603e+001
         vertex -1.000000e+001 0.000000e+000 5.306600e+001
         vertex -1.466311e+001 0.000000e+000 4.863778e+001
      endloop
   endfacet
   facet normal 0.000000e+000 -1.000000e+000 0.000000e+000
      outer loop
         vertex -1.466311e+001 0.000000e+000 4.863778e+001
         vertex -1.000000e+001 0.000000e+000 5.306600e+001
         vertex -1.484860e+001 0.000000e+000 5.191839e+001
      endloop
   endfacet
   facet normal 0.000000e+000 -1.000000e+000 0.000000e+000
      outer loop
         vertex -1.466311e+001 0.000000e+000 4.863778e+001
         vertex -1.484860e+001 0.000000e+000 5.191839e+001
         vertex -1.919490e+001 0.000000e+000 4.703399e+001
      endloop
   endfacet
   facet normal 0.000000e+000 -1.000000e+000 0.000000e+000
      outer loop
         vertex -1.919490e+001 0.000000e+000 4.703399e+001
         vertex -1.484860e+001 0.000000e+000 5.191839e+001
         vertex -1.957078e+001 0.000000e+000 5.032877e+001
      endloop
   endfacet
   facet normal 0.000000e+000 -1.000000e+000 0.000000e+000
      outer loop
         vertex -1.919490e+001 0.000000e+000 4.703399e+001
         vertex -1.957078e+001 0.000000e+000 5.032877e+001
         vertex -2.355482e+001 0.000000e+000 4.500901e+001
      endloop
   endfacet
   facet normal 0.000000e+000 -1.000000e+000 0.000000e+000
      outer loop
         vertex -2.355482e+001 0.000000e+000 4.500901e+001
         vertex -1.957078e+001 0.000000e+000 5.032877e+001
         vertex -2.412634e+001 0.000000e+000 4.831066e+001
      endloop
   endfacet
   facet normal 0.000000e+000 -1.000000e+000 0.000000e+000
      outer loop
         vertex -2.355482e+001 0.000000e+000 4.500901e+001
         vertex -2.412634e+001 0.000000e+000 4.831066e+001
         vertex -2.770380e+001 0.000000e+000 4.258098e+001
      endloop
   endfacet
   facet normal 0.000000e+000 -1.000000e+000 0.000000e+000
      outer loop
         vertex -2.770380e+001 0.000000e+000 4.258098e+001
         vertex -2.412634e+001 0.000000e+000 4.831066e+001
         vertex -2.847650e+001 0.000000e+000 4.588125e+001
      endloop
   endfacet
   facet normal 0.000000e+000 -1.000000e+000 0.000000e+000
      outer loop
         vertex -2.770380e+001 0.000000e+000 4.258098e+001
         vertex -2.847650e+001 0.000000e+000 4.588125e+001
         vertex -3.160469e+001 0.000000e+000 3.977164e+001
      endloop
   endfacet
   facet normal 0.000000e+000 -1.000000e+000 0.000000e+000
      outer loop
         vertex -3.160469e+001 0.000000e+000 3.977164e+001
         vertex -2.847650e+001 0.000000e+000 4.588125e+001
         vertex -3.258422e+001 0.000000e+000 4.306122e+001
      endloop
   endfacet
   facet normal 0.000000e+000 -1.000000e+000 0.000000e+000
      outer loop
         vertex -3.160469e+001 0.000000e+000 3.977164e+001
         vertex -3.258422e+001 0.000000e+000 4.306122e+001
         vertex -3.522257e+001 0.000000e+000 3.660615e+001
      endloop
   endfacet
   facet normal 0.000000e+000 -1.000000e+000 0.000000e+000
      outer loop
         vertex -3.522257e+001 0.000000e+000 3.660615e+001
         vertex -3.258422e+001 0.000000e+000 4.306122e+001
         vertex -3.641453e+001 0.000000e+000 3.987458e+001
      endloop
   endfacet
   facet normal 0.000000e+000 -1.000000e+000 0.000000e+000
      outer loop
         vertex -3.522257e+001 0.000000e+000 3.660615e+001
         vertex -3.641453e+001 0.000000e+000 3.987458e+001
         vertex -3.852504e+001 0.000000e+000 3.311286e+001
      endloop
   endfacet
   facet normal 0.000000e+000 -1.000000e+000 0.000000e+000
      outer loop
         vertex -3.852504e+001 0.000000e+000 3.311286e+001
         vertex -3.641453e+001 0.000000e+000 3.987458e+001
         vertex -3.993481e+001 0.000000e+000 3.634846e+001
      endloop
   endfacet
   facet normal 0.000000e+000 -1.000000e+000 0.000000e+000
      outer loop
         vertex -3.852504e+001 0.000000e+000 3.311286e+001
         vertex -3.993481e+001 0.000000e+000 3.634846e+001
         vertex -4.148251e+001 0.000000e+000 2.932305e+001
      endloop
   endfacet
   facet normal 0.000000e+000 -1.000000e+000 0.000000e+000
      outer loop
         vertex -4.148251e+001 0.000000e+000 2.932305e+001
         vertex -3.993481e+001 0.000000e+000 3.634846e+001
         vertex -4.311510e+001 0.000000e+000 3.251289e+001
      endloop
   endfacet
   facet normal 0.000000e+000 -1.000000e+000 0.000000e+000
      outer loop
         vertex -4.148251e+001 0.000000e+000 2.932305e+001
         vertex -4.311510e+001 0.000000e+000 3.251289e+001
         vertex -4.406852e+001 0.000000e+000 2.527065e+001
      endloop
   endfacet
   facet normal 0.000000e+000 -1.000000e+000 0.000000e+000
      outer loop
         vertex -4.406852e+001 0.000000e+000 2.527065e+001
         vertex -4.311510e+001 0.000000e+000 3.251289e+001
         vertex -4.592833e+001 0.000000e+000 2.840051e+001
      endloop
   endfacet
   facet normal 0.000000e+000 -1.000000e+000 0.000000e+000
      outer loop
         vertex -4.406852e+001 0.000000e+000 2.527065e+001
         vertex -4.592833e+001 0.000000e+000 2.840051e+001
         vertex -4.625990e+001 0.000000e+000 2.099195e+001
      endloop
   endfacet
   facet normal 0.000000e+000 -1.000000e+000 0.000000e+000
      outer loop
         vertex -4.625990e+001 0.000000e+000 2.099195e+001
         vertex -4.592833e+001 0.000000e+000 2.840051e+001
         vertex -4.835053e+001 0.000000e+000 2.404633e+001
      endloop
   endfacet
   facet normal 0.000000e+000 -1.000000e+000 0.000000e+000
      outer loop
         vertex -4.625990e+001 0.000000e+000 2.099195e+001
         vertex -4.835053e+001 0.000000e+000 2.404633e+001
         vertex -4.803702e+001 0.000000e+000 1.652528e+001
      endloop
   endfacet
   facet normal 0.000000e+000 -1.000000e+000 0.000000e+000
      outer loop
         vertex -4.803702e+001 0.000000e+000 1.652528e+001
         vertex -4.835053e+001 0.000000e+000 2.404633e+001
         vertex -5.036110e+001 0.000000e+000 1.948743e+001
      endloop
   endfacet
   facet normal 0.000000e+000 -1.000000e+000 0.000000e+000
      outer loop
         vertex -4.803702e+001 0.000000e+000 1.652528e+001
         vertex -5.036110e+001 0.000000e+000 1.948743e+001
         vertex -4.938398e+001 0.000000e+000 1.191062e+001
      endloop
   endfacet
   facet normal 0.000000e+000 -1.000000e+000 0.000000e+000
      outer loop
         vertex -4.938398e+001 0.000000e+000 1.191062e+001
         vertex -5.036110e+001 0.000000e+000 1.948743e+001
         vertex -5.194290e+001 0.000000e+000 1.476263e+001
      endloop
   endfacet
   facet normal 0.000000e+000 -1.000000e+000 0.000000e+000
      outer loop
         vertex -4.938398e+001 0.000000e+000 1.191062e+001
         vertex -5.194290e+001 0.000000e+000 1.476263e+001
         vertex -5.028871e+001 0.000000e+000 7.189305e+000
      endloop
   endfacet
   facet normal 0.000000e+000 -1.000000e+000 0.000000e+000
      outer loop
         vertex -5.028871e+001 0.000000e+000 7.189305e+000
         vertex -5.194290e+001 0.000000e+000 1.476263e+001
         vertex -5.308248e+001 0.000000e+000 9.912136e+000
      endloop
   endfacet
   facet normal 0.000000e+000 -1.000000e+000 0.000000e+000
      outer loop
         vertex -5.028871e+001 0.000000e+000 7.189305e+000
         vertex -5.308248e+001 0.000000e+000 9.912136e+000
         vertex -5.074310e+001 0.000000e+000 2.403610e+000
      endloop
   endfacet
   facet normal 0.000000e+000 -1.000000e+000 0.000000e+000
      outer loop
         vertex -5.074310e+001 0.000000e+000 2.403610e+000
         vertex -5.308248e+001 0.000000e+000 9.912136e+000
         vertex -5.377013e+001 0.000000e+000 4.977255e+000
      endloop
   endfacet
   facet normal 0.000000e+000 -1.000000e+000 0.000000e+000
      outer loop
         vertex -5.074310e+001 0.000000e+000 2.403610e+000
         vertex -5.377013e+001 0.000000e+000 4.977255e+000
         vertex -5.074310e+001 0.000000e+000 -2.403610e+000
      endloop
   endfacet
   facet normal 0.000000e+000 -1.000000e+000 0.000000e+000
      outer loop
         vertex -5.074310e+001 0.000000e+000 -2.403610e+000
         vertex -5.377013e+001 0.000000e+000 4.977255e+000
         vertex -5.400000e+001 0.000000e+000 9.919639e-015
      endloop
   endfacet
   facet normal 0.000000e+000 -1.000000e+000 0.000000e+000
      outer loop
         vertex -5.074310e+001 0.000000e+000 -2.403610e+000
         vertex -5.400000e+001 0.000000e+000 9.919639e-015
         vertex -5.377013e+001 0.000000e+000 -4.977255e+000
      endloop
   endfacet
   facet normal 1.000000e+000 0.000000e+000 0.000000e+000
      outer loop
         vertex -1.000000e+001 0.000000e+000 5.306600e+001
         vertex -1.000000e+001 0.000000e+000 4.980603e+001
         vertex -1.000000e+001 5.000000e+001 5.306600e+001
      endloop
   endfacet
   facet normal 1.000000e+000 0.000000e+000 0.000000e+000
      outer loop
         vertex -1.000000e+001 5.000000e+001 5.306600e+001
         vertex -1.000000e+001 0.000000e+000 4.980603e+001
         vertex -1.000000e+001 5.000000e+001 4.980603e+001
      endloop
   endfacet
   facet normal 1.000000e+000 0.000000e+000 0.000000e+000
      outer loop
         vertex -1.000000e+001 5.000000e+001 -5.306600e+001
         vertex -1.000000e+001 5.000000e+001 -4.980603e+001
         vertex -1.000000e+001 0.000000e+000 -5.306600e+001
      endloop
   endfacet
   facet normal 1.000000e+000 0.000000e+000 0.000000e+000
      outer loop
         vertex -1.000000e+001 0.000000e+000 -5.306600e+001
         vertex -1.000000e+001 5.000000e+001 -4.980603e+001
         vertex -1.000000e+001 0.000000e+000 -4.980603e+001
      endloop
   endfacet
endsolid