solid Part1_Default_sldprt
   facet normal -9.986320e-001 5.228807e-002 0.000000e+000
      outer loop
         vertex -2.469221e+001 3.910861e+000 1.500000e+002
         vertex -2.500000e+001 0.000000e+000 0.000000e+000
         vertex -2.500000e+001 0.000000e+000 1.500000e+002
      endloop
   endfacet
   facet normal -9.986320e-001 -5.228807e-002 0.000000e+000
      outer loop
         vertex -2.500000e+001 0.000000e+000 1.500000e+002
         vertex -2.500000e+001 0.000000e+000 0.000000e+000
         vertex -2.469221e+001 -3.910861e+000 0.000000e+000
      endloop
   endfacet
   facet normal -9.945168e-001 -1.045761e-001 0.000000e+000
      outer loop
         vertex -2.500000e+001 0.000000e+000 1.500000e+002
         vertex -2.469221e+001 -3.910861e+000 0.000000e+000
         vertex -2.469221e+001 -3.910861e+000 1.500000e+002
      endloop
   endfacet
   facet normal -9.781576e-001 -2.078648e-001 0.000000e+000
      outer loop
         vertex -2.469221e+001 -3.910861e+000 1.500000e+002
         vertex -2.469221e+001 -3.910861e+000 0.000000e+000
         vertex -2.377641e+001 -7.725425e+000 0.000000e+000
      endloop
   endfacet
   facet normal -9.659134e-001 -2.588653e-001 0.000000e+000
      outer loop
         vertex -2.469221e+001 -3.910861e+000 1.500000e+002
         vertex -2.377641e+001 -7.725425e+000 0.000000e+000
         vertex -2.377641e+001 -7.725425e+000 1.500000e+002
      endloop
   endfacet
   facet normal -9.335976e-001 -3.583232e-001 0.000000e+000
      outer loop
         vertex -2.377641e+001 -7.725425e+000 1.500000e+002
         vertex -2.377641e+001 -7.725425e+000 0.000000e+000
         vertex -2.227516e+001 -1.134976e+001 0.000000e+000
      endloop
   endfacet
   facet normal -9.135259e-001 -4.067805e-001 0.000000e+000
      outer loop
         vertex -2.377641e+001 -7.725425e+000 1.500000e+002
         vertex -2.227516e+001 -1.134976e+001 0.000000e+000
         vertex -2.227516e+001 -1.134976e+001 1.500000e+002
      endloop
   endfacet
   facet normal -8.660494e-001 -4.999584e-001 0.000000e+000
      outer loop
         vertex -2.227516e+001 -1.134976e+001 1.500000e+002
         vertex -2.227516e+001 -1.134976e+001 0.000000e+000
         vertex -2.022542e+001 -1.469463e+001 0.000000e+000
      endloop
   endfacet
   facet normal -8.386444e-001 -5.446792e-001 0.000000e+000
      outer loop
         vertex -2.227516e+001 -1.134976e+001 1.500000e+002
         vertex -2.022542e+001 -1.469463e+001 0.000000e+000
         vertex -2.022542e+001 -1.469463e+001 1.500000e+002
      endloop
   endfacet
   facet normal -7.771761e-001 -6.292831e-001 0.000000e+000
      outer loop
         vertex -2.022542e+001 -1.469463e+001 1.500000e+002
         vertex -2.022542e+001 -1.469463e+001 0.000000e+000
         vertex -1.767767e+001 -1.767767e+001 0.000000e+000
      endloop
   endfacet
   facet normal -7.431127e-001 -6.691663e-001 0.000000e+000
      outer loop
         vertex -2.022542e+001 -1.469463e+001 1.500000e+002
         vertex -1.767767e+001 -1.767767e+001 0.000000e+000
         vertex -1.767767e+001 -1.767767e+001 1.500000e+002
      endloop
   endfacet
   facet normal -6.691663e-001 -7.431127e-001 0.000000e+000
      outer loop
         vertex -1.767767e+001 -1.767767e+001 1.500000e+002
         vertex -1.767767e+001 -1.767767e+001 0.000000e+000
         vertex -1.469463e+001 -2.022542e+001 0.000000e+000
      endloop
   endfacet
   facet normal -6.292831e-001 -7.771761e-001 0.000000e+000
      outer loop
         vertex -1.767767e+001 -1.767767e+001 1.500000e+002
         vertex -1.469463e+001 -2.022542e+001 0.000000e+000
         vertex -1.469463e+001 -2.022542e+001 1.500000e+002
      endloop
   endfacet
   facet normal -5.446792e-001 -8.386444e-001 0.000000e+000
      outer loop
         vertex -1.469463e+001 -2.022542e+001 1.500000e+002
         vertex -1.469463e+001 -2.022542e+001 0.000000e+000
         vertex -1.134976e+001 -2.227516e+001 0.000000e+000
      endloop
   endfacet
   facet normal -4.999584e-001 -8.660494e-001 0.000000e+000
      outer loop
         vertex -1.469463e+001 -2.022542e+001 1.500000e+002
         vertex -1.134976e+001 -2.227516e+001 0.000000e+000
         vertex -1.134976e+001 -2.227516e+001 1.500000e+002
      endloop
   endfacet
   facet normal -4.067805e-001 -9.135259e-001 0.000000e+000
      outer loop
         vertex -1.134976e+001 -2.227516e+001 1.500000e+002
         vertex -1.134976e+001 -2.227516e+001 0.000000e+000
         vertex -7.725425e+000 -2.377641e+001 0.000000e+000
      endloop
   endfacet
   facet normal -3.583232e-001 -9.335976e-001 0.000000e+000
      outer loop
         vertex -1.134976e+001 -2.227516e+001 1.500000e+002
         vertex -7.725425e+000 -2.377641e+001 0.000000e+000
         vertex -7.725425e+000 -2.377641e+001 1.500000e+002
      endloop
   endfacet
   facet normal -2.588653e-001 -9.659134e-001 0.000000e+000
      outer loop
         vertex -7.725425e+000 -2.377641e+001 1.500000e+002
         vertex -7.725425e+000 -2.377641e+001 0.000000e+000
         vertex -3.910861e+000 -2.469221e+001 0.000000e+000
      endloop
   endfacet
   facet normal -2.078648e-001 -9.781575e-001 0.000000e+000
      outer loop
         vertex -7.725425e+000 -2.377641e+001 1.500000e+002
         vertex -3.910861e+000 -2.469221e+001 0.000000e+000
         vertex -3.910861e+000 -2.469221e+001 1.500000e+002
      endloop
   endfacet
   facet normal -1.045761e-001 -9.945168e-001 0.000000e+000
      outer loop
         vertex -3.910861e+000 -2.469221e+001 1.500000e+002
         vertex -3.910861e+000 -2.469221e+001 0.000000e+000
         vertex 4.592426e-015 -2.500000e+001 0.000000e+000
      endloop
   endfacet
   facet normal -5.228807e-002 -9.986320e-001 0.000000e+000
      outer loop
         vertex -3.910861e+000 -2.469221e+001 1.500000e+002
         vertex 4.592426e-015 -2.500000e+001 0.000000e+000
         vertex 4.592426e-015 -2.500000e+001 1.500000e+002
      endloop
   endfacet
   facet normal 5.228807e-002 -9.986320e-001 0.000000e+000
      outer loop
         vertex 4.592426e-015 -2.500000e+001 1.500000e+002
         vertex 4.592426e-015 -2.500000e+001 0.000000e+000
         vertex 3.910861e+000 -2.469221e+001 0.000000e+000
      endloop
   endfacet
   facet normal 1.045761e-001 -9.945168e-001 0.000000e+000
      outer loop
         vertex 4.592426e-015 -2.500000e+001 1.500000e+002
         vertex 3.910861e+000 -2.469221e+001 0.000000e+000
         vertex 3.910861e+000 -2.469221e+001 1.500000e+002
      endloop
   endfacet
   facet normal 2.078648e-001 -9.781576e-001 0.000000e+000
      outer loop
         vertex 3.910861e+000 -2.469221e+001 1.500000e+002
         vertex 3.910861e+000 -2.469221e+001 0.000000e+000
         vertex 7.725425e+000 -2.377641e+001 0.000000e+000
      endloop
   endfacet
   facet normal 2.588653e-001 -9.659134e-001 0.000000e+000
      outer loop
         vertex 3.910861e+000 -2.469221e+001 1.500000e+002
         vertex 7.725425e+000 -2.377641e+001 0.000000e+000
         vertex 7.725425e+000 -2.377641e+001 1.500000e+002
      endloop
   endfacet
   facet normal 3.583232e-001 -9.335976e-001 0.000000e+000
      outer loop
         vertex 7.725425e+000 -2.377641e+001 1.500000e+002
         vertex 7.725425e+000 -2.377641e+001 0.000000e+000
         vertex 1.134976e+001 -2.227516e+001 0.000000e+000
      endloop
   endfacet
   facet normal 4.067805e-001 -9.135259e-001 0.000000e+000
      outer loop
         vertex 7.725425e+000 -2.377641e+001 1.500000e+002
         vertex 1.134976e+001 -2.227516e+001 0.000000e+000
         vertex 1.134976e+001 -2.227516e+001 1.500000e+002
      endloop
   endfacet
   facet normal 4.999584e-001 -8.660494e-001 0.000000e+000
      outer loop
         vertex 1.134976e+001 -2.227516e+001 1.500000e+002
         vertex 1.134976e+001 -2.227516e+001 0.000000e+000
         vertex 1.469463e+001 -2.022542e+001 0.000000e+000
      endloop
   endfacet
   facet normal 5.446792e-001 -8.386444e-001 0.000000e+000
      outer loop
         vertex 1.134976e+001 -2.227516e+001 1.500000e+002
         vertex 1.469463e+001 -2.022542e+001 0.000000e+000
         vertex 1.469463e+001 -2.022542e+001 1.500000e+002
      endloop
   endfacet
   facet normal 6.292831e-001 -7.771761e-001 0.000000e+000
      outer loop
         vertex 1.469463e+001 -2.022542e+001 1.500000e+002
         vertex 1.469463e+001 -2.022542e+001 0.000000e+000
         vertex 1.767767e+001 -1.767767e+001 0.000000e+000
      endloop
   endfacet
   facet normal 6.691663e-001 -7.431127e-001 0.000000e+000
      outer loop
         vertex 1.469463e+001 -2.022542e+001 1.500000e+002
         vertex 1.767767e+001 -1.767767e+001 0.000000e+000
         vertex 1.767767e+001 -1.767767e+001 1.500000e+002
      endloop
   endfacet
   facet normal 7.431127e-001 -6.691663e-001 0.000000e+000
      outer loop
         vertex 1.767767e+001 -1.767767e+001 1.500000e+002
         vertex 1.767767e+001 -1.767767e+001 0.000000e+000
         vertex 2.022542e+001 -1.469463e+001 0.000000e+000
      endloop
   endfacet
   facet normal 7.771761e-001 -6.292831e-001 0.000000e+000
      outer loop
         vertex 1.767767e+001 -1.767767e+001 1.500000e+002
         vertex 2.022542e+001 -1.469463e+001 0.000000e+000
         vertex 2.022542e+001 -1.469463e+001 1.500000e+002
      endloop
   endfacet
   facet normal 8.386444e-001 -5.446792e-001 0.000000e+000
      outer loop
         vertex 2.022542e+001 -1.469463e+001 1.500000e+002
         vertex 2.022542e+001 -1.469463e+001 0.000000e+000
         vertex 2.227516e+001 -1.134976e+001 0.000000e+000
      endloop
   endfacet
   facet normal 8.660494e-001 -4.999584e-001 0.000000e+000
      outer loop
         vertex 2.022542e+001 -1.469463e+001 1.500000e+002
         vertex 2.227516e+001 -1.134976e+001 0.000000e+000
         vertex 2.227516e+001 -1.134976e+001 1.500000e+002
      endloop
   endfacet
   facet normal 9.135259e-001 -4.067805e-001 0.000000e+000
      outer loop
         vertex 2.227516e+001 -1.134976e+001 1.500000e+002
         vertex 2.227516e+001 -1.134976e+001 0.000000e+000
         vertex 2.377641e+001 -7.725425e+000 0.000000e+000
      endloop
   endfacet
   facet normal 9.335976e-001 -3.583232e-001 0.000000e+000
      outer loop
         vertex 2.227516e+001 -1.134976e+001 1.500000e+002
         vertex 2.377641e+001 -7.725425e+000 0.000000e+000
         vertex 2.377641e+001 -7.725425e+000 1.500000e+002
      endloop
   endfacet
   facet normal 9.659134e-001 -2.588653e-001 0.000000e+000
      outer loop
         vertex 2.377641e+001 -7.725425e+000 1.500000e+002
         vertex 2.377641e+001 -7.725425e+000 0.000000e+000
         vertex 2.469221e+001 -3.910861e+000 0.000000e+000
      endloop
   endfacet
   facet normal 9.781575e-001 -2.078648e-001 0.000000e+000
      outer loop
         vertex 2.377641e+001 -7.725425e+000 1.500000e+002
         vertex 2.469221e+001 -3.910861e+000 0.000000e+000
         vertex 2.469221e+001 -3.910861e+000 1.500000e+002
      endloop
   endfacet
   facet normal 9.945168e-001 -1.045761e-001 0.000000e+000
      outer loop
         vertex 2.469221e+001 -3.910861e+000 1.500000e+002
         vertex 2.469221e+001 -3.910861e+000 0.000000e+000
         vertex 2.500000e+001 3.061617e-015 0.000000e+000
      endloop
   endfacet
   facet normal 9.986320e-001 -5.228807e-002 0.000000e+000
      outer loop
         vertex 2.469221e+001 -3.910861e+000 1.500000e+002
         vertex 2.500000e+001 3.061617e-015 0.000000e+000
         vertex 2.500000e+001 3.061617e-015 1.500000e+002
      endloop
   endfacet
   facet normal 9.986320e-001 5.228807e-002 0.000000e+000
      outer loop
         vertex 2.500000e+001 3.061617e-015 1.500000e+002
         vertex 2.500000e+001 3.061617e-015 0.000000e+000
         vertex 2.469221e+001 3.910861e+000 0.000000e+000
      endloop
   endfacet
   facet normal 9.945168e-001 1.045761e-001 0.000000e+000
      outer loop
         vertex 2.500000e+001 3.061617e-015 1.500000e+002
         vertex 2.469221e+001 3.910861e+000 0.000000e+000
         vertex 2.469221e+001 3.910861e+000 1.500000e+002
      endloop
   endfacet
   facet normal 9.781576e-001 2.078648e-001 0.000000e+000
      outer loop
         vertex 2.469221e+001 3.910861e+000 1.500000e+002
         vertex 2.469221e+001 3.910861e+000 0.000000e+000
         vertex 2.377641e+001 7.725425e+000 0.000000e+000
      endloop
   endfacet
   facet normal 9.659134e-001 2.588653e-001 0.000000e+000
      outer loop
         vertex 2.469221e+001 3.910861e+000 1.500000e+002
         vertex 2.377641e+001 7.725425e+000 0.000000e+000
         vertex 2.377641e+001 7.725425e+000 1.500000e+002
      endloop
   endfacet
   facet normal 9.335976e-001 3.583232e-001 0.000000e+000
      outer loop
         vertex 2.377641e+001 7.725425e+000 1.500000e+002
         vertex 2.377641e+001 7.725425e+000 0.000000e+000
         vertex 2.227516e+001 1.134976e+001 0.000000e+000
      endloop
   endfacet
   facet normal 9.135259e-001 4.067805e-001 0.000000e+000
      outer loop
         vertex 2.377641e+001 7.725425e+000 1.500000e+002
         vertex 2.227516e+001 1.134976e+001 0.000000e+000
         vertex 2.227516e+001 1.134976e+001 1.500000e+002
      endloop
   endfacet
   facet normal 8.660494e-001 4.999584e-001 0.000000e+000
      outer loop
         vertex 2.227516e+001 1.134976e+001 1.500000e+002
         vertex 2.227516e+001 1.134976e+001 0.000000e+000
         vertex 2.022542e+001 1.469463e+001 0.000000e+000
      endloop
   endfacet
   facet normal 8.386444e-001 5.446792e-001 0.000000e+000
      outer loop
         vertex 2.227516e+001 1.134976e+001 1.500000e+002
         vertex 2.022542e+001 1.469463e+001 0.000000e+000
         vertex 2.022542e+001 1.469463e+001 1.500000e+002
      endloop
   endfacet
   facet normal 7.771761e-001 6.292831e-001 0.000000e+000
      outer loop
         vertex 2.022542e+001 1.469463e+001 1.500000e+002
         vertex 2.022542e+001 1.469463e+001 0.000000e+000
         vertex 1.767767e+001 1.767767e+001 0.000000e+000
      endloop
   endfacet
   facet normal 7.431127e-001 6.691663e-001 0.000000e+000
      outer loop
         vertex 2.022542e+001 1.469463e+001 1.500000e+002
         vertex 1.767767e+001 1.767767e+001 0.000000e+000
         vertex 1.767767e+001 1.767767e+001 1.500000e+002
      endloop
   endfacet
   facet normal 6.691663e-001 7.431127e-001 0.000000e+000
      outer loop
         vertex 1.767767e+001 1.767767e+001 1.500000e+002
         vertex 1.767767e+001 1.767767e+001 0.000000e+000
         vertex 1.469463e+001 2.022542e+001 0.000000e+000
      endloop
   endfacet
   facet normal 6.292831e-001 7.771761e-001 0.000000e+000
      outer loop
         vertex 1.767767e+001 1.767767e+001 1.500000e+002
         vertex 1.469463e+001 2.022542e+001 0.000000e+000
         vertex 1.469463e+001 2.022542e+001 1.500000e+002
      endloop
   endfacet
   facet normal 5.446792e-001 8.386444e-001 0.000000e+000
      outer loop
         vertex 1.469463e+001 2.022542e+001 1.500000e+002
         vertex 1.469463e+001 2.022542e+001 0.000000e+000
         vertex 1.134976e+001 2.227516e+001 0.000000e+000
      endloop
   endfacet
   facet normal 4.999584e-001 8.660494e-001 0.000000e+000
      outer loop
         vertex 1.469463e+001 2.022542e+001 1.500000e+002
         vertex 1.134976e+001 2.227516e+001 0.000000e+000
         vertex 1.134976e+001 2.227516e+001 1.500000e+002
      endloop
   endfacet
   facet normal 4.067805e-001 9.135259e-001 0.000000e+000
      outer loop
         vertex 1.134976e+001 2.227516e+001 1.500000e+002
         vertex 1.134976e+001 2.227516e+001 0.000000e+000
         vertex 7.725425e+000 2.377641e+001 0.000000e+000
      endloop
   endfacet
   facet normal 3.583232e-001 9.335976e-001 0.000000e+000
      outer loop
         vertex 1.134976e+001 2.227516e+001 1.500000e+002
         vertex 7.725425e+000 2.377641e+001 0.000000e+000
         vertex 7.725425e+000 2.377641e+001 1.500000e+002
      endloop
   endfacet
   facet normal 2.588653e-001 9.659134e-001 0.000000e+000
      outer loop
         vertex 7.725425e+000 2.377641e+001 1.500000e+002
         vertex 7.725425e+000 2.377641e+001 0.000000e+000
         vertex 3.910861e+000 2.469221e+001 0.000000e+000
      endloop
   endfacet
   facet normal 2.078648e-001 9.781575e-001 0.000000e+000
      outer loop
         vertex 7.725425e+000 2.377641e+001 1.500000e+002
         vertex 3.910861e+000 2.469221e+001 0.000000e+000
         vertex 3.910861e+000 2.469221e+001 1.500000e+002
      endloop
   endfacet
   facet normal 1.045761e-001 9.945168e-001 0.000000e+000
      outer loop
         vertex 3.910861e+000 2.469221e+001 1.500000e+002
         vertex 3.910861e+000 2.469221e+001 0.000000e+000
         vertex -1.530808e-015 2.500000e+001 0.000000e+000
      endloop
   endfacet
   facet normal 5.228807e-002 9.986320e-001 0.000000e+000
      outer loop
         vertex 3.910861e+000 2.469221e+001 1.500000e+002
         vertex -1.530808e-015 2.500000e+001 0.000000e+000
         vertex -1.530808e-015 2.500000e+001 1.500000e+002
      endloop
   endfacet
   facet normal -5.228807e-002 9.986320e-001 0.000000e+000
      outer loop
         vertex -1.530808e-015 2.500000e+001 1.500000e+002
         vertex -1.530808e-015 2.500000e+001 0.000000e+000
         vertex -3.910861e+000 2.469221e+001 0.000000e+000
      endloop
   endfacet
   facet normal -1.045761e-001 9.945168e-001 0.000000e+000
      outer loop
         vertex -1.530808e-015 2.500000e+001 1.500000e+002
         vertex -3.910861e+000 2.469221e+001 0.000000e+000
         vertex -3.910861e+000 2.469221e+001 1.500000e+002
      endloop
   endfacet
   facet normal -2.078648e-001 9.781576e-001 0.000000e+000
      outer loop
         vertex -3.910861e+000 2.469221e+001 1.500000e+002
         vertex -3.910861e+000 2.469221e+001 0.000000e+000
         vertex -7.725425e+000 2.377641e+001 0.000000e+000
      endloop
   endfacet
   facet normal -2.588653e-001 9.659134e-001 0.000000e+000
      outer loop
         vertex -3.910861e+000 2.469221e+001 1.500000e+002
         vertex -7.725425e+000 2.377641e+001 0.000000e+000
         vertex -7.725425e+000 2.377641e+001 1.500000e+002
      endloop
   endfacet
   facet normal -3.583232e-001 9.335976e-001 0.000000e+000
      outer loop
         vertex -7.725425e+000 2.377641e+001 1.500000e+002
         vertex -7.725425e+000 2.377641e+001 0.000000e+000
         vertex -1.134976e+001 2.227516e+001 0.000000e+000
      endloop
   endfacet
   facet normal -4.067805e-001 9.135259e-001 0.000000e+000
      outer loop
         vertex -7.725425e+000 2.377641e+001 1.500000e+002
         vertex -1.134976e+001 2.227516e+001 0.000000e+000
         vertex -1.134976e+001 2.227516e+001 1.500000e+002
      endloop
   endfacet
   facet normal -4.999584e-001 8.660494e-001 0.000000e+000
      outer loop
         vertex -1.134976e+001 2.227516e+001 1.500000e+002
         vertex -1.134976e+001 2.227516e+001 0.000000e+000
         vertex -1.469463e+001 2.022542e+001 0.000000e+000
      endloop
   endfacet
   facet normal -5.446792e-001 8.386444e-001 0.000000e+000
      outer loop
         vertex -1.134976e+001 2.227516e+001 1.500000e+002
         vertex -1.469463e+001 2.022542e+001 0.000000e+000
         vertex -1.469463e+001 2.022542e+001 1.500000e+002
      endloop
   endfacet
   facet normal -6.292831e-001 7.771761e-001 0.000000e+000
      outer loop
         vertex -1.469463e+001 2.022542e+001 1.500000e+002
         vertex -1.469463e+001 2.022542e+001 0.000000e+000
         vertex -1.767767e+001 1.767767e+001 0.000000e+000
      endloop
   endfacet
   facet normal -6.691663e-001 7.431127e-001 0.000000e+000
      outer loop
         vertex -1.469463e+001 2.022542e+001 1.500000e+002
         vertex -1.767767e+001 1.767767e+001 0.000000e+000
         vertex -1.767767e+001 1.767767e+001 1.500000e+002
      endloop
   endfacet
   facet normal -7.431127e-001 6.691663e-001 0.000000e+000
      outer loop
         vertex -1.767767e+001 1.767767e+001 1.500000e+002
         vertex -1.767767e+001 1.767767e+001 0.000000e+000
         vertex -2.022542e+001 1.469463e+001 0.000000e+000
      endloop
   endfacet
   facet normal -7.771761e-001 6.292831e-001 0.000000e+000
      outer loop
         vertex -1.767767e+001 1.767767e+001 1.500000e+002
         vertex -2.022542e+001 1.469463e+001 0.000000e+000
         vertex -2.022542e+001 1.469463e+001 1.500000e+002
      endloop
   endfacet
   facet normal -8.386444e-001 5.446792e-001 0.000000e+000
      outer loop
         vertex -2.022542e+001 1.469463e+001 1.500000e+002
         vertex -2.022542e+001 1.469463e+001 0.000000e+000
         vertex -2.227516e+001 1.134976e+001 0.000000e+000
      endloop
   endfacet
   facet normal -8.660494e-001 4.999584e-001 0.000000e+000
      outer loop
         vertex -2.022542e+001 1.469463e+001 1.500000e+002
         vertex -2.227516e+001 1.134976e+001 0.000000e+000
         vertex -2.227516e+001 1.134976e+001 1.500000e+002
      endloop
   endfacet
   facet normal -9.135259e-001 4.067805e-001 0.000000e+000
      outer loop
         vertex -2.227516e+001 1.134976e+001 1.500000e+002
         vertex -2.227516e+001 1.134976e+001 0.000000e+000
         vertex -2.377641e+001 7.725425e+000 0.000000e+000
      endloop
   endfacet
   facet normal -9.335976e-001 3.583232e-001 0.000000e+000
      outer loop
         vertex -2.227516e+001 1.134976e+001 1.500000e+002
         vertex -2.377641e+001 7.725425e+000 0.000000e+000
         vertex -2.377641e+001 7.725425e+000 1.500000e+002
      endloop
   endfacet
   facet normal -9.659134e-001 2.588653e-001 0.000000e+000
      outer loop
         vertex -2.377641e+001 7.725425e+000 1.500000e+002
         vertex -2.377641e+001 7.725425e+000 0.000000e+000
         vertex -2.469221e+001 3.910861e+000 0.000000e+000
      endloop
   endfacet
   facet normal -9.781575e-001 2.078648e-001 0.000000e+000
      outer loop
         vertex -2.377641e+001 7.725425e+000 1.500000e+002
         vertex -2.469221e+001 3.910861e+000 0.000000e+000
         vertex -2.469221e+001 3.910861e+000 1.500000e+002
      endloop
   endfacet
   facet normal -9.945168e-001 1.045761e-001 0.000000e+000
      outer loop
         vertex -2.469221e+001 3.910861e+000 1.500000e+002
         vertex -2.469221e+001 3.910861e+000 0.000000e+000
         vertex -2.500000e+001 0.000000e+000 0.000000e+000
      endloop
   endfacet
   facet normal 0.000000e+000 0.000000e+000 1.000000e+000
      outer loop
         vertex -1.245497e+001 1.060074e+000 1.500000e+002
         vertex -2.500000e+001 0.000000e+000 1.500000e+002
         vertex -1.245497e+001 -1.060074e+000 1.500000e+002
      endloop
   endfacet
   facet normal 0.000000e+000 0.000000e+000 1.000000e+000
      outer loop
         vertex -1.245497e+001 -1.060074e+000 1.500000e+002
         vertex -2.500000e+001 0.000000e+000 1.500000e+002
         vertex -2.469221e+001 -3.910861e+000 1.500000e+002
      endloop
   endfacet
   facet normal 0.000000e+000 0.000000e+000 1.000000e+000
      outer loop
         vertex -1.245497e+001 -1.060074e+000 1.500000e+002
         vertex -2.469221e+001 -3.910861e+000 1.500000e+002
         vertex -1.209666e+001 -3.149726e+000 1.500000e+002
      endloop
   endfacet
   facet normal 0.000000e+000 0.000000e+000 1.000000e+000
      outer loop
         vertex -1.209666e+001 -3.149726e+000 1.500000e+002
         vertex -2.469221e+001 -3.910861e+000 1.500000e+002
         vertex -2.377641e+001 -7.725425e+000 1.500000e+002
      endloop
   endfacet
   facet normal 0.000000e+000 0.000000e+000 1.000000e+000
      outer loop
         vertex -1.209666e+001 -3.149726e+000 1.500000e+002
         vertex -2.377641e+001 -7.725425e+000 1.500000e+002
         vertex -1.139036e+001 -5.148766e+000 1.500000e+002
      endloop
   endfacet
   facet normal 0.000000e+000 0.000000e+000 1.000000e+000
      outer loop
         vertex -1.139036e+001 -5.148766e+000 1.500000e+002
         vertex -2.377641e+001 -7.725425e+000 1.500000e+002
         vertex -2.227516e+001 -1.134976e+001 1.500000e+002
      endloop
   endfacet
   facet normal 0.000000e+000 0.000000e+000 1.000000e+000
      outer loop
         vertex -1.139036e+001 -5.148766e+000 1.500000e+002
         vertex -2.227516e+001 -1.134976e+001 1.500000e+002
         vertex -1.035637e+001 -6.999685e+000 1.500000e+002
      endloop
   endfacet
   facet normal 0.000000e+000 0.000000e+000 1.000000e+000
      outer loop
         vertex -1.035637e+001 -6.999685e+000 1.500000e+002
         vertex -2.227516e+001 -1.134976e+001 1.500000e+002
         vertex -2.022542e+001 -1.469463e+001 1.500000e+002
      endloop
   endfacet
   facet normal 0.000000e+000 0.000000e+000 1.000000e+000
      outer loop
         vertex -1.035637e+001 -6.999685e+000 1.500000e+002
         vertex -2.022542e+001 -1.469463e+001 1.500000e+002
         vertex -9.024451e+000 -8.649236e+000 1.500000e+002
      endloop
   endfacet
   facet normal 0.000000e+000 0.000000e+000 1.000000e+000
      outer loop
         vertex -9.024451e+000 -8.649236e+000 1.500000e+002
         vertex -2.022542e+001 -1.469463e+001 1.500000e+002
         vertex -1.767767e+001 -1.767767e+001 1.500000e+002
      endloop
   endfacet
   facet normal 0.000000e+000 0.000000e+000 1.000000e+000
      outer loop
         vertex -9.024451e+000 -8.649236e+000 1.500000e+002
         vertex -1.767767e+001 -1.767767e+001 1.500000e+002
         vertex -7.432915e+000 -1.004996e+001 1.500000e+002
      endloop
   endfacet
   facet normal 0.000000e+000 0.000000e+000 1.000000e+000
      outer loop
         vertex -7.432915e+000 -1.004996e+001 1.500000e+002
         vertex -1.767767e+001 -1.767767e+001 1.500000e+002
         vertex -1.469463e+001 -2.022542e+001 1.500000e+002
      endloop
   endfacet
   facet normal 0.000000e+000 0.000000e+000 1.000000e+000
      outer loop
         vertex -7.432915e+000 -1.004996e+001 1.500000e+002
         vertex -1.469463e+001 -2.022542e+001 1.500000e+002
         vertex -5.627547e+000 -1.116157e+001 1.500000e+002
      endloop
   endfacet
   facet normal 0.000000e+000 0.000000e+000 1.000000e+000
      outer loop
         vertex -5.627547e+000 -1.116157e+001 1.500000e+002
         vertex -1.469463e+001 -2.022542e+001 1.500000e+002
         vertex -1.134976e+001 -2.227516e+001 1.500000e+002
      endloop
   endfacet
   facet normal 0.000000e+000 0.000000e+000 1.000000e+000
      outer loop
         vertex -5.627547e+000 -1.116157e+001 1.500000e+002
         vertex -1.134976e+001 -2.227516e+001 1.500000e+002
         vertex -3.660285e+000 -1.195208e+001 1.500000e+002
      endloop
   endfacet
   facet normal 0.000000e+000 0.000000e+000 1.000000e+000
      outer loop
         vertex -3.660285e+000 -1.195208e+001 1.500000e+002
         vertex -1.134976e+001 -2.227516e+001 1.500000e+002
         vertex -7.725425e+000 -2.377641e+001 1.500000e+002
      endloop
   endfacet
   facet normal 0.000000e+000 0.000000e+000 1.000000e+000
      outer loop
         vertex -3.660285e+000 -1.195208e+001 1.500000e+002
         vertex -7.725425e+000 -2.377641e+001 1.500000e+002
         vertex -1.587723e+000 -1.239876e+001 1.500000e+002
      endloop
   endfacet
   facet normal 0.000000e+000 0.000000e+000 1.000000e+000
      outer loop
         vertex -1.587723e+000 -1.239876e+001 1.500000e+002
         vertex -7.725425e+000 -2.377641e+001 1.500000e+002
         vertex -3.910861e+000 -2.469221e+001 1.500000e+002
      endloop
   endfacet
   facet normal 0.000000e+000 0.000000e+000 1.000000e+000
      outer loop
         vertex -1.587723e+000 -1.239876e+001 1.500000e+002
         vertex -3.910861e+000 -2.469221e+001 1.500000e+002
         vertex 5.305150e-001 -1.248874e+001 1.500000e+002
      endloop
   endfacet
   facet normal 0.000000e+000 0.000000e+000 1.000000e+000
      outer loop
         vertex 5.305150e-001 -1.248874e+001 1.500000e+002
         vertex -3.910861e+000 -2.469221e+001 1.500000e+002
         vertex 4.592426e-015 -2.500000e+001 1.500000e+002
      endloop
   endfacet
   facet normal 0.000000e+000 0.000000e+000 1.000000e+000
      outer loop
         vertex 5.305150e-001 -1.248874e+001 1.500000e+002
         vertex 4.592426e-015 -2.500000e+001 1.500000e+002
         vertex 2.633491e+000 -1.221944e+001 1.500000e+002
      endloop
   endfacet
   facet normal 0.000000e+000 0.000000e+000 1.000000e+000
      outer loop
         vertex 2.633491e+000 -1.221944e+001 1.500000e+002
         vertex 4.592426e-015 -2.500000e+001 1.500000e+002
         vertex 3.910861e+000 -2.469221e+001 1.500000e+002
      endloop
   endfacet
   facet normal 0.000000e+000 0.000000e+000 1.000000e+000
      outer loop
         vertex 2.633491e+000 -1.221944e+001 1.500000e+002
         vertex 3.910861e+000 -2.469221e+001 1.500000e+002
         vertex 4.660706e+000 -1.159861e+001 1.500000e+002
      endloop
   endfacet
   facet normal 0.000000e+000 0.000000e+000 1.000000e+000
      outer loop
         vertex 6.553841e+000 1.064411e+001 1.500000e+002
         vertex 1.134976e+001 2.227516e+001 1.500000e+002
         vertex 4.660706e+000 1.159861e+001 1.500000e+002
      endloop
   endfacet
   facet normal 0.000000e+000 0.000000e+000 1.000000e+000
      outer loop
         vertex 4.660706e+000 1.159861e+001 1.500000e+002
         vertex 1.134976e+001 2.227516e+001 1.500000e+002
         vertex 7.725425e+000 2.377641e+001 1.500000e+002
      endloop
   endfacet
   facet normal 0.000000e+000 0.000000e+000 1.000000e+000
      outer loop
         vertex 4.660706e+000 1.159861e+001 1.500000e+002
         vertex 7.725425e+000 2.377641e+001 1.500000e+002
         vertex 2.633491e+000 1.221944e+001 1.500000e+002
      endloop
   endfacet
   facet normal 0.000000e+000 0.000000e+000 1.000000e+000
      outer loop
         vertex 2.633491e+000 1.221944e+001 1.500000e+002
         vertex 7.725425e+000 2.377641e+001 1.500000e+002
         vertex 3.910861e+000 2.469221e+001 1.500000e+002
      endloop
   endfacet
   facet normal 0.000000e+000 0.000000e+000 1.000000e+000
      outer loop
         vertex 2.633491e+000 1.221944e+001 1.500000e+002
         vertex 3.910861e+000 2.469221e+001 1.500000e+002
         vertex 5.305150e-001 1.248874e+001 1.500000e+002
      endloop
   endfacet
   facet normal 0.000000e+000 0.000000e+000 1.000000e+000
      outer loop
         vertex 5.305150e-001 1.248874e+001 1.500000e+002
         vertex 3.910861e+000 2.469221e+001 1.500000e+002
         vertex -1.530808e-015 2.500000e+001 1.500000e+002
      endloop
   endfacet
   facet normal 0.000000e+000 0.000000e+000 1.000000e+000
      outer loop
         vertex 5.305150e-001 1.248874e+001 1.500000e+002
         vertex -1.530808e-015 2.500000e+001 1.500000e+002
         vertex -1.587723e+000 1.239876e+001 1.500000e+002
      endloop
   endfacet
   facet normal 0.000000e+000 0.000000e+000 1.000000e+000
      outer loop
         vertex -1.587723e+000 1.239876e+001 1.500000e+002
         vertex -1.530808e-015 2.500000e+001 1.500000e+002
         vertex -3.910861e+000 2.469221e+001 1.500000e+002
      endloop
   endfacet
   facet normal 0.000000e+000 0.000000e+000 1.000000e+000
      outer loop
         vertex -1.587723e+000 1.239876e+001 1.500000e+002
         vertex -3.910861e+000 2.469221e+001 1.500000e+002
         vertex -3.660285e+000 1.195208e+001 1.500000e+002
      endloop
   endfacet
   facet normal 0.000000e+000 0.000000e+000 1.000000e+000
      outer loop
         vertex -3.660285e+000 1.195208e+001 1.500000e+002
         vertex -3.910861e+000 2.469221e+001 1.500000e+002
         vertex -7.725425e+000 2.377641e+001 1.500000e+002
      endloop
   endfacet
   facet normal 0.000000e+000 0.000000e+000 1.000000e+000
      outer loop
         vertex -3.660285e+000 1.195208e+001 1.500000e+002
         vertex -7.725425e+000 2.377641e+001 1.500000e+002
         vertex -5.627547e+000 1.116157e+001 1.500000e+002
      endloop
   endfacet
   facet normal 0.000000e+000 0.000000e+000 1.000000e+000
      outer loop
         vertex -5.627547e+000 1.116157e+001 1.500000e+002
         vertex -7.725425e+000 2.377641e+001 1.500000e+002
         vertex -1.134976e+001 2.227516e+001 1.500000e+002
      endloop
   endfacet
   facet normal 0.000000e+000 0.000000e+000 1.000000e+000
      outer loop
         vertex -5.627547e+000 1.116157e+001 1.500000e+002
         vertex -1.134976e+001 2.227516e+001 1.500000e+002
         vertex -7.432915e+000 1.004996e+001 1.500000e+002
      endloop
   endfacet
   facet normal 0.000000e+000 0.000000e+000 1.000000e+000
      outer loop
         vertex -7.432915e+000 1.004996e+001 1.500000e+002
         vertex -1.134976e+001 2.227516e+001 1.500000e+002
         vertex -1.469463e+001 2.022542e+001 1.500000e+002
      endloop
   endfacet
   facet normal 0.000000e+000 0.000000e+000 1.000000e+000
      outer loop
         vertex -7.432915e+000 1.004996e+001 1.500000e+002
         vertex -1.469463e+001 2.022542e+001 1.500000e+002
         vertex -9.024451e+000 8.649236e+000 1.500000e+002
      endloop
   endfacet
   facet normal 0.000000e+000 0.000000e+000 1.000000e+000
      outer loop
         vertex -9.024451e+000 8.649236e+000 1.500000e+002
         vertex -1.469463e+001 2.022542e+001 1.500000e+002
         vertex -1.767767e+001 1.767767e+001 1.500000e+002
      endloop
   endfacet
   facet normal 0.000000e+000 0.000000e+000 1.000000e+000
      outer loop
         vertex -9.024451e+000 8.649236e+000 1.500000e+002
         vertex -1.767767e+001 1.767767e+001 1.500000e+002
         vertex -1.035637e+001 6.999685e+000 1.500000e+002
      endloop
   endfacet
   facet normal 0.000000e+000 0.000000e+000 1.000000e+000
      outer loop
         vertex -1.035637e+001 6.999685e+000 1.500000e+002
         vertex -1.767767e+001 1.767767e+001 1.500000e+002
         vertex -2.022542e+001 1.469463e+001 1.500000e+002
      endloop
   endfacet
   facet normal 0.000000e+000 0.000000e+000 1.000000e+000
      outer loop
         vertex -1.035637e+001 6.999685e+000 1.500000e+002
         vertex -2.022542e+001 1.469463e+001 1.500000e+002
         vertex -1.139036e+001 5.148766e+000 1.500000e+002
      endloop
   endfacet
   facet normal 0.000000e+000 0.000000e+000 1.000000e+000
      outer loop
         vertex -1.139036e+001 5.148766e+000 1.500000e+002
         vertex -2.022542e+001 1.469463e+001 1.500000e+002
         vertex -2.227516e+001 1.134976e+001 1.500000e+002
      endloop
   endfacet
   facet normal 0.000000e+000 0.000000e+000 1.000000e+000
      outer loop
         vertex -1.139036e+001 5.148766e+000 1.500000e+002
         vertex -2.227516e+001 1.134976e+001 1.500000e+002
         vertex -1.209666e+001 3.149726e+000 1.500000e+002
      endloop
   endfacet
   facet normal 0.000000e+000 0.000000e+000 1.000000e+000
      outer loop
         vertex -1.209666e+001 3.149726e+000 1.500000e+002
         vertex -2.227516e+001 1.134976e+001 1.500000e+002
         vertex -2.377641e+001 7.725425e+000 1.500000e+002
      endloop
   endfacet
   facet normal 0.000000e+000 0.000000e+000 1.000000e+000
      outer loop
         vertex -1.209666e+001 3.149726e+000 1.500000e+002
         vertex -2.377641e+001 7.725425e+000 1.500000e+002
         vertex -1.245497e+001 1.060074e+000 1.500000e+002
      endloop
   endfacet
   facet normal 0.000000e+000 0.000000e+000 1.000000e+000
      outer loop
         vertex -1.245497e+001 1.060074e+000 1.500000e+002
         vertex -2.377641e+001 7.725425e+000 1.500000e+002
         vertex -2.469221e+001 3.910861e+000 1.500000e+002
      endloop
   endfacet
   facet normal 0.000000e+000 0.000000e+000 1.000000e+000
      outer loop
         vertex -1.245497e+001 1.060074e+000 1.500000e+002
         vertex -2.469221e+001 3.910861e+000 1.500000e+002
         vertex -2.500000e+001 0.000000e+000 1.500000e+002
      endloop
   endfacet
   facet normal 0.000000e+000 0.000000e+000 1.000000e+000
      outer loop
         vertex 3.910861e+000 -2.469221e+001 1.500000e+002
         vertex 7.725425e+000 -2.377641e+001 1.500000e+002
         vertex 4.660706e+000 -1.159861e+001 1.500000e+002
      endloop
   endfacet
   facet normal 0.000000e+000 0.000000e+000 1.000000e+000
      outer loop
         vertex 4.660706e+000 -1.159861e+001 1.500000e+002
         vertex 7.725425e+000 -2.377641e+001 1.500000e+002
         vertex 1.134976e+001 -2.227516e+001 1.500000e+002
      endloop
   endfacet
   facet normal 0.000000e+000 0.000000e+000 1.000000e+000
      outer loop
         vertex 4.660706e+000 -1.159861e+001 1.500000e+002
         vertex 1.134976e+001 -2.227516e+001 1.500000e+002
         vertex 6.553841e+000 -1.064411e+001 1.500000e+002
      endloop
   endfacet
   facet normal 0.000000e+000 0.000000e+000 1.000000e+000
      outer loop
         vertex 6.553841e+000 -1.064411e+001 1.500000e+002
         vertex 1.134976e+001 -2.227516e+001 1.500000e+002
         vertex 1.469463e+001 -2.022542e+001 1.500000e+002
      endloop
   endfacet
   facet normal 0.000000e+000 0.000000e+000 1.000000e+000
      outer loop
         vertex 6.553841e+000 -1.064411e+001 1.500000e+002
         vertex 1.469463e+001 -2.022542e+001 1.500000e+002
         vertex 8.258434e+000 -9.383404e+000 1.500000e+002
      endloop
   endfacet
   facet normal 0.000000e+000 0.000000e+000 1.000000e+000
      outer loop
         vertex 8.258434e+000 -9.383404e+000 1.500000e+002
         vertex 1.469463e+001 -2.022542e+001 1.500000e+002
         vertex 1.767767e+001 -1.767767e+001 1.500000e+002
      endloop
   endfacet
   facet normal 0.000000e+000 0.000000e+000 1.000000e+000
      outer loop
         vertex 8.258434e+000 -9.383404e+000 1.500000e+002
         vertex 1.767767e+001 -1.767767e+001 1.500000e+002
         vertex 9.725447e+000 -7.852750e+000 1.500000e+002
      endloop
   endfacet
   facet normal 0.000000e+000 0.000000e+000 1.000000e+000
      outer loop
         vertex 9.725447e+000 -7.852750e+000 1.500000e+002
         vertex 1.767767e+001 -1.767767e+001 1.500000e+002
         vertex 2.022542e+001 -1.469463e+001 1.500000e+002
      endloop
   endfacet
   facet normal 0.000000e+000 0.000000e+000 1.000000e+000
      outer loop
         vertex 9.725447e+000 -7.852750e+000 1.500000e+002
         vertex 2.022542e+001 -1.469463e+001 1.500000e+002
         vertex 1.091268e+001 -6.096187e+000 1.500000e+002
      endloop
   endfacet
   facet normal 0.000000e+000 0.000000e+000 1.000000e+000
      outer loop
         vertex 1.091268e+001 -6.096187e+000 1.500000e+002
         vertex 2.022542e+001 -1.469463e+001 1.500000e+002
         vertex 2.227516e+001 -1.134976e+001 1.500000e+002
      endloop
   endfacet
   facet normal 0.000000e+000 0.000000e+000 1.000000e+000
      outer loop
         vertex 1.091268e+001 -6.096187e+000 1.500000e+002
         vertex 2.227516e+001 -1.134976e+001 1.500000e+002
         vertex 1.178597e+001 -4.164248e+000 1.500000e+002
      endloop
   endfacet
   facet normal 0.000000e+000 0.000000e+000 1.000000e+000
      outer loop
         vertex 1.178597e+001 -4.164248e+000 1.500000e+002
         vertex 2.227516e+001 -1.134976e+001 1.500000e+002
         vertex 2.377641e+001 -7.725425e+000 1.500000e+002
      endloop
   endfacet
   facet normal 0.000000e+000 0.000000e+000 1.000000e+000
      outer loop
         vertex 1.178597e+001 -4.164248e+000 1.500000e+002
         vertex 2.377641e+001 -7.725425e+000 1.500000e+002
         vertex 1.232020e+001 -2.112510e+000 1.500000e+002
      endloop
   endfacet
   facet normal 0.000000e+000 0.000000e+000 1.000000e+000
      outer loop
         vertex 1.232020e+001 -2.112510e+000 1.500000e+002
         vertex 2.377641e+001 -7.725425e+000 1.500000e+002
         vertex 2.469221e+001 -3.910861e+000 1.500000e+002
      endloop
   endfacet
   facet normal 0.000000e+000 0.000000e+000 1.000000e+000
      outer loop
         vertex 1.232020e+001 -2.112510e+000 1.500000e+002
         vertex 2.469221e+001 -3.910861e+000 1.500000e+002
         vertex 1.250000e+001 0.000000e+000 1.500000e+002
      endloop
   endfacet
   facet normal 0.000000e+000 0.000000e+000 1.000000e+000
      outer loop
         vertex 1.250000e+001 0.000000e+000 1.500000e+002
         vertex 2.469221e+001 -3.910861e+000 1.500000e+002
         vertex 2.500000e+001 3.061617e-015 1.500000e+002
      endloop
   endfacet
   facet normal 0.000000e+000 0.000000e+000 1.000000e+000
      outer loop
         vertex 1.250000e+001 0.000000e+000 1.500000e+002
         vertex 2.500000e+001 3.061617e-015 1.500000e+002
         vertex 1.232020e+001 2.112510e+000 1.500000e+002
      endloop
   endfacet
   facet normal 0.000000e+000 0.000000e+000 1.000000e+000
      outer loop
         vertex 1.232020e+001 2.112510e+000 1.500000e+002
         vertex 2.500000e+001 3.061617e-015 1.500000e+002
         vertex 2.469221e+001 3.910861e+000 1.500000e+002
      endloop
   endfacet
   facet normal 0.000000e+000 0.000000e+000 1.000000e+000
      outer loop
         vertex 1.232020e+001 2.112510e+000 1.500000e+002
         vertex 2.469221e+001 3.910861e+000 1.500000e+002
         vertex 1.178597e+001 4.164248e+000 1.500000e+002
      endloop
   endfacet
   facet normal 0.000000e+000 0.000000e+000 1.000000e+000
      outer loop
         vertex 1.178597e+001 4.164248e+000 1.500000e+002
         vertex 2.469221e+001 3.910861e+000 1.500000e+002
         vertex 2.377641e+001 7.725425e+000 1.500000e+002
      endloop
   endfacet
   facet normal 0.000000e+000 0.000000e+000 1.000000e+000
      outer loop
         vertex 1.178597e+001 4.164248e+000 1.500000e+002
         vertex 2.377641e+001 7.725425e+000 1.500000e+002
         vertex 1.091268e+001 6.096187e+000 1.500000e+002
      endloop
   endfacet
   facet normal 0.000000e+000 0.000000e+000 1.000000e+000
      outer loop
         vertex 1.091268e+001 6.096187e+000 1.500000e+002
         vertex 2.377641e+001 7.725425e+000 1.500000e+002
         vertex 2.227516e+001 1.134976e+001 1.500000e+002
      endloop
   endfacet
   facet normal 0.000000e+000 0.000000e+000 1.000000e+000
      outer loop
         vertex 1.091268e+001 6.096187e+000 1.500000e+002
         vertex 2.227516e+001 1.134976e+001 1.500000e+002
         vertex 9.725447e+000 7.852750e+000 1.500000e+002
      endloop
   endfacet
   facet normal 0.000000e+000 0.000000e+000 1.000000e+000
      outer loop
         vertex 9.725447e+000 7.852750e+000 1.500000e+002
         vertex 2.227516e+001 1.134976e+001 1.500000e+002
         vertex 2.022542e+001 1.469463e+001 1.500000e+002
      endloop
   endfacet
   facet normal 0.000000e+000 0.000000e+000 1.000000e+000
      outer loop
         vertex 9.725447e+000 7.852750e+000 1.500000e+002
         vertex 2.022542e+001 1.469463e+001 1.500000e+002
         vertex 8.258434e+000 9.383404e+000 1.500000e+002
      endloop
   endfacet
   facet normal 0.000000e+000 0.000000e+000 1.000000e+000
      outer loop
         vertex 8.258434e+000 9.383404e+000 1.500000e+002
         vertex 2.022542e+001 1.469463e+001 1.500000e+002
         vertex 1.767767e+001 1.767767e+001 1.500000e+002
      endloop
   endfacet
   facet normal 0.000000e+000 0.000000e+000 1.000000e+000
      outer loop
         vertex 8.258434e+000 9.383404e+000 1.500000e+002
         vertex 1.767767e+001 1.767767e+001 1.500000e+002
         vertex 6.553841e+000 1.064411e+001 1.500000e+002
      endloop
   endfacet
   facet normal 0.000000e+000 0.000000e+000 1.000000e+000
      outer loop
         vertex 6.553841e+000 1.064411e+001 1.500000e+002
         vertex 1.767767e+001 1.767767e+001 1.500000e+002
         vertex 1.469463e+001 2.022542e+001 1.500000e+002
      endloop
   endfacet
   facet normal 0.000000e+000 0.000000e+000 1.000000e+000
      outer loop
         vertex 6.553841e+000 1.064411e+001 1.500000e+002
         vertex 1.469463e+001 2.022542e+001 1.500000e+002
         vertex 1.134976e+001 2.227516e+001 1.500000e+002
      endloop
   endfacet
   facet normal 0.000000e+000 0.000000e+000 -1.000000e+000
      outer loop
         vertex -2.227516e+001 1.134976e+001 0.000000e+000
         vertex -2.022542e+001 1.469463e+001 0.000000e+000
         vertex 2.377641e+001 -7.725425e+000 0.000000e+000
      endloop
   endfacet
   facet normal 0.000000e+000 0.000000e+000 -1.000000e+000
      outer loop
         vertex 2.377641e+001 -7.725425e+000 0.000000e+000
         vertex -2.022542e+001 1.469463e+001 0.000000e+000
         vertex -1.767767e+001 1.767767e+001 0.000000e+000
      endloop
   endfacet
   facet normal 0.000000e+000 0.000000e+000 -1.000000e+000
      outer loop
         vertex -2.227516e+001 -1.134976e+001 0.000000e+000
         vertex 2.377641e+001 -7.725425e+000 0.000000e+000
         vertex -2.022542e+001 -1.469463e+001 0.000000e+000
      endloop
   endfacet
   facet normal 0.000000e+000 0.000000e+000 -1.000000e+000
      outer loop
         vertex -2.022542e+001 -1.469463e+001 0.000000e+000
         vertex 2.377641e+001 -7.725425e+000 0.000000e+000
         vertex -1.767767e+001 -1.767767e+001 0.000000e+000
      endloop
   endfacet
   facet normal 0.000000e+000 0.000000e+000 -1.000000e+000
      outer loop
         vertex -2.227516e+001 -1.134976e+001 0.000000e+000
         vertex -2.377641e+001 -7.725425e+000 0.000000e+000
         vertex 2.377641e+001 -7.725425e+000 0.000000e+000
      endloop
   endfacet
   facet normal 0.000000e+000 0.000000e+000 -1.000000e+000
      outer loop
         vertex 2.377641e+001 -7.725425e+000 0.000000e+000
         vertex -2.377641e+001 -7.725425e+000 0.000000e+000
         vertex -2.469221e+001 -3.910861e+000 0.000000e+000
      endloop
   endfacet
   facet normal 0.000000e+000 0.000000e+000 -1.000000e+000
      outer loop
         vertex 2.377641e+001 -7.725425e+000 0.000000e+000
         vertex -2.469221e+001 -3.910861e+000 0.000000e+000
         vertex -2.500000e+001 0.000000e+000 0.000000e+000
      endloop
   endfacet
   facet normal 0.000000e+000 0.000000e+000 -1.000000e+000
      outer loop
         vertex -2.500000e+001 0.000000e+000 0.000000e+000
         vertex -2.469221e+001 3.910861e+000 0.000000e+000
         vertex 2.377641e+001 -7.725425e+000 0.000000e+000
      endloop
   endfacet
   facet normal 0.000000e+000 0.000000e+000 -1.000000e+000
      outer loop
         vertex 2.377641e+001 -7.725425e+000 0.000000e+000
         vertex -2.469221e+001 3.910861e+000 0.000000e+000
         vertex -2.377641e+001 7.725425e+000 0.000000e+000
      endloop
   endfacet
   facet normal 0.000000e+000 0.000000e+000 -1.000000e+000
      outer loop
         vertex 2.377641e+001 -7.725425e+000 0.000000e+000
         vertex -2.377641e+001 7.725425e+000 0.000000e+000
         vertex -2.227516e+001 1.134976e+001 0.000000e+000
      endloop
   endfacet
   facet normal 0.000000e+000 0.000000e+000 -1.000000e+000
      outer loop
         vertex 2.469221e+001 3.910861e+000 0.000000e+000
         vertex -7.725425e+000 2.377641e+001 0.000000e+000
         vertex -3.910861e+000 2.469221e+001 0.000000e+000
      endloop
   endfacet
   facet normal 0.000000e+000 0.000000e+000 -1.000000e+000
      outer loop
         vertex 2.469221e+001 3.910861e+000 0.000000e+000
         vertex 2.500000e+001 9.184852e-015 0.000000e+000
         vertex -7.725425e+000 2.377641e+001 0.000000e+000
      endloop
   endfacet
   facet normal 0.000000e+000 0.000000e+000 -1.000000e+000
      outer loop
         vertex -7.725425e+000 2.377641e+001 0.000000e+000
         vertex 2.500000e+001 9.184852e-015 0.000000e+000
         vertex 2.469221e+001 -3.910861e+000 0.000000e+000
      endloop
   endfacet
   facet normal 0.000000e+000 0.000000e+000 -1.000000e+000
      outer loop
         vertex -7.725425e+000 2.377641e+001 0.000000e+000
         vertex 2.469221e+001 -3.910861e+000 0.000000e+000
         vertex 2.377641e+001 -7.725425e+000 0.000000e+000
      endloop
   endfacet
   facet normal 0.000000e+000 0.000000e+000 -1.000000e+000
      outer loop
         vertex 2.377641e+001 -7.725425e+000 0.000000e+000
         vertex 2.227516e+001 -1.134976e+001 0.000000e+000
         vertex 3.910861e+000 -2.469221e+001 0.000000e+000
      endloop
   endfacet
   facet normal 0.000000e+000 0.000000e+000 -1.000000e+000
      outer loop
         vertex 3.910861e+000 -2.469221e+001 0.000000e+000
         vertex 2.227516e+001 -1.134976e+001 0.000000e+000
         vertex 2.022542e+001 -1.469463e+001 0.000000e+000
      endloop
   endfacet
   facet normal 0.000000e+000 0.000000e+000 -1.000000e+000
      outer loop
         vertex 3.910861e+000 -2.469221e+001 0.000000e+000
         vertex 2.022542e+001 -1.469463e+001 0.000000e+000
         vertex 1.767767e+001 -1.767767e+001 0.000000e+000
      endloop
   endfacet
   facet normal 0.000000e+000 0.000000e+000 -1.000000e+000
      outer loop
         vertex -1.767767e+001 1.767767e+001 0.000000e+000
         vertex -1.469463e+001 2.022542e+001 0.000000e+000
         vertex 2.377641e+001 -7.725425e+000 0.000000e+000
      endloop
   endfacet
   facet normal 0.000000e+000 0.000000e+000 -1.000000e+000
      outer loop
         vertex 2.377641e+001 -7.725425e+000 0.000000e+000
         vertex -1.469463e+001 2.022542e+001 0.000000e+000
         vertex -1.134976e+001 2.227516e+001 0.000000e+000
      endloop
   endfacet
   facet normal 0.000000e+000 0.000000e+000 -1.000000e+000
      outer loop
         vertex 2.377641e+001 -7.725425e+000 0.000000e+000
         vertex -1.134976e+001 2.227516e+001 0.000000e+000
         vertex -7.725425e+000 2.377641e+001 0.000000e+000
      endloop
   endfacet
   facet normal 0.000000e+000 0.000000e+000 -1.000000e+000
      outer loop
         vertex 3.910861e+000 -2.469221e+001 0.000000e+000
         vertex 4.592426e-015 -2.500000e+001 0.000000e+000
         vertex 2.377641e+001 -7.725425e+000 0.000000e+000
      endloop
   endfacet
   facet normal 0.000000e+000 0.000000e+000 -1.000000e+000
      outer loop
         vertex 2.377641e+001 -7.725425e+000 0.000000e+000
         vertex 4.592426e-015 -2.500000e+001 0.000000e+000
         vertex -3.910861e+000 -2.469221e+001 0.000000e+000
      endloop
   endfacet
   facet normal 0.000000e+000 0.000000e+000 -1.000000e+000
      outer loop
         vertex 2.377641e+001 -7.725425e+000 0.000000e+000
         vertex -3.910861e+000 -2.469221e+001 0.000000e+000
         vertex -7.725425e+000 -2.377641e+001 0.000000e+000
      endloop
   endfacet
   facet normal 0.000000e+000 0.000000e+000 -1.000000e+000
      outer loop
         vertex -3.910861e+000 2.469221e+001 0.000000e+000
         vertex -1.530808e-015 2.500000e+001 0.000000e+000
         vertex 2.469221e+001 3.910861e+000 0.000000e+000
      endloop
   endfacet
   facet normal 0.000000e+000 0.000000e+000 -1.000000e+000
      outer loop
         vertex 2.469221e+001 3.910861e+000 0.000000e+000
         vertex -1.530808e-015 2.500000e+001 0.000000e+000
         vertex 3.910861e+000 2.469221e+001 0.000000e+000
      endloop
   endfacet
   facet normal 0.000000e+000 0.000000e+000 -1.000000e+000
      outer loop
         vertex 2.469221e+001 3.910861e+000 0.000000e+000
         vertex 3.910861e+000 2.469221e+001 0.000000e+000
         vertex 7.725425e+000 2.377641e+001 0.000000e+000
      endloop
   endfacet
   facet normal 0.000000e+000 0.000000e+000 -1.000000e+000
      outer loop
         vertex 1.767767e+001 -1.767767e+001 0.000000e+000
         vertex 1.469463e+001 -2.022542e+001 0.000000e+000
         vertex 3.910861e+000 -2.469221e+001 0.000000e+000
      endloop
   endfacet
   facet normal 0.000000e+000 0.000000e+000 -1.000000e+000
      outer loop
         vertex 3.910861e+000 -2.469221e+001 0.000000e+000
         vertex 1.469463e+001 -2.022542e+001 0.000000e+000
         vertex 1.134976e+001 -2.227516e+001 0.000000e+000
      endloop
   endfacet
   facet normal 0.000000e+000 0.000000e+000 -1.000000e+000
      outer loop
         vertex 3.910861e+000 -2.469221e+001 0.000000e+000
         vertex 1.134976e+001 -2.227516e+001 0.000000e+000
         vertex 7.725425e+000 -2.377641e+001 0.000000e+000
      endloop
   endfacet
   facet normal 0.000000e+000 0.000000e+000 -1.000000e+000
      outer loop
         vertex -7.725425e+000 -2.377641e+001 0.000000e+000
         vertex -1.134976e+001 -2.227516e+001 0.000000e+000
         vertex 2.377641e+001 -7.725425e+000 0.000000e+000
      endloop
   endfacet
   facet normal 0.000000e+000 0.000000e+000 -1.000000e+000
      outer loop
         vertex 2.377641e+001 -7.725425e+000 0.000000e+000
         vertex -1.134976e+001 -2.227516e+001 0.000000e+000
         vertex -1.469463e+001 -2.022542e+001 0.000000e+000
      endloop
   endfacet
   facet normal 0.000000e+000 0.000000e+000 -1.000000e+000
      outer loop
         vertex 2.377641e+001 -7.725425e+000 0.000000e+000
         vertex -1.469463e+001 -2.022542e+001 0.000000e+000
         vertex -1.767767e+001 -1.767767e+001 0.000000e+000
      endloop
   endfacet
   facet normal 0.000000e+000 0.000000e+000 -1.000000e+000
      outer loop
         vertex 7.725425e+000 2.377641e+001 0.000000e+000
         vertex 1.134976e+001 2.227516e+001 0.000000e+000
         vertex 2.469221e+001 3.910861e+000 0.000000e+000
      endloop
   endfacet
   facet normal 0.000000e+000 0.000000e+000 -1.000000e+000
      outer loop
         vertex 2.469221e+001 3.910861e+000 0.000000e+000
         vertex 1.134976e+001 2.227516e+001 0.000000e+000
         vertex 1.469463e+001 2.022542e+001 0.000000e+000
      endloop
   endfacet
   facet normal 0.000000e+000 0.000000e+000 -1.000000e+000
      outer loop
         vertex 2.469221e+001 3.910861e+000 0.000000e+000
         vertex 1.469463e+001 2.022542e+001 0.000000e+000
         vertex 1.767767e+001 1.767767e+001 0.000000e+000
      endloop
   endfacet
   facet normal 0.000000e+000 0.000000e+000 -1.000000e+000
      outer loop
         vertex 1.767767e+001 1.767767e+001 0.000000e+000
         vertex 2.022542e+001 1.469463e+001 0.000000e+000
         vertex 2.469221e+001 3.910861e+000 0.000000e+000
      endloop
   endfacet
   facet normal 0.000000e+000 0.000000e+000 -1.000000e+000
      outer loop
         vertex 2.469221e+001 3.910861e+000 0.000000e+000
         vertex 2.022542e+001 1.469463e+001 0.000000e+000
         vertex 2.227516e+001 1.134976e+001 0.000000e+000
      endloop
   endfacet
   facet normal 0.000000e+000 0.000000e+000 -1.000000e+000
      outer loop
         vertex 2.469221e+001 3.910861e+000 0.000000e+000
         vertex 2.227516e+001 1.134976e+001 0.000000e+000
         vertex 2.377641e+001 7.725425e+000 0.000000e+000
      endloop
   endfacet
   facet normal -9.984018e-001 5.651454e-002 0.000000e+000
      outer loop
         vertex 1.232020e+001 -2.112510e+000 5.000000e+001
         vertex 1.250000e+001 -3.061617e-015 1.500000e+002
         vertex 1.250000e+001 -3.061617e-015 5.000000e+001
      endloop
   endfacet
   facet normal -9.984018e-001 -5.651454e-002 0.000000e+000
      outer loop
         vertex 1.250000e+001 -3.061617e-015 5.000000e+001
         vertex 1.250000e+001 -3.061617e-015 1.500000e+002
         vertex 1.232020e+001 2.112510e+000 1.500000e+002
      endloop
   endfacet
   facet normal -9.935917e-001 -1.130291e-001 0.000000e+000
      outer loop
         vertex 1.250000e+001 -3.061617e-015 5.000000e+001
         vertex 1.232020e+001 2.112510e+000 1.500000e+002
         vertex 1.232020e+001 2.112510e+000 5.000000e+001
      endloop
   endfacet
   facet normal -9.744897e-001 -2.244324e-001 0.000000e+000
      outer loop
         vertex 1.232020e+001 2.112510e+000 5.000000e+001
         vertex 1.232020e+001 2.112510e+000 1.500000e+002
         vertex 1.178597e+001 4.164248e+000 1.500000e+002
      endloop
   endfacet
   facet normal -9.601977e-001 -2.793211e-001 0.000000e+000
      outer loop
         vertex 1.232020e+001 2.112510e+000 5.000000e+001
         vertex 1.178597e+001 4.164248e+000 1.500000e+002
         vertex 1.178597e+001 4.164248e+000 5.000000e+001
      endloop
   endfacet
   facet normal -9.225433e-001 -3.858936e-001 0.000000e+000
      outer loop
         vertex 1.178597e+001 4.164248e+000 5.000000e+001
         vertex 1.178597e+001 4.164248e+000 1.500000e+002
         vertex 1.091268e+001 6.096187e+000 1.500000e+002
      endloop
   endfacet
   facet normal -8.991807e-001 -4.375775e-001 0.000000e+000
      outer loop
         vertex 1.178597e+001 4.164248e+000 5.000000e+001
         vertex 1.091268e+001 6.096187e+000 1.500000e+002
         vertex 1.091268e+001 6.096187e+000 5.000000e+001
      endloop
   endfacet
   facet normal -8.440570e-001 -5.362535e-001 0.000000e+000
      outer loop
         vertex 1.091268e+001 6.096187e+000 5.000000e+001
         vertex 1.091268e+001 6.096187e+000 1.500000e+002
         vertex 9.725447e+000 7.852750e+000 1.500000e+002
      endloop
   endfacet
   facet normal -8.122959e-001 -5.832456e-001 0.000000e+000
      outer loop
         vertex 1.091268e+001 6.096187e+000 5.000000e+001
         vertex 9.725447e+000 7.852750e+000 1.500000e+002
         vertex 9.725447e+000 7.852750e+000 5.000000e+001
      endloop
   endfacet
   facet normal -7.412888e-001 -6.711863e-001 0.000000e+000
      outer loop
         vertex 9.725447e+000 7.852750e+000 5.000000e+001
         vertex 9.725447e+000 7.852750e+000 1.500000e+002
         vertex 8.258434e+000 9.383404e+000 1.500000e+002
      endloop
   endfacet
   facet normal -7.020428e-001 -7.121348e-001 0.000000e+000
      outer loop
         vertex 9.725447e+000 7.852750e+000 5.000000e+001
         vertex 8.258434e+000 9.383404e+000 1.500000e+002
         vertex 8.258434e+000 9.383404e+000 5.000000e+001
      endloop
   endfacet
   facet normal -6.171949e-001 -7.868103e-001 0.000000e+000
      outer loop
         vertex 8.258434e+000 9.383404e+000 5.000000e+001
         vertex 8.258434e+000 9.383404e+000 1.500000e+002
         vertex 6.553841e+000 1.064411e+001 1.500000e+002
      endloop
   endfacet
   facet normal -5.715931e-001 -8.205372e-001 0.000000e+000
      outer loop
         vertex 8.258434e+000 9.383404e+000 5.000000e+001
         vertex 6.553841e+000 1.064411e+001 1.500000e+002
         vertex 6.553841e+000 1.064411e+001 5.000000e+001
      endloop
   endfacet
   facet normal -4.753455e-001 -8.797992e-001 0.000000e+000
      outer loop
         vertex 6.553841e+000 1.064411e+001 5.000000e+001
         vertex 6.553841e+000 1.064411e+001 1.500000e+002
         vertex 4.660706e+000 1.159861e+001 1.500000e+002
      endloop
   endfacet
   facet normal -4.246998e-001 -9.053342e-001 0.000000e+000
      outer loop
         vertex 6.553841e+000 1.064411e+001 5.000000e+001
         vertex 4.660706e+000 1.159861e+001 1.500000e+002
         vertex 4.660706e+000 1.159861e+001 5.000000e+001
      endloop
   endfacet
   facet normal -3.198213e-001 -9.474779e-001 0.000000e+000
      outer loop
         vertex 4.660706e+000 1.159861e+001 5.000000e+001
         vertex 4.660706e+000 1.159861e+001 1.500000e+002
         vertex 2.633491e+000 1.221944e+001 1.500000e+002
      endloop
   endfacet
   facet normal -2.655886e-001 -9.640865e-001 0.000000e+000
      outer loop
         vertex 4.660706e+000 1.159861e+001 5.000000e+001
         vertex 2.633491e+000 1.221944e+001 1.500000e+002
         vertex 2.633491e+000 1.221944e+001 5.000000e+001
      endloop
   endfacet
   facet normal -1.550965e-001 -9.878993e-001 0.000000e+000
      outer loop
         vertex 2.633491e+000 1.221944e+001 5.000000e+001
         vertex 2.633491e+000 1.221944e+001 1.500000e+002
         vertex 5.305150e-001 1.248874e+001 1.500000e+002
      endloop
   endfacet
   facet normal -9.883699e-002 -9.951036e-001 0.000000e+000
      outer loop
         vertex 2.633491e+000 1.221944e+001 5.000000e+001
         vertex 5.305150e-001 1.248874e+001 1.500000e+002
         vertex 5.305150e-001 1.248874e+001 5.000000e+001
      endloop
   endfacet
   facet normal 1.409025e-002 -9.999007e-001 0.000000e+000
      outer loop
         vertex 5.305150e-001 1.248874e+001 5.000000e+001
         vertex 5.305150e-001 1.248874e+001 1.500000e+002
         vertex -1.587723e+000 1.239876e+001 1.500000e+002
      endloop
   endfacet
   facet normal 7.075802e-002 -9.974935e-001 0.000000e+000
      outer loop
         vertex 5.305150e-001 1.248874e+001 5.000000e+001
         vertex -1.587723e+000 1.239876e+001 1.500000e+002
         vertex -1.587723e+000 1.239876e+001 5.000000e+001
      endloop
   endfacet
   facet normal 1.828716e-001 -9.831368e-001 0.000000e+000
      outer loop
         vertex -1.587723e+000 1.239876e+001 5.000000e+001
         vertex -1.587723e+000 1.239876e+001 1.500000e+002
         vertex -3.660285e+000 1.195208e+001 1.500000e+002
      endloop
   endfacet
   facet normal 2.383175e-001 -9.711873e-001 0.000000e+000
      outer loop
         vertex -1.587723e+000 1.239876e+001 5.000000e+001
         vertex -3.660285e+000 1.195208e+001 1.500000e+002
         vertex -3.660285e+000 1.195208e+001 5.000000e+001
      endloop
   endfacet
   facet normal 3.463921e-001 -9.380898e-001 0.000000e+000
      outer loop
         vertex -3.660285e+000 1.195208e+001 5.000000e+001
         vertex -3.660285e+000 1.195208e+001 1.500000e+002
         vertex -5.627547e+000 1.116157e+001 1.500000e+002
      endloop
   endfacet
   facet normal 3.990209e-001 -9.169418e-001 0.000000e+000
      outer loop
         vertex -3.660285e+000 1.195208e+001 5.000000e+001
         vertex -5.627547e+000 1.116157e+001 1.500000e+002
         vertex -5.627547e+000 1.116157e+001 5.000000e+001
      endloop
   endfacet
   facet normal 4.999475e-001 -8.660557e-001 0.000000e+000
      outer loop
         vertex -5.627547e+000 1.116157e+001 5.000000e+001
         vertex -5.627547e+000 1.116157e+001 1.500000e+002
         vertex -7.432915e+000 1.004996e+001 1.500000e+002
      endloop
   endfacet
   facet normal 5.482453e-001 -8.363176e-001 0.000000e+000
      outer loop
         vertex -5.627547e+000 1.116157e+001 5.000000e+001
         vertex -7.432915e+000 1.004996e+001 1.500000e+002
         vertex -7.432915e+000 1.004996e+001 5.000000e+001
      endloop
   endfacet
   facet normal 6.391203e-001 -7.691067e-001 0.000000e+000
      outer loop
         vertex -7.432915e+000 1.004996e+001 5.000000e+001
         vertex -7.432915e+000 1.004996e+001 1.500000e+002
         vertex -9.024451e+000 8.649236e+000 1.500000e+002
      endloop
   endfacet
   facet normal 6.816977e-001 -7.316340e-001 0.000000e+000
      outer loop
         vertex -7.432915e+000 1.004996e+001 5.000000e+001
         vertex -9.024451e+000 8.649236e+000 1.500000e+002
         vertex -9.024451e+000 8.649236e+000 5.000000e+001
      endloop
   endfacet
   facet normal 7.599069e-001 -6.500320e-001 0.000000e+000
      outer loop
         vertex -9.024451e+000 8.649236e+000 5.000000e+001
         vertex -9.024451e+000 8.649236e+000 1.500000e+002
         vertex -1.035637e+001 6.999685e+000 1.500000e+002
      endloop
   endfacet
   facet normal 7.955388e-001 -6.059027e-001 0.000000e+000
      outer loop
         vertex -9.024451e+000 8.649236e+000 5.000000e+001
         vertex -1.035637e+001 6.999685e+000 1.500000e+002
         vertex -1.035637e+001 6.999685e+000 5.000000e+001
      endloop
   endfacet
   facet normal 8.588322e-001 -5.122570e-001 0.000000e+000
      outer loop
         vertex -1.035637e+001 6.999685e+000 5.000000e+001
         vertex -1.035637e+001 6.999685e+000 1.500000e+002
         vertex -1.139036e+001 5.148766e+000 1.500000e+002
      endloop
   endfacet
   facet normal 8.864937e-001 -4.627406e-001 0.000000e+000
      outer loop
         vertex -1.035637e+001 6.999685e+000 5.000000e+001
         vertex -1.139036e+001 5.148766e+000 1.500000e+002
         vertex -1.139036e+001 5.148766e+000 5.000000e+001
      endloop
   endfacet
   facet normal 9.330506e-001 -3.597453e-001 0.000000e+000
      outer loop
         vertex -1.139036e+001 5.148766e+000 5.000000e+001
         vertex -1.139036e+001 5.148766e+000 1.500000e+002
         vertex -1.209666e+001 3.149726e+000 1.500000e+002
      endloop
   endfacet
   facet normal 9.519458e-001 -3.062663e-001 0.000000e+000
      outer loop
         vertex -1.139036e+001 5.148766e+000 5.000000e+001
         vertex -1.209666e+001 3.149726e+000 1.500000e+002
         vertex -1.209666e+001 3.149726e+000 5.000000e+001
      endloop
   endfacet
   facet normal 9.804267e-001 -1.968844e-001 0.000000e+000
      outer loop
         vertex -1.209666e+001 3.149726e+000 5.000000e+001
         vertex -1.209666e+001 3.149726e+000 1.500000e+002
         vertex -1.245497e+001 1.060074e+000 1.500000e+002
      endloop
   endfacet
   facet normal 9.900123e-001 -1.409813e-001 0.000000e+000
      outer loop
         vertex -1.209666e+001 3.149726e+000 5.000000e+001
         vertex -1.245497e+001 1.060074e+000 1.500000e+002
         vertex -1.245497e+001 1.060074e+000 5.000000e+001
      endloop
   endfacet
   facet normal 9.995977e-001 -2.835944e-002 0.000000e+000
      outer loop
         vertex -1.245497e+001 1.060074e+000 5.000000e+001
         vertex -1.245497e+001 1.060074e+000 1.500000e+002
         vertex -1.245497e+001 -1.060074e+000 1.500000e+002
      endloop
   endfacet
   facet normal 9.995977e-001 2.835944e-002 0.000000e+000
      outer loop
         vertex -1.245497e+001 1.060074e+000 5.000000e+001
         vertex -1.245497e+001 -1.060074e+000 1.500000e+002
         vertex -1.245497e+001 -1.060074e+000 5.000000e+001
      endloop
   endfacet
   facet normal 9.900123e-001 1.409813e-001 0.000000e+000
      outer loop
         vertex -1.245497e+001 -1.060074e+000 5.000000e+001
         vertex -1.245497e+001 -1.060074e+000 1.500000e+002
         vertex -1.209666e+001 -3.149726e+000 1.500000e+002
      endloop
   endfacet
   facet normal 9.804267e-001 1.968844e-001 0.000000e+000
      outer loop
         vertex -1.245497e+001 -1.060074e+000 5.000000e+001
         vertex -1.209666e+001 -3.149726e+000 1.500000e+002
         vertex -1.209666e+001 -3.149726e+000 5.000000e+001
      endloop
   endfacet
   facet normal 9.519458e-001 3.062663e-001 0.000000e+000
      outer loop
         vertex -1.209666e+001 -3.149726e+000 5.000000e+001
         vertex -1.209666e+001 -3.149726e+000 1.500000e+002
         vertex -1.139036e+001 -5.148766e+000 1.500000e+002
      endloop
   endfacet
   facet normal 9.330506e-001 3.597453e-001 0.000000e+000
      outer loop
         vertex -1.209666e+001 -3.149726e+000 5.000000e+001
         vertex -1.139036e+001 -5.148766e+000 1.500000e+002
         vertex -1.139036e+001 -5.148766e+000 5.000000e+001
      endloop
   endfacet
   facet normal 8.864937e-001 4.627406e-001 0.000000e+000
      outer loop
         vertex -1.139036e+001 -5.148766e+000 5.000000e+001
         vertex -1.139036e+001 -5.148766e+000 1.500000e+002
         vertex -1.035637e+001 -6.999685e+000 1.500000e+002
      endloop
   endfacet
   facet normal 8.588322e-001 5.122570e-001 0.000000e+000
      outer loop
         vertex -1.139036e+001 -5.148766e+000 5.000000e+001
         vertex -1.035637e+001 -6.999685e+000 1.500000e+002
         vertex -1.035637e+001 -6.999685e+000 5.000000e+001
      endloop
   endfacet
   facet normal 7.955388e-001 6.059027e-001 0.000000e+000
      outer loop
         vertex -1.035637e+001 -6.999685e+000 5.000000e+001
         vertex -1.035637e+001 -6.999685e+000 1.500000e+002
         vertex -9.024451e+000 -8.649236e+000 1.500000e+002
      endloop
   endfacet
   facet normal 7.599069e-001 6.500320e-001 0.000000e+000
      outer loop
         vertex -1.035637e+001 -6.999685e+000 5.000000e+001
         vertex -9.024451e+000 -8.649236e+000 1.500000e+002
         vertex -9.024451e+000 -8.649236e+000 5.000000e+001
      endloop
   endfacet
   facet normal 6.816977e-001 7.316340e-001 0.000000e+000
      outer loop
         vertex -9.024451e+000 -8.649236e+000 5.000000e+001
         vertex -9.024451e+000 -8.649236e+000 1.500000e+002
         vertex -7.432915e+000 -1.004996e+001 1.500000e+002
      endloop
   endfacet
   facet normal 6.391203e-001 7.691067e-001 0.000000e+000
      outer loop
         vertex -9.024451e+000 -8.649236e+000 5.000000e+001
         vertex -7.432915e+000 -1.004996e+001 1.500000e+002
         vertex -7.432915e+000 -1.004996e+001 5.000000e+001
      endloop
   endfacet
   facet normal 5.482453e-001 8.363176e-001 0.000000e+000
      outer loop
         vertex -7.432915e+000 -1.004996e+001 5.000000e+001
         vertex -7.432915e+000 -1.004996e+001 1.500000e+002
         vertex -5.627547e+000 -1.116157e+001 1.500000e+002
      endloop
   endfacet
   facet normal 4.999475e-001 8.660557e-001 0.000000e+000
      outer loop
         vertex -7.432915e+000 -1.004996e+001 5.000000e+001
         vertex -5.627547e+000 -1.116157e+001 1.500000e+002
         vertex -5.627547e+000 -1.116157e+001 5.000000e+001
      endloop
   endfacet
   facet normal 3.990209e-001 9.169418e-001 0.000000e+000
      outer loop
         vertex -5.627547e+000 -1.116157e+001 5.000000e+001
         vertex -5.627547e+000 -1.116157e+001 1.500000e+002
         vertex -3.660285e+000 -1.195208e+001 1.500000e+002
      endloop
   endfacet
   facet normal 3.463921e-001 9.380898e-001 0.000000e+000
      outer loop
         vertex -5.627547e+000 -1.116157e+001 5.000000e+001
         vertex -3.660285e+000 -1.195208e+001 1.500000e+002
         vertex -3.660285e+000 -1.195208e+001 5.000000e+001
      endloop
   endfacet
   facet normal 2.383175e-001 9.711873e-001 0.000000e+000
      outer loop
         vertex -3.660285e+000 -1.195208e+001 5.000000e+001
         vertex -3.660285e+000 -1.195208e+001 1.500000e+002
         vertex -1.587723e+000 -1.239876e+001 1.500000e+002
      endloop
   endfacet
   facet normal 1.828716e-001 9.831368e-001 0.000000e+000
      outer loop
         vertex -3.660285e+000 -1.195208e+001 5.000000e+001
         vertex -1.587723e+000 -1.239876e+001 1.500000e+002
         vertex -1.587723e+000 -1.239876e+001 5.000000e+001
      endloop
   endfacet
   facet normal 7.075802e-002 9.974935e-001 0.000000e+000
      outer loop
         vertex -1.587723e+000 -1.239876e+001 5.000000e+001
         vertex -1.587723e+000 -1.239876e+001 1.500000e+002
         vertex 5.305150e-001 -1.248874e+001 1.500000e+002
      endloop
   endfacet
   facet normal 1.409025e-002 9.999007e-001 0.000000e+000
      outer loop
         vertex -1.587723e+000 -1.239876e+001 5.000000e+001
         vertex 5.305150e-001 -1.248874e+001 1.500000e+002
         vertex 5.305150e-001 -1.248874e+001 5.000000e+001
      endloop
   endfacet
   facet normal -9.883699e-002 9.951036e-001 0.000000e+000
      outer loop
         vertex 5.305150e-001 -1.248874e+001 5.000000e+001
         vertex 5.305150e-001 -1.248874e+001 1.500000e+002
         vertex 2.633491e+000 -1.221944e+001 1.500000e+002
      endloop
   endfacet
   facet normal -1.550965e-001 9.878993e-001 0.000000e+000
      outer loop
         vertex 5.305150e-001 -1.248874e+001 5.000000e+001
         vertex 2.633491e+000 -1.221944e+001 1.500000e+002
         vertex 2.633491e+000 -1.221944e+001 5.000000e+001
      endloop
   endfacet
   facet normal -2.655886e-001 9.640865e-001 0.000000e+000
      outer loop
         vertex 2.633491e+000 -1.221944e+001 5.000000e+001
         vertex 2.633491e+000 -1.221944e+001 1.500000e+002
         vertex 4.660706e+000 -1.159861e+001 1.500000e+002
      endloop
   endfacet
   facet normal -3.198213e-001 9.474779e-001 0.000000e+000
      outer loop
         vertex 2.633491e+000 -1.221944e+001 5.000000e+001
         vertex 4.660706e+000 -1.159861e+001 1.500000e+002
         vertex 4.660706e+000 -1.159861e+001 5.000000e+001
      endloop
   endfacet
   facet normal -4.246998e-001 9.053342e-001 0.000000e+000
      outer loop
         vertex 4.660706e+000 -1.159861e+001 5.000000e+001
         vertex 4.660706e+000 -1.159861e+001 1.500000e+002
         vertex 6.553841e+000 -1.064411e+001 1.500000e+002
      endloop
   endfacet
   facet normal -4.753455e-001 8.797992e-001 0.000000e+000
      outer loop
         vertex 4.660706e+000 -1.159861e+001 5.000000e+001
         vertex 6.553841e+000 -1.064411e+001 1.500000e+002
         vertex 6.553841e+000 -1.064411e+001 5.000000e+001
      endloop
   endfacet
   facet normal -5.715931e-001 8.205372e-001 0.000000e+000
      outer loop
         vertex 6.553841e+000 -1.064411e+001 5.000000e+001
         vertex 6.553841e+000 -1.064411e+001 1.500000e+002
         vertex 8.258434e+000 -9.383404e+000 1.500000e+002
      endloop
   endfacet
   facet normal -6.171949e-001 7.868103e-001 0.000000e+000
      outer loop
         vertex 6.553841e+000 -1.064411e+001 5.000000e+001
         vertex 8.258434e+000 -9.383404e+000 1.500000e+002
         vertex 8.258434e+000 -9.383404e+000 5.000000e+001
      endloop
   endfacet
   facet normal -7.020428e-001 7.121348e-001 0.000000e+000
      outer loop
         vertex 8.258434e+000 -9.383404e+000 5.000000e+001
         vertex 8.258434e+000 -9.383404e+000 1.500000e+002
         vertex 9.725447e+000 -7.852750e+000 1.500000e+002
      endloop
   endfacet
   facet normal -7.412888e-001 6.711863e-001 0.000000e+000
      outer loop
         vertex 8.258434e+000 -9.383404e+000 5.000000e+001
         vertex 9.725447e+000 -7.852750e+000 1.500000e+002
         vertex 9.725447e+000 -7.852750e+000 5.000000e+001
      endloop
   endfacet
   facet normal -8.122959e-001 5.832456e-001 0.000000e+000
      outer loop
         vertex 9.725447e+000 -7.852750e+000 5.000000e+001
         vertex 9.725447e+000 -7.852750e+000 1.500000e+002
         vertex 1.091268e+001 -6.096187e+000 1.500000e+002
      endloop
   endfacet
   facet normal -8.440570e-001 5.362535e-001 0.000000e+000
      outer loop
         vertex 9.725447e+000 -7.852750e+000 5.000000e+001
         vertex 1.091268e+001 -6.096187e+000 1.500000e+002
         vertex 1.091268e+001 -6.096187e+000 5.000000e+001
      endloop
   endfacet
   facet normal -8.991807e-001 4.375775e-001 0.000000e+000
      outer loop
         vertex 1.091268e+001 -6.096187e+000 5.000000e+001
         vertex 1.091268e+001 -6.096187e+000 1.500000e+002
         vertex 1.178597e+001 -4.164248e+000 1.500000e+002
      endloop
   endfacet
   facet normal -9.225433e-001 3.858936e-001 0.000000e+000
      outer loop
         vertex 1.091268e+001 -6.096187e+000 5.000000e+001
         vertex 1.178597e+001 -4.164248e+000 1.500000e+002
         vertex 1.178597e+001 -4.164248e+000 5.000000e+001
      endloop
   endfacet
   facet normal -9.601977e-001 2.793211e-001 0.000000e+000
      outer loop
         vertex 1.178597e+001 -4.164248e+000 5.000000e+001
         vertex 1.178597e+001 -4.164248e+000 1.500000e+002
         vertex 1.232020e+001 -2.112510e+000 1.500000e+002
      endloop
   endfacet
   facet normal -9.744897e-001 2.244324e-001 0.000000e+000
      outer loop
         vertex 1.178597e+001 -4.164248e+000 5.000000e+001
         vertex 1.232020e+001 -2.112510e+000 1.500000e+002
         vertex 1.232020e+001 -2.112510e+000 5.000000e+001
      endloop
   endfacet
   facet normal -9.935917e-001 1.130291e-001 0.000000e+000
      outer loop
         vertex 1.232020e+001 -2.112510e+000 5.000000e+001
         vertex 1.232020e+001 -2.112510e+000 1.500000e+002
         vertex 1.250000e+001 -3.061617e-015 1.500000e+002
      endloop
   endfacet
   facet normal 0.000000e+000 0.000000e+000 1.000000e+000
      outer loop
         vertex 2.633491e+000 -1.221944e+001 5.000000e+001
         vertex 2.633491e+000 1.221944e+001 5.000000e+001
         vertex 5.305150e-001 -1.248874e+001 5.000000e+001
      endloop
   endfacet
   facet normal 0.000000e+000 0.000000e+000 1.000000e+000
      outer loop
         vertex 5.305150e-001 -1.248874e+001 5.000000e+001
         vertex 2.633491e+000 1.221944e+001 5.000000e+001
         vertex -1.587723e+000 -1.239876e+001 5.000000e+001
      endloop
   endfacet
   facet normal 0.000000e+000 0.000000e+000 1.000000e+000
      outer loop
         vertex 2.633491e+000 1.221944e+001 5.000000e+001
         vertex 5.305150e-001 1.248874e+001 5.000000e+001
         vertex -1.587723e+000 -1.239876e+001 5.000000e+001
      endloop
   endfacet
   facet normal 0.000000e+000 0.000000e+000 1.000000e+000
      outer loop
         vertex -1.587723e+000 -1.239876e+001 5.000000e+001
         vertex 5.305150e-001 1.248874e+001 5.000000e+001
         vertex -1.587723e+000 1.239876e+001 5.000000e+001
      endloop
   endfacet
   facet normal 0.000000e+000 0.000000e+000 1.000000e+000
      outer loop
         vertex -1.587723e+000 -1.239876e+001 5.000000e+001
         vertex -1.587723e+000 1.239876e+001 5.000000e+001
         vertex -3.660285e+000 1.195208e+001 5.000000e+001
      endloop
   endfacet
   facet normal 0.000000e+000 0.000000e+000 1.000000e+000
      outer loop
         vertex 1.091268e+001 -6.096187e+000 5.000000e+001
         vertex 2.633491e+000 1.221944e+001 5.000000e+001
         vertex 9.725447e+000 -7.852750e+000 5.000000e+001
      endloop
   endfacet
   facet normal 0.000000e+000 0.000000e+000 1.000000e+000
      outer loop
         vertex 9.725447e+000 -7.852750e+000 5.000000e+001
         vertex 2.633491e+000 1.221944e+001 5.000000e+001
         vertex 8.258434e+000 -9.383404e+000 5.000000e+001
      endloop
   endfacet
   facet normal 0.000000e+000 0.000000e+000 1.000000e+000
      outer loop
         vertex -3.660285e+000 1.195208e+001 5.000000e+001
         vertex -5.627547e+000 1.116157e+001 5.000000e+001
         vertex -1.587723e+000 -1.239876e+001 5.000000e+001
      endloop
   endfacet
   facet normal 0.000000e+000 0.000000e+000 1.000000e+000
      outer loop
         vertex -1.587723e+000 -1.239876e+001 5.000000e+001
         vertex -5.627547e+000 1.116157e+001 5.000000e+001
         vertex -7.432915e+000 1.004996e+001 5.000000e+001
      endloop
   endfacet
   facet normal 0.000000e+000 0.000000e+000 1.000000e+000
      outer loop
         vertex -1.587723e+000 -1.239876e+001 5.000000e+001
         vertex -7.432915e+000 1.004996e+001 5.000000e+001
         vertex -9.024451e+000 8.649236e+000 5.000000e+001
      endloop
   endfacet
   facet normal 0.000000e+000 0.000000e+000 1.000000e+000
      outer loop
         vertex 2.633491e+000 -1.221944e+001 5.000000e+001
         vertex 4.660706e+000 -1.159861e+001 5.000000e+001
         vertex 2.633491e+000 1.221944e+001 5.000000e+001
      endloop
   endfacet
   facet normal 0.000000e+000 0.000000e+000 1.000000e+000
      outer loop
         vertex 2.633491e+000 1.221944e+001 5.000000e+001
         vertex 4.660706e+000 -1.159861e+001 5.000000e+001
         vertex 6.553841e+000 -1.064411e+001 5.000000e+001
      endloop
   endfacet
   facet normal 0.000000e+000 0.000000e+000 1.000000e+000
      outer loop
         vertex 2.633491e+000 1.221944e+001 5.000000e+001
         vertex 6.553841e+000 -1.064411e+001 5.000000e+001
         vertex 8.258434e+000 -9.383404e+000 5.000000e+001
      endloop
   endfacet
   facet normal 0.000000e+000 0.000000e+000 1.000000e+000
      outer loop
         vertex -9.024451e+000 8.649236e+000 5.000000e+001
         vertex -1.035637e+001 6.999685e+000 5.000000e+001
         vertex -1.587723e+000 -1.239876e+001 5.000000e+001
      endloop
   endfacet
   facet normal 0.000000e+000 0.000000e+000 1.000000e+000
      outer loop
         vertex -1.587723e+000 -1.239876e+001 5.000000e+001
         vertex -1.035637e+001 6.999685e+000 5.000000e+001
         vertex -1.139036e+001 5.148766e+000 5.000000e+001
      endloop
   endfacet
   facet normal 0.000000e+000 0.000000e+000 1.000000e+000
      outer loop
         vertex -1.587723e+000 -1.239876e+001 5.000000e+001
         vertex -1.139036e+001 5.148766e+000 5.000000e+001
         vertex -1.209666e+001 3.149726e+000 5.000000e+001
      endloop
   endfacet
   facet normal 0.000000e+000 0.000000e+000 1.000000e+000
      outer loop
         vertex -1.209666e+001 3.149726e+000 5.000000e+001
         vertex -1.245497e+001 1.060074e+000 5.000000e+001
         vertex -1.587723e+000 -1.239876e+001 5.000000e+001
      endloop
   endfacet
   facet normal 0.000000e+000 0.000000e+000 1.000000e+000
      outer loop
         vertex -1.587723e+000 -1.239876e+001 5.000000e+001
         vertex -1.245497e+001 1.060074e+000 5.000000e+001
         vertex -1.245497e+001 -1.060074e+000 5.000000e+001
      endloop
   endfacet
   facet normal 0.000000e+000 0.000000e+000 1.000000e+000
      outer loop
         vertex -1.587723e+000 -1.239876e+001 5.000000e+001
         vertex -1.245497e+001 -1.060074e+000 5.000000e+001
         vertex -1.209666e+001 -3.149726e+000 5.000000e+001
      endloop
   endfacet
   facet normal 0.000000e+000 0.000000e+000 1.000000e+000
      outer loop
         vertex -1.209666e+001 -3.149726e+000 5.000000e+001
         vertex -1.139036e+001 -5.148766e+000 5.000000e+001
         vertex -1.587723e+000 -1.239876e+001 5.000000e+001
      endloop
   endfacet
   facet normal 0.000000e+000 0.000000e+000 1.000000e+000
      outer loop
         vertex -1.587723e+000 -1.239876e+001 5.000000e+001
         vertex -1.139036e+001 -5.148766e+000 5.000000e+001
         vertex -1.035637e+001 -6.999685e+000 5.000000e+001
      endloop
   endfacet
   facet normal 0.000000e+000 0.000000e+000 1.000000e+000
      outer loop
         vertex -1.587723e+000 -1.239876e+001 5.000000e+001
         vertex -1.035637e+001 -6.999685e+000 5.000000e+001
         vertex -9.024451e+000 -8.649236e+000 5.000000e+001
      endloop
   endfacet
   facet normal 0.000000e+000 0.000000e+000 1.000000e+000
      outer loop
         vertex -9.024451e+000 -8.649236e+000 5.000000e+001
         vertex -7.432915e+000 -1.004996e+001 5.000000e+001
         vertex -1.587723e+000 -1.239876e+001 5.000000e+001
      endloop
   endfacet
   facet normal 0.000000e+000 0.000000e+000 1.000000e+000
      outer loop
         vertex -1.587723e+000 -1.239876e+001 5.000000e+001
         vertex -7.432915e+000 -1.004996e+001 5.000000e+001
         vertex -5.627547e+000 -1.116157e+001 5.000000e+001
      endloop
   endfacet
   facet normal 0.000000e+000 0.000000e+000 1.000000e+000
      outer loop
         vertex -1.587723e+000 -1.239876e+001 5.000000e+001
         vertex -5.627547e+000 -1.116157e+001 5.000000e+001
         vertex -3.660285e+000 -1.195208e+001 5.000000e+001
      endloop
   endfacet
   facet normal 0.000000e+000 0.000000e+000 1.000000e+000
      outer loop
         vertex 1.178597e+001 -4.164248e+000 5.000000e+001
         vertex 6.553841e+000 1.064411e+001 5.000000e+001
         vertex 1.091268e+001 -6.096187e+000 5.000000e+001
      endloop
   endfacet
   facet normal 0.000000e+000 0.000000e+000 1.000000e+000
      outer loop
         vertex 1.091268e+001 -6.096187e+000 5.000000e+001
         vertex 6.553841e+000 1.064411e+001 5.000000e+001
         vertex 4.660706e+000 1.159861e+001 5.000000e+001
      endloop
   endfacet
   facet normal 0.000000e+000 0.000000e+000 1.000000e+000
      outer loop
         vertex 1.091268e+001 -6.096187e+000 5.000000e+001
         vertex 4.660706e+000 1.159861e+001 5.000000e+001
         vertex 2.633491e+000 1.221944e+001 5.000000e+001
      endloop
   endfacet
   facet normal 0.000000e+000 0.000000e+000 1.000000e+000
      outer loop
         vertex 9.725447e+000 7.852750e+000 5.000000e+001
         vertex 1.250000e+001 -3.061617e-015 5.000000e+001
         vertex 1.091268e+001 6.096187e+000 5.000000e+001
      endloop
   endfacet
   facet normal 0.000000e+000 0.000000e+000 1.000000e+000
      outer loop
         vertex 1.091268e+001 6.096187e+000 5.000000e+001
         vertex 1.250000e+001 -3.061617e-015 5.000000e+001
         vertex 1.232020e+001 2.112510e+000 5.000000e+001
      endloop
   endfacet
   facet normal 0.000000e+000 0.000000e+000 1.000000e+000
      outer loop
         vertex 1.091268e+001 6.096187e+000 5.000000e+001
         vertex 1.232020e+001 2.112510e+000 5.000000e+001
         vertex 1.178597e+001 4.164248e+000 5.000000e+001
      endloop
   endfacet
   facet normal 0.000000e+000 0.000000e+000 1.000000e+000
      outer loop
         vertex 1.178597e+001 -4.164248e+000 5.000000e+001
         vertex 1.232020e+001 -2.112510e+000 5.000000e+001
         vertex 6.553841e+000 1.064411e+001 5.000000e+001
      endloop
   endfacet
   facet normal 0.000000e+000 0.000000e+000 1.000000e+000
      outer loop
         vertex 6.553841e+000 1.064411e+001 5.000000e+001
         vertex 1.232020e+001 -2.112510e+000 5.000000e+001
         vertex 1.250000e+001 -3.061617e-015 5.000000e+001
      endloop
   endfacet
   facet normal 0.000000e+000 0.000000e+000 1.000000e+000
      outer loop
         vertex 6.553841e+000 1.064411e+001 5.000000e+001
         vertex 1.250000e+001 -3.061617e-015 5.000000e+001
         vertex 8.258434e+000 9.383404e+000 5.000000e+001
      endloop
   endfacet
   facet normal 0.000000e+000 0.000000e+000 1.000000e+000
      outer loop
         vertex 8.258434e+000 9.383404e+000 5.000000e+001
         vertex 1.250000e+001 -3.061617e-015 5.000000e+001
         vertex 9.725447e+000 7.852750e+000 5.000000e+001
      endloop
   endfacet
endsolid